%TF.GenerationSoftware,KiCad,Pcbnew,9.0.2*%
%TF.CreationDate,2026-09-23T01:16:02+09:00*%
%TF.ProjectId,baseboard,62617365-626f-4617-9264-2e6b69636164,rev?*%
%TF.SameCoordinates,Original*%
%TF.FileFunction,Soldermask,Bot*%
%TF.FilePolarity,Negative*%
%FSLAX46Y46*%
G04 Gerber Fmt 4.6, Leading zero omitted, Abs format (unit mm)*
G04 Created by KiCad (PCBNEW 9.0.2) date 2026-09-23 01:16:02*
%MOMM*%
%LPD*%
G01*
G04 APERTURE LIST*
G04 Aperture macros list*
%AMRoundRect*
0 Rectangle with rounded corners*
0 $1 Rounding radius*
0 $2 $3 $4 $5 $6 $7 $8 $9 X,Y pos of 4 corners*
0 Add a 4 corners polygon primitive as box body*
4,1,4,$2,$3,$4,$5,$6,$7,$8,$9,$2,$3,0*
0 Add four circle primitives for the rounded corners*
1,1,$1+$1,$2,$3*
1,1,$1+$1,$4,$5*
1,1,$1+$1,$6,$7*
1,1,$1+$1,$8,$9*
0 Add four rect primitives between the rounded corners*
20,1,$1+$1,$2,$3,$4,$5,0*
20,1,$1+$1,$4,$5,$6,$7,0*
20,1,$1+$1,$6,$7,$8,$9,0*
20,1,$1+$1,$8,$9,$2,$3,0*%
G04 Aperture macros list end*
%ADD10R,1.500000X1.500000*%
%ADD11C,1.500000*%
%ADD12C,1.950000*%
%ADD13O,1.700000X1.700000*%
%ADD14R,1.700000X1.700000*%
%ADD15C,1.700000*%
%ADD16RoundRect,0.250000X1.050000X1.050000X-1.050000X1.050000X-1.050000X-1.050000X1.050000X-1.050000X0*%
%ADD17C,2.600000*%
%ADD18R,0.780000X0.780000*%
G04 APERTURE END LIST*
D10*
%TO.C,S5*%
X121516000Y-94560000D03*
D11*
X128016000Y-94560000D03*
X121516000Y-99060000D03*
X128016000Y-99060000D03*
%TD*%
D12*
%TO.C,S3*%
X116840000Y-158496000D03*
X116840000Y-164996000D03*
%TD*%
%TO.C,S1*%
X138430000Y-158496000D03*
X138430000Y-164996000D03*
%TD*%
D13*
%TO.C,J12*%
X154395000Y-86843000D03*
X154395000Y-89383000D03*
X154395000Y-91923000D03*
X154395000Y-94463000D03*
X154395000Y-97003000D03*
D14*
X154395000Y-99543000D03*
D13*
X156935000Y-86843000D03*
X156935000Y-89383000D03*
X156935000Y-91923000D03*
X156935000Y-94463000D03*
X156935000Y-97003000D03*
X156935000Y-99543000D03*
%TD*%
%TO.C,J1*%
X154395000Y-109728000D03*
X154395000Y-112268000D03*
X154395000Y-114808000D03*
X154395000Y-117348000D03*
X154395000Y-119888000D03*
D14*
X154395000Y-122428000D03*
D13*
X156935000Y-109728000D03*
X156935000Y-112268000D03*
X156935000Y-114808000D03*
X156935000Y-117348000D03*
X156935000Y-119888000D03*
X156935000Y-122428000D03*
%TD*%
D14*
%TO.C,J8*%
X123185000Y-80772000D03*
D15*
X125725000Y-80772000D03*
%TD*%
D12*
%TO.C,S4*%
X105664000Y-158581500D03*
X105664000Y-165081500D03*
%TD*%
D13*
%TO.C,J5*%
X69342000Y-122174000D03*
X69342000Y-119634000D03*
X69342000Y-117094000D03*
X69342000Y-114554000D03*
X69342000Y-112014000D03*
D14*
X69342000Y-109474000D03*
D13*
X66802000Y-122174000D03*
X66802000Y-119634000D03*
X66802000Y-117094000D03*
X66802000Y-114554000D03*
X66802000Y-112014000D03*
X66802000Y-109474000D03*
%TD*%
D14*
%TO.C,J14*%
X137473000Y-147828000D03*
D15*
X134933000Y-147828000D03*
X137473000Y-145288000D03*
X134933000Y-145288000D03*
X137473000Y-142748000D03*
X134933000Y-142748000D03*
X137473000Y-140208000D03*
X134933000Y-140208000D03*
X137473000Y-137668000D03*
X134933000Y-137668000D03*
X137473000Y-135128000D03*
X134933000Y-135128000D03*
X137473000Y-132588000D03*
X134933000Y-132588000D03*
X137473000Y-130048000D03*
X134933000Y-130048000D03*
X137473000Y-127508000D03*
X134933000Y-127508000D03*
X137473000Y-124968000D03*
X134933000Y-124968000D03*
X137473000Y-122428000D03*
X134933000Y-122428000D03*
X137473000Y-119888000D03*
X134933000Y-119888000D03*
X137473000Y-117348000D03*
X134933000Y-117348000D03*
X137473000Y-114808000D03*
X134933000Y-114808000D03*
X137473000Y-112268000D03*
X134933000Y-112268000D03*
X137473000Y-109728000D03*
X134933000Y-109728000D03*
X137473000Y-107188000D03*
X134933000Y-107188000D03*
X137473000Y-104648000D03*
X134933000Y-104648000D03*
X137473000Y-102108000D03*
X134933000Y-102108000D03*
X137473000Y-99568000D03*
X134933000Y-99568000D03*
X137473000Y-97028000D03*
X134933000Y-97028000D03*
X137473000Y-94488000D03*
X134933000Y-94488000D03*
X137473000Y-91948000D03*
X134933000Y-91948000D03*
X137473000Y-89408000D03*
X134933000Y-89408000D03*
X137473000Y-86868000D03*
X134933000Y-86868000D03*
%TD*%
D14*
%TO.C,U1*%
X144862600Y-147828000D03*
D15*
X142322600Y-147828000D03*
X144862600Y-145288000D03*
X142322600Y-145288000D03*
X144862600Y-142748000D03*
X142322600Y-142748000D03*
X144862600Y-140208000D03*
X142322600Y-140208000D03*
X144862600Y-137668000D03*
X142322600Y-137668000D03*
X144862600Y-135128000D03*
X142322600Y-135128000D03*
X144862600Y-132588000D03*
X142322600Y-132588000D03*
X144862600Y-130048000D03*
X142322600Y-130048000D03*
X144862600Y-127508000D03*
X142322600Y-127508000D03*
X144862600Y-124968000D03*
X142322600Y-124968000D03*
X144862600Y-122428000D03*
X142322600Y-122428000D03*
X144862600Y-119888000D03*
X142322600Y-119888000D03*
X144862600Y-117348000D03*
X142322600Y-117348000D03*
X144862600Y-114808000D03*
X142322600Y-114808000D03*
X144862600Y-112268000D03*
X142322600Y-112268000D03*
X144862600Y-109728000D03*
X142322600Y-109728000D03*
X144862600Y-107188000D03*
X142322600Y-107188000D03*
X144862600Y-104648000D03*
X142322600Y-104648000D03*
X144862600Y-102108000D03*
X142322600Y-102108000D03*
X144862600Y-99568000D03*
X142322600Y-99568000D03*
X144862600Y-97028000D03*
X142322600Y-97028000D03*
X144862600Y-94488000D03*
X142322600Y-94488000D03*
X144862600Y-91948000D03*
X142322600Y-91948000D03*
X144862600Y-89408000D03*
X142322600Y-89408000D03*
X144862600Y-86868000D03*
X142322600Y-86868000D03*
X80323000Y-86868000D03*
X82863000Y-86868000D03*
X80323000Y-89408000D03*
X82863000Y-89408000D03*
X80323000Y-91948000D03*
X82863000Y-91948000D03*
X80323000Y-94488000D03*
X82863000Y-94488000D03*
X80323000Y-97028000D03*
X82863000Y-97028000D03*
X80323000Y-99568000D03*
X82863000Y-99568000D03*
X80323000Y-102108000D03*
X82863000Y-102108000D03*
X80323000Y-104648000D03*
X82863000Y-104648000D03*
X80323000Y-107188000D03*
X82863000Y-107188000D03*
X80323000Y-109728000D03*
X82863000Y-109728000D03*
X80323000Y-112268000D03*
X82863000Y-112268000D03*
X80323000Y-114808000D03*
X82863000Y-114808000D03*
X80323000Y-117348000D03*
X82863000Y-117348000D03*
X80323000Y-119888000D03*
X82863000Y-119888000D03*
X80323000Y-122428000D03*
X82863000Y-122428000D03*
X80323000Y-124968000D03*
X82863000Y-124968000D03*
X80323000Y-127508000D03*
X82863000Y-127508000D03*
X80323000Y-130048000D03*
X82863000Y-130048000D03*
X80323000Y-132588000D03*
X82863000Y-132588000D03*
X80323000Y-135128000D03*
X82863000Y-135128000D03*
X80323000Y-137668000D03*
X82863000Y-137668000D03*
X80323000Y-140208000D03*
X82863000Y-140208000D03*
X80323000Y-142748000D03*
X82863000Y-142748000D03*
X80323000Y-145288000D03*
X82863000Y-145288000D03*
X80323000Y-147828000D03*
D14*
X82863000Y-147828000D03*
X108779000Y-93828000D03*
D15*
X108779000Y-96368000D03*
X111319000Y-93828000D03*
X111319000Y-96368000D03*
X113859000Y-93828000D03*
X113859000Y-96368000D03*
X116399000Y-93828000D03*
X116399000Y-96368000D03*
%TD*%
D12*
%TO.C,S2*%
X127508000Y-158496000D03*
X127508000Y-164996000D03*
%TD*%
D14*
%TO.C,J13*%
X98552000Y-123444000D03*
D15*
X96012000Y-123444000D03*
X98552000Y-120904000D03*
X96012000Y-120904000D03*
X98552000Y-118364000D03*
X96012000Y-118364000D03*
X98552000Y-115824000D03*
X96012000Y-115824000D03*
X98552000Y-113284000D03*
X96012000Y-113284000D03*
%TD*%
D14*
%TO.C,J11*%
X125735000Y-85344000D03*
D15*
X123195000Y-85344000D03*
%TD*%
D13*
%TO.C,J3*%
X69342000Y-167894000D03*
X69342000Y-165354000D03*
X69342000Y-162814000D03*
X69342000Y-160274000D03*
X69342000Y-157734000D03*
D14*
X69342000Y-155194000D03*
D13*
X66802000Y-167894000D03*
X66802000Y-165354000D03*
X66802000Y-162814000D03*
X66802000Y-160274000D03*
X66802000Y-157734000D03*
X66802000Y-155194000D03*
%TD*%
D16*
%TO.C,J6*%
X117348000Y-83738500D03*
D17*
X112268000Y-83738500D03*
%TD*%
D14*
%TO.C,J7*%
X87943000Y-86868000D03*
D15*
X90483000Y-86868000D03*
X87943000Y-89408000D03*
X90483000Y-89408000D03*
X87943000Y-91948000D03*
X90483000Y-91948000D03*
X87943000Y-94488000D03*
X90483000Y-94488000D03*
X87943000Y-97028000D03*
X90483000Y-97028000D03*
X87943000Y-99568000D03*
X90483000Y-99568000D03*
X87943000Y-102108000D03*
X90483000Y-102108000D03*
X87943000Y-104648000D03*
X90483000Y-104648000D03*
X87943000Y-107188000D03*
X90483000Y-107188000D03*
X87943000Y-109728000D03*
X90483000Y-109728000D03*
X87943000Y-112268000D03*
X90483000Y-112268000D03*
X87943000Y-114808000D03*
X90483000Y-114808000D03*
X87943000Y-117348000D03*
X90483000Y-117348000D03*
X87943000Y-119888000D03*
X90483000Y-119888000D03*
X87943000Y-122428000D03*
X90483000Y-122428000D03*
X87943000Y-124968000D03*
X90483000Y-124968000D03*
X87943000Y-127508000D03*
X90483000Y-127508000D03*
X87943000Y-130048000D03*
X90483000Y-130048000D03*
X87943000Y-132588000D03*
X90483000Y-132588000D03*
X87943000Y-135128000D03*
X90483000Y-135128000D03*
X87943000Y-137668000D03*
X90483000Y-137668000D03*
X87943000Y-140208000D03*
X90483000Y-140208000D03*
X87943000Y-142748000D03*
X90483000Y-142748000D03*
X87943000Y-145288000D03*
X90483000Y-145288000D03*
X87943000Y-147828000D03*
X90483000Y-147828000D03*
%TD*%
D13*
%TO.C,J4*%
X69342000Y-99314000D03*
X69342000Y-96774000D03*
X69342000Y-94234000D03*
X69342000Y-91694000D03*
X69342000Y-89154000D03*
D14*
X69342000Y-86614000D03*
D13*
X66802000Y-99314000D03*
X66802000Y-96774000D03*
X66802000Y-94234000D03*
X66802000Y-91694000D03*
X66802000Y-89154000D03*
X66802000Y-86614000D03*
%TD*%
%TO.C,J2*%
X69342000Y-145034000D03*
X69342000Y-142494000D03*
X69342000Y-139954000D03*
X69342000Y-137414000D03*
X69342000Y-134874000D03*
D14*
X69342000Y-132334000D03*
D13*
X66802000Y-145034000D03*
X66802000Y-142494000D03*
X66802000Y-139954000D03*
X66802000Y-137414000D03*
X66802000Y-134874000D03*
X66802000Y-132334000D03*
%TD*%
D18*
%TO.C,D5*%
X115758000Y-81155000D03*
X113858000Y-81155000D03*
X114808000Y-78865000D03*
%TD*%
M02*
