%TF.GenerationSoftware,KiCad,Pcbnew,9.0.2*%
%TF.CreationDate,2026-09-23T01:16:02+09:00*%
%TF.ProjectId,baseboard,62617365-626f-4617-9264-2e6b69636164,rev?*%
%TF.SameCoordinates,Original*%
%TF.FileFunction,Paste,Top*%
%TF.FilePolarity,Positive*%
%FSLAX46Y46*%
G04 Gerber Fmt 4.6, Leading zero omitted, Abs format (unit mm)*
G04 Created by KiCad (PCBNEW 9.0.2) date 2026-09-23 01:16:02*
%MOMM*%
%LPD*%
G01*
G04 APERTURE LIST*
G04 Aperture macros list*
%AMRoundRect*
0 Rectangle with rounded corners*
0 $1 Rounding radius*
0 $2 $3 $4 $5 $6 $7 $8 $9 X,Y pos of 4 corners*
0 Add a 4 corners polygon primitive as box body*
4,1,4,$2,$3,$4,$5,$6,$7,$8,$9,$2,$3,0*
0 Add four circle primitives for the rounded corners*
1,1,$1+$1,$2,$3*
1,1,$1+$1,$4,$5*
1,1,$1+$1,$6,$7*
1,1,$1+$1,$8,$9*
0 Add four rect primitives between the rounded corners*
20,1,$1+$1,$2,$3,$4,$5,0*
20,1,$1+$1,$4,$5,$6,$7,0*
20,1,$1+$1,$6,$7,$8,$9,0*
20,1,$1+$1,$8,$9,$2,$3,0*%
G04 Aperture macros list end*
%ADD10R,1.050000X0.600000*%
%ADD11RoundRect,0.237500X-0.237500X0.250000X-0.237500X-0.250000X0.237500X-0.250000X0.237500X0.250000X0*%
%ADD12RoundRect,0.237500X-0.250000X-0.237500X0.250000X-0.237500X0.250000X0.237500X-0.250000X0.237500X0*%
%ADD13RoundRect,0.237500X0.237500X-0.250000X0.237500X0.250000X-0.237500X0.250000X-0.237500X-0.250000X0*%
%ADD14R,1.500000X0.650000*%
%ADD15RoundRect,0.237500X0.250000X0.237500X-0.250000X0.237500X-0.250000X-0.237500X0.250000X-0.237500X0*%
%ADD16RoundRect,0.237500X0.237500X-0.287500X0.237500X0.287500X-0.237500X0.287500X-0.237500X-0.287500X0*%
%ADD17RoundRect,0.237500X-0.300000X-0.237500X0.300000X-0.237500X0.300000X0.237500X-0.300000X0.237500X0*%
G04 APERTURE END LIST*
D10*
%TO.C,L1*%
X102307000Y-82034000D03*
X104957000Y-82034000D03*
X104957000Y-81034000D03*
X102307000Y-81034000D03*
%TD*%
D11*
%TO.C,R6*%
X126746000Y-116181500D03*
X126746000Y-118006500D03*
%TD*%
%TO.C,R4*%
X110744000Y-116181500D03*
X110744000Y-118006500D03*
%TD*%
D12*
%TO.C,R2*%
X128373500Y-85344000D03*
X130198500Y-85344000D03*
%TD*%
D13*
%TO.C,R9*%
X112776000Y-161694500D03*
X112776000Y-159869500D03*
%TD*%
%TO.C,R7*%
X134620000Y-161694500D03*
X134620000Y-159869500D03*
%TD*%
D11*
%TO.C,R5*%
X119126000Y-116181500D03*
X119126000Y-118006500D03*
%TD*%
D14*
%TO.C,IC1*%
X92550000Y-79629000D03*
X92550000Y-80899000D03*
X92550000Y-82169000D03*
X92550000Y-83439000D03*
X97950000Y-83439000D03*
X97950000Y-82169000D03*
X97950000Y-80899000D03*
X97950000Y-79629000D03*
%TD*%
D13*
%TO.C,R10*%
X101854000Y-161694500D03*
X101854000Y-159869500D03*
%TD*%
D15*
%TO.C,R1*%
X130198500Y-80772000D03*
X128373500Y-80772000D03*
%TD*%
D11*
%TO.C,R3*%
X102870000Y-116181500D03*
X102870000Y-118006500D03*
%TD*%
D16*
%TO.C,D3*%
X121666000Y-117969000D03*
X121666000Y-116219000D03*
%TD*%
%TO.C,D1*%
X105664000Y-117969000D03*
X105664000Y-116219000D03*
%TD*%
D13*
%TO.C,R8*%
X123698000Y-161694500D03*
X123698000Y-159869500D03*
%TD*%
D16*
%TO.C,D2*%
X113538000Y-117969000D03*
X113538000Y-116219000D03*
%TD*%
%TO.C,D4*%
X129286000Y-117969000D03*
X129286000Y-116219000D03*
%TD*%
D17*
%TO.C,C3*%
X130201500Y-83058000D03*
X131926500Y-83058000D03*
%TD*%
M02*
