%TF.GenerationSoftware,KiCad,Pcbnew,9.0.2*%
%TF.CreationDate,2026-09-23T01:16:02+09:00*%
%TF.ProjectId,baseboard,62617365-626f-4617-9264-2e6b69636164,rev?*%
%TF.SameCoordinates,Original*%
%TF.FileFunction,Legend,Top*%
%TF.FilePolarity,Positive*%
%FSLAX46Y46*%
G04 Gerber Fmt 4.6, Leading zero omitted, Abs format (unit mm)*
G04 Created by KiCad (PCBNEW 9.0.2) date 2026-09-23 01:16:02*
%MOMM*%
%LPD*%
G01*
G04 APERTURE LIST*
%ADD10C,0.100000*%
%ADD11C,0.254000*%
%ADD12C,0.150000*%
%ADD13C,0.200000*%
%ADD14C,0.120000*%
G04 APERTURE END LIST*
D10*
X92877312Y-101750990D02*
X92801122Y-101712895D01*
X92801122Y-101712895D02*
X92686836Y-101712895D01*
X92686836Y-101712895D02*
X92572550Y-101750990D01*
X92572550Y-101750990D02*
X92496360Y-101827180D01*
X92496360Y-101827180D02*
X92458265Y-101903371D01*
X92458265Y-101903371D02*
X92420169Y-102055752D01*
X92420169Y-102055752D02*
X92420169Y-102170038D01*
X92420169Y-102170038D02*
X92458265Y-102322419D01*
X92458265Y-102322419D02*
X92496360Y-102398609D01*
X92496360Y-102398609D02*
X92572550Y-102474800D01*
X92572550Y-102474800D02*
X92686836Y-102512895D01*
X92686836Y-102512895D02*
X92763027Y-102512895D01*
X92763027Y-102512895D02*
X92877312Y-102474800D01*
X92877312Y-102474800D02*
X92915408Y-102436704D01*
X92915408Y-102436704D02*
X92915408Y-102170038D01*
X92915408Y-102170038D02*
X92763027Y-102170038D01*
X93448741Y-102779561D02*
X93448741Y-101636704D01*
X93943979Y-101712895D02*
X94439217Y-101712895D01*
X94439217Y-101712895D02*
X94172551Y-102017657D01*
X94172551Y-102017657D02*
X94286836Y-102017657D01*
X94286836Y-102017657D02*
X94363027Y-102055752D01*
X94363027Y-102055752D02*
X94401122Y-102093847D01*
X94401122Y-102093847D02*
X94439217Y-102170038D01*
X94439217Y-102170038D02*
X94439217Y-102360514D01*
X94439217Y-102360514D02*
X94401122Y-102436704D01*
X94401122Y-102436704D02*
X94363027Y-102474800D01*
X94363027Y-102474800D02*
X94286836Y-102512895D01*
X94286836Y-102512895D02*
X94058265Y-102512895D01*
X94058265Y-102512895D02*
X93982074Y-102474800D01*
X93982074Y-102474800D02*
X93943979Y-102436704D01*
X94667789Y-101712895D02*
X94934456Y-102512895D01*
X94934456Y-102512895D02*
X95201122Y-101712895D01*
X95391598Y-101712895D02*
X95886836Y-101712895D01*
X95886836Y-101712895D02*
X95620170Y-102017657D01*
X95620170Y-102017657D02*
X95734455Y-102017657D01*
X95734455Y-102017657D02*
X95810646Y-102055752D01*
X95810646Y-102055752D02*
X95848741Y-102093847D01*
X95848741Y-102093847D02*
X95886836Y-102170038D01*
X95886836Y-102170038D02*
X95886836Y-102360514D01*
X95886836Y-102360514D02*
X95848741Y-102436704D01*
X95848741Y-102436704D02*
X95810646Y-102474800D01*
X95810646Y-102474800D02*
X95734455Y-102512895D01*
X95734455Y-102512895D02*
X95505884Y-102512895D01*
X95505884Y-102512895D02*
X95429693Y-102474800D01*
X95429693Y-102474800D02*
X95391598Y-102436704D01*
X93029693Y-147510038D02*
X92934455Y-147462419D01*
X92934455Y-147462419D02*
X92791598Y-147462419D01*
X92791598Y-147462419D02*
X92648741Y-147510038D01*
X92648741Y-147510038D02*
X92553503Y-147605276D01*
X92553503Y-147605276D02*
X92505884Y-147700514D01*
X92505884Y-147700514D02*
X92458265Y-147890990D01*
X92458265Y-147890990D02*
X92458265Y-148033847D01*
X92458265Y-148033847D02*
X92505884Y-148224323D01*
X92505884Y-148224323D02*
X92553503Y-148319561D01*
X92553503Y-148319561D02*
X92648741Y-148414800D01*
X92648741Y-148414800D02*
X92791598Y-148462419D01*
X92791598Y-148462419D02*
X92886836Y-148462419D01*
X92886836Y-148462419D02*
X93029693Y-148414800D01*
X93029693Y-148414800D02*
X93077312Y-148367180D01*
X93077312Y-148367180D02*
X93077312Y-148033847D01*
X93077312Y-148033847D02*
X92886836Y-148033847D01*
X93743979Y-148795752D02*
X93743979Y-147367180D01*
X94363027Y-147462419D02*
X94982074Y-147462419D01*
X94982074Y-147462419D02*
X94648741Y-147843371D01*
X94648741Y-147843371D02*
X94791598Y-147843371D01*
X94791598Y-147843371D02*
X94886836Y-147890990D01*
X94886836Y-147890990D02*
X94934455Y-147938609D01*
X94934455Y-147938609D02*
X94982074Y-148033847D01*
X94982074Y-148033847D02*
X94982074Y-148271942D01*
X94982074Y-148271942D02*
X94934455Y-148367180D01*
X94934455Y-148367180D02*
X94886836Y-148414800D01*
X94886836Y-148414800D02*
X94791598Y-148462419D01*
X94791598Y-148462419D02*
X94505884Y-148462419D01*
X94505884Y-148462419D02*
X94410646Y-148414800D01*
X94410646Y-148414800D02*
X94363027Y-148367180D01*
X95267789Y-147462419D02*
X95601122Y-148462419D01*
X95601122Y-148462419D02*
X95934455Y-147462419D01*
X96172551Y-147462419D02*
X96791598Y-147462419D01*
X96791598Y-147462419D02*
X96458265Y-147843371D01*
X96458265Y-147843371D02*
X96601122Y-147843371D01*
X96601122Y-147843371D02*
X96696360Y-147890990D01*
X96696360Y-147890990D02*
X96743979Y-147938609D01*
X96743979Y-147938609D02*
X96791598Y-148033847D01*
X96791598Y-148033847D02*
X96791598Y-148271942D01*
X96791598Y-148271942D02*
X96743979Y-148367180D01*
X96743979Y-148367180D02*
X96696360Y-148414800D01*
X96696360Y-148414800D02*
X96601122Y-148462419D01*
X96601122Y-148462419D02*
X96315408Y-148462419D01*
X96315408Y-148462419D02*
X96220170Y-148414800D01*
X96220170Y-148414800D02*
X96172551Y-148367180D01*
X126633979Y-104252895D02*
X126900646Y-105052895D01*
X126900646Y-105052895D02*
X127167312Y-104252895D01*
X127891122Y-105052895D02*
X127624455Y-104671942D01*
X127433979Y-105052895D02*
X127433979Y-104252895D01*
X127433979Y-104252895D02*
X127738741Y-104252895D01*
X127738741Y-104252895D02*
X127814931Y-104290990D01*
X127814931Y-104290990D02*
X127853026Y-104329085D01*
X127853026Y-104329085D02*
X127891122Y-104405276D01*
X127891122Y-104405276D02*
X127891122Y-104519561D01*
X127891122Y-104519561D02*
X127853026Y-104595752D01*
X127853026Y-104595752D02*
X127814931Y-104633847D01*
X127814931Y-104633847D02*
X127738741Y-104671942D01*
X127738741Y-104671942D02*
X127433979Y-104671942D01*
X128233979Y-104633847D02*
X128500645Y-104633847D01*
X128614931Y-105052895D02*
X128233979Y-105052895D01*
X128233979Y-105052895D02*
X128233979Y-104252895D01*
X128233979Y-104252895D02*
X128614931Y-104252895D01*
X129224455Y-104633847D02*
X128957789Y-104633847D01*
X128957789Y-105052895D02*
X128957789Y-104252895D01*
X128957789Y-104252895D02*
X129338741Y-104252895D01*
X129833979Y-105319561D02*
X129833979Y-104176704D01*
X130291122Y-104252895D02*
X130557789Y-105052895D01*
X130557789Y-105052895D02*
X130824455Y-104252895D01*
X131053026Y-105014800D02*
X131167312Y-105052895D01*
X131167312Y-105052895D02*
X131357788Y-105052895D01*
X131357788Y-105052895D02*
X131433979Y-105014800D01*
X131433979Y-105014800D02*
X131472074Y-104976704D01*
X131472074Y-104976704D02*
X131510169Y-104900514D01*
X131510169Y-104900514D02*
X131510169Y-104824323D01*
X131510169Y-104824323D02*
X131472074Y-104748133D01*
X131472074Y-104748133D02*
X131433979Y-104710038D01*
X131433979Y-104710038D02*
X131357788Y-104671942D01*
X131357788Y-104671942D02*
X131205407Y-104633847D01*
X131205407Y-104633847D02*
X131129217Y-104595752D01*
X131129217Y-104595752D02*
X131091122Y-104557657D01*
X131091122Y-104557657D02*
X131053026Y-104481466D01*
X131053026Y-104481466D02*
X131053026Y-104405276D01*
X131053026Y-104405276D02*
X131091122Y-104329085D01*
X131091122Y-104329085D02*
X131129217Y-104290990D01*
X131129217Y-104290990D02*
X131205407Y-104252895D01*
X131205407Y-104252895D02*
X131395884Y-104252895D01*
X131395884Y-104252895D02*
X131510169Y-104290990D01*
X131814931Y-105014800D02*
X131929217Y-105052895D01*
X131929217Y-105052895D02*
X132119693Y-105052895D01*
X132119693Y-105052895D02*
X132195884Y-105014800D01*
X132195884Y-105014800D02*
X132233979Y-104976704D01*
X132233979Y-104976704D02*
X132272074Y-104900514D01*
X132272074Y-104900514D02*
X132272074Y-104824323D01*
X132272074Y-104824323D02*
X132233979Y-104748133D01*
X132233979Y-104748133D02*
X132195884Y-104710038D01*
X132195884Y-104710038D02*
X132119693Y-104671942D01*
X132119693Y-104671942D02*
X131967312Y-104633847D01*
X131967312Y-104633847D02*
X131891122Y-104595752D01*
X131891122Y-104595752D02*
X131853027Y-104557657D01*
X131853027Y-104557657D02*
X131814931Y-104481466D01*
X131814931Y-104481466D02*
X131814931Y-104405276D01*
X131814931Y-104405276D02*
X131853027Y-104329085D01*
X131853027Y-104329085D02*
X131891122Y-104290990D01*
X131891122Y-104290990D02*
X131967312Y-104252895D01*
X131967312Y-104252895D02*
X132157789Y-104252895D01*
X132157789Y-104252895D02*
X132272074Y-104290990D01*
X132576836Y-104824323D02*
X132957789Y-104824323D01*
X132500646Y-105052895D02*
X132767313Y-104252895D01*
X132767313Y-104252895D02*
X133033979Y-105052895D01*
X92712265Y-118768895D02*
X92712265Y-117968895D01*
X92712265Y-117968895D02*
X93169408Y-118768895D01*
X93169408Y-118768895D02*
X93169408Y-117968895D01*
X94007503Y-118692704D02*
X93969407Y-118730800D01*
X93969407Y-118730800D02*
X93855122Y-118768895D01*
X93855122Y-118768895D02*
X93778931Y-118768895D01*
X93778931Y-118768895D02*
X93664645Y-118730800D01*
X93664645Y-118730800D02*
X93588455Y-118654609D01*
X93588455Y-118654609D02*
X93550360Y-118578419D01*
X93550360Y-118578419D02*
X93512264Y-118426038D01*
X93512264Y-118426038D02*
X93512264Y-118311752D01*
X93512264Y-118311752D02*
X93550360Y-118159371D01*
X93550360Y-118159371D02*
X93588455Y-118083180D01*
X93588455Y-118083180D02*
X93664645Y-118006990D01*
X93664645Y-118006990D02*
X93778931Y-117968895D01*
X93778931Y-117968895D02*
X93855122Y-117968895D01*
X93855122Y-117968895D02*
X93969407Y-118006990D01*
X93969407Y-118006990D02*
X94007503Y-118045085D01*
X92712265Y-116228895D02*
X92712265Y-115428895D01*
X92712265Y-115428895D02*
X93169408Y-116228895D01*
X93169408Y-116228895D02*
X93169408Y-115428895D01*
X94007503Y-116152704D02*
X93969407Y-116190800D01*
X93969407Y-116190800D02*
X93855122Y-116228895D01*
X93855122Y-116228895D02*
X93778931Y-116228895D01*
X93778931Y-116228895D02*
X93664645Y-116190800D01*
X93664645Y-116190800D02*
X93588455Y-116114609D01*
X93588455Y-116114609D02*
X93550360Y-116038419D01*
X93550360Y-116038419D02*
X93512264Y-115886038D01*
X93512264Y-115886038D02*
X93512264Y-115771752D01*
X93512264Y-115771752D02*
X93550360Y-115619371D01*
X93550360Y-115619371D02*
X93588455Y-115543180D01*
X93588455Y-115543180D02*
X93664645Y-115466990D01*
X93664645Y-115466990D02*
X93778931Y-115428895D01*
X93778931Y-115428895D02*
X93855122Y-115428895D01*
X93855122Y-115428895D02*
X93969407Y-115466990D01*
X93969407Y-115466990D02*
X94007503Y-115505085D01*
X100586265Y-116228895D02*
X100586265Y-115428895D01*
X100586265Y-115428895D02*
X101043408Y-116228895D01*
X101043408Y-116228895D02*
X101043408Y-115428895D01*
X101881503Y-116152704D02*
X101843407Y-116190800D01*
X101843407Y-116190800D02*
X101729122Y-116228895D01*
X101729122Y-116228895D02*
X101652931Y-116228895D01*
X101652931Y-116228895D02*
X101538645Y-116190800D01*
X101538645Y-116190800D02*
X101462455Y-116114609D01*
X101462455Y-116114609D02*
X101424360Y-116038419D01*
X101424360Y-116038419D02*
X101386264Y-115886038D01*
X101386264Y-115886038D02*
X101386264Y-115771752D01*
X101386264Y-115771752D02*
X101424360Y-115619371D01*
X101424360Y-115619371D02*
X101462455Y-115543180D01*
X101462455Y-115543180D02*
X101538645Y-115466990D01*
X101538645Y-115466990D02*
X101652931Y-115428895D01*
X101652931Y-115428895D02*
X101729122Y-115428895D01*
X101729122Y-115428895D02*
X101843407Y-115466990D01*
X101843407Y-115466990D02*
X101881503Y-115505085D01*
X102108000Y-122428000D02*
X104140000Y-122428000D01*
X100584000Y-120904000D02*
X102108000Y-122428000D01*
X102362000Y-120650000D02*
X104140000Y-120650000D01*
X100330000Y-118364000D02*
X102362000Y-120650000D01*
X104983598Y-120284419D02*
X104983598Y-120998704D01*
X104983598Y-120998704D02*
X104935979Y-121141561D01*
X104935979Y-121141561D02*
X104840741Y-121236800D01*
X104840741Y-121236800D02*
X104697884Y-121284419D01*
X104697884Y-121284419D02*
X104602646Y-121284419D01*
X105316932Y-120284419D02*
X105888360Y-120284419D01*
X105602646Y-121284419D02*
X105602646Y-120284419D01*
X106221694Y-121284419D02*
X106221694Y-120284419D01*
X106221694Y-120284419D02*
X106555027Y-120998704D01*
X106555027Y-120998704D02*
X106888360Y-120284419D01*
X106888360Y-120284419D02*
X106888360Y-121284419D01*
X107316932Y-121236800D02*
X107459789Y-121284419D01*
X107459789Y-121284419D02*
X107697884Y-121284419D01*
X107697884Y-121284419D02*
X107793122Y-121236800D01*
X107793122Y-121236800D02*
X107840741Y-121189180D01*
X107840741Y-121189180D02*
X107888360Y-121093942D01*
X107888360Y-121093942D02*
X107888360Y-120998704D01*
X107888360Y-120998704D02*
X107840741Y-120903466D01*
X107840741Y-120903466D02*
X107793122Y-120855847D01*
X107793122Y-120855847D02*
X107697884Y-120808228D01*
X107697884Y-120808228D02*
X107507408Y-120760609D01*
X107507408Y-120760609D02*
X107412170Y-120712990D01*
X107412170Y-120712990D02*
X107364551Y-120665371D01*
X107364551Y-120665371D02*
X107316932Y-120570133D01*
X107316932Y-120570133D02*
X107316932Y-120474895D01*
X107316932Y-120474895D02*
X107364551Y-120379657D01*
X107364551Y-120379657D02*
X107412170Y-120332038D01*
X107412170Y-120332038D02*
X107507408Y-120284419D01*
X107507408Y-120284419D02*
X107745503Y-120284419D01*
X107745503Y-120284419D02*
X107888360Y-120332038D01*
X104983598Y-122062419D02*
X104983598Y-122776704D01*
X104983598Y-122776704D02*
X104935979Y-122919561D01*
X104935979Y-122919561D02*
X104840741Y-123014800D01*
X104840741Y-123014800D02*
X104697884Y-123062419D01*
X104697884Y-123062419D02*
X104602646Y-123062419D01*
X105316932Y-122062419D02*
X105888360Y-122062419D01*
X105602646Y-123062419D02*
X105602646Y-122062419D01*
X106221694Y-123062419D02*
X106221694Y-122062419D01*
X106221694Y-122062419D02*
X106459789Y-122062419D01*
X106459789Y-122062419D02*
X106602646Y-122110038D01*
X106602646Y-122110038D02*
X106697884Y-122205276D01*
X106697884Y-122205276D02*
X106745503Y-122300514D01*
X106745503Y-122300514D02*
X106793122Y-122490990D01*
X106793122Y-122490990D02*
X106793122Y-122633847D01*
X106793122Y-122633847D02*
X106745503Y-122824323D01*
X106745503Y-122824323D02*
X106697884Y-122919561D01*
X106697884Y-122919561D02*
X106602646Y-123014800D01*
X106602646Y-123014800D02*
X106459789Y-123062419D01*
X106459789Y-123062419D02*
X106221694Y-123062419D01*
X107412170Y-122062419D02*
X107602646Y-122062419D01*
X107602646Y-122062419D02*
X107697884Y-122110038D01*
X107697884Y-122110038D02*
X107793122Y-122205276D01*
X107793122Y-122205276D02*
X107840741Y-122395752D01*
X107840741Y-122395752D02*
X107840741Y-122729085D01*
X107840741Y-122729085D02*
X107793122Y-122919561D01*
X107793122Y-122919561D02*
X107697884Y-123014800D01*
X107697884Y-123014800D02*
X107602646Y-123062419D01*
X107602646Y-123062419D02*
X107412170Y-123062419D01*
X107412170Y-123062419D02*
X107316932Y-123014800D01*
X107316932Y-123014800D02*
X107221694Y-122919561D01*
X107221694Y-122919561D02*
X107174075Y-122729085D01*
X107174075Y-122729085D02*
X107174075Y-122395752D01*
X107174075Y-122395752D02*
X107221694Y-122205276D01*
X107221694Y-122205276D02*
X107316932Y-122110038D01*
X107316932Y-122110038D02*
X107412170Y-122062419D01*
X97932419Y-110916401D02*
X98646704Y-110916401D01*
X98646704Y-110916401D02*
X98789561Y-110964020D01*
X98789561Y-110964020D02*
X98884800Y-111059258D01*
X98884800Y-111059258D02*
X98932419Y-111202115D01*
X98932419Y-111202115D02*
X98932419Y-111297353D01*
X97932419Y-110583067D02*
X97932419Y-110011639D01*
X98932419Y-110297353D02*
X97932419Y-110297353D01*
X98932419Y-109678305D02*
X97932419Y-109678305D01*
X97932419Y-109678305D02*
X97932419Y-109440210D01*
X97932419Y-109440210D02*
X97980038Y-109297353D01*
X97980038Y-109297353D02*
X98075276Y-109202115D01*
X98075276Y-109202115D02*
X98170514Y-109154496D01*
X98170514Y-109154496D02*
X98360990Y-109106877D01*
X98360990Y-109106877D02*
X98503847Y-109106877D01*
X98503847Y-109106877D02*
X98694323Y-109154496D01*
X98694323Y-109154496D02*
X98789561Y-109202115D01*
X98789561Y-109202115D02*
X98884800Y-109297353D01*
X98884800Y-109297353D02*
X98932419Y-109440210D01*
X98932419Y-109440210D02*
X98932419Y-109678305D01*
X98932419Y-108678305D02*
X97932419Y-108678305D01*
X96331693Y-110426038D02*
X96236455Y-110378419D01*
X96236455Y-110378419D02*
X96093598Y-110378419D01*
X96093598Y-110378419D02*
X95950741Y-110426038D01*
X95950741Y-110426038D02*
X95855503Y-110521276D01*
X95855503Y-110521276D02*
X95807884Y-110616514D01*
X95807884Y-110616514D02*
X95760265Y-110806990D01*
X95760265Y-110806990D02*
X95760265Y-110949847D01*
X95760265Y-110949847D02*
X95807884Y-111140323D01*
X95807884Y-111140323D02*
X95855503Y-111235561D01*
X95855503Y-111235561D02*
X95950741Y-111330800D01*
X95950741Y-111330800D02*
X96093598Y-111378419D01*
X96093598Y-111378419D02*
X96188836Y-111378419D01*
X96188836Y-111378419D02*
X96331693Y-111330800D01*
X96331693Y-111330800D02*
X96379312Y-111283180D01*
X96379312Y-111283180D02*
X96379312Y-110949847D01*
X96379312Y-110949847D02*
X96188836Y-110949847D01*
X93330895Y-121739925D02*
X93330895Y-121244687D01*
X93330895Y-121244687D02*
X93635657Y-121511353D01*
X93635657Y-121511353D02*
X93635657Y-121397068D01*
X93635657Y-121397068D02*
X93673752Y-121320877D01*
X93673752Y-121320877D02*
X93711847Y-121282782D01*
X93711847Y-121282782D02*
X93788038Y-121244687D01*
X93788038Y-121244687D02*
X93978514Y-121244687D01*
X93978514Y-121244687D02*
X94054704Y-121282782D01*
X94054704Y-121282782D02*
X94092800Y-121320877D01*
X94092800Y-121320877D02*
X94130895Y-121397068D01*
X94130895Y-121397068D02*
X94130895Y-121625639D01*
X94130895Y-121625639D02*
X94092800Y-121701830D01*
X94092800Y-121701830D02*
X94054704Y-121739925D01*
X93330895Y-121016115D02*
X94130895Y-120749448D01*
X94130895Y-120749448D02*
X93330895Y-120482782D01*
X93330895Y-120292306D02*
X93330895Y-119797068D01*
X93330895Y-119797068D02*
X93635657Y-120063734D01*
X93635657Y-120063734D02*
X93635657Y-119949449D01*
X93635657Y-119949449D02*
X93673752Y-119873258D01*
X93673752Y-119873258D02*
X93711847Y-119835163D01*
X93711847Y-119835163D02*
X93788038Y-119797068D01*
X93788038Y-119797068D02*
X93978514Y-119797068D01*
X93978514Y-119797068D02*
X94054704Y-119835163D01*
X94054704Y-119835163D02*
X94092800Y-119873258D01*
X94092800Y-119873258D02*
X94130895Y-119949449D01*
X94130895Y-119949449D02*
X94130895Y-120178020D01*
X94130895Y-120178020D02*
X94092800Y-120254211D01*
X94092800Y-120254211D02*
X94054704Y-120292306D01*
X96331693Y-125158038D02*
X96236455Y-125110419D01*
X96236455Y-125110419D02*
X96093598Y-125110419D01*
X96093598Y-125110419D02*
X95950741Y-125158038D01*
X95950741Y-125158038D02*
X95855503Y-125253276D01*
X95855503Y-125253276D02*
X95807884Y-125348514D01*
X95807884Y-125348514D02*
X95760265Y-125538990D01*
X95760265Y-125538990D02*
X95760265Y-125681847D01*
X95760265Y-125681847D02*
X95807884Y-125872323D01*
X95807884Y-125872323D02*
X95855503Y-125967561D01*
X95855503Y-125967561D02*
X95950741Y-126062800D01*
X95950741Y-126062800D02*
X96093598Y-126110419D01*
X96093598Y-126110419D02*
X96188836Y-126110419D01*
X96188836Y-126110419D02*
X96331693Y-126062800D01*
X96331693Y-126062800D02*
X96379312Y-126015180D01*
X96379312Y-126015180D02*
X96379312Y-125681847D01*
X96379312Y-125681847D02*
X96188836Y-125681847D01*
X100919598Y-123078419D02*
X100919598Y-123792704D01*
X100919598Y-123792704D02*
X100871979Y-123935561D01*
X100871979Y-123935561D02*
X100776741Y-124030800D01*
X100776741Y-124030800D02*
X100633884Y-124078419D01*
X100633884Y-124078419D02*
X100538646Y-124078419D01*
X101252932Y-123078419D02*
X101824360Y-123078419D01*
X101538646Y-124078419D02*
X101538646Y-123078419D01*
X102729122Y-123983180D02*
X102681503Y-124030800D01*
X102681503Y-124030800D02*
X102538646Y-124078419D01*
X102538646Y-124078419D02*
X102443408Y-124078419D01*
X102443408Y-124078419D02*
X102300551Y-124030800D01*
X102300551Y-124030800D02*
X102205313Y-123935561D01*
X102205313Y-123935561D02*
X102157694Y-123840323D01*
X102157694Y-123840323D02*
X102110075Y-123649847D01*
X102110075Y-123649847D02*
X102110075Y-123506990D01*
X102110075Y-123506990D02*
X102157694Y-123316514D01*
X102157694Y-123316514D02*
X102205313Y-123221276D01*
X102205313Y-123221276D02*
X102300551Y-123126038D01*
X102300551Y-123126038D02*
X102443408Y-123078419D01*
X102443408Y-123078419D02*
X102538646Y-123078419D01*
X102538646Y-123078419D02*
X102681503Y-123126038D01*
X102681503Y-123126038D02*
X102729122Y-123173657D01*
X103157694Y-124078419D02*
X103157694Y-123078419D01*
X103729122Y-124078419D02*
X103300551Y-123506990D01*
X103729122Y-123078419D02*
X103157694Y-123649847D01*
X152386360Y-83454419D02*
X152576836Y-83454419D01*
X152576836Y-83454419D02*
X152672074Y-83502038D01*
X152672074Y-83502038D02*
X152767312Y-83597276D01*
X152767312Y-83597276D02*
X152814931Y-83787752D01*
X152814931Y-83787752D02*
X152814931Y-84121085D01*
X152814931Y-84121085D02*
X152767312Y-84311561D01*
X152767312Y-84311561D02*
X152672074Y-84406800D01*
X152672074Y-84406800D02*
X152576836Y-84454419D01*
X152576836Y-84454419D02*
X152386360Y-84454419D01*
X152386360Y-84454419D02*
X152291122Y-84406800D01*
X152291122Y-84406800D02*
X152195884Y-84311561D01*
X152195884Y-84311561D02*
X152148265Y-84121085D01*
X152148265Y-84121085D02*
X152148265Y-83787752D01*
X152148265Y-83787752D02*
X152195884Y-83597276D01*
X152195884Y-83597276D02*
X152291122Y-83502038D01*
X152291122Y-83502038D02*
X152386360Y-83454419D01*
X153243503Y-83787752D02*
X153243503Y-84454419D01*
X153243503Y-83882990D02*
X153291122Y-83835371D01*
X153291122Y-83835371D02*
X153386360Y-83787752D01*
X153386360Y-83787752D02*
X153529217Y-83787752D01*
X153529217Y-83787752D02*
X153624455Y-83835371D01*
X153624455Y-83835371D02*
X153672074Y-83930609D01*
X153672074Y-83930609D02*
X153672074Y-84454419D01*
X154291122Y-84454419D02*
X154195884Y-84406800D01*
X154195884Y-84406800D02*
X154148265Y-84311561D01*
X154148265Y-84311561D02*
X154148265Y-83454419D01*
X154576837Y-83787752D02*
X154814932Y-84454419D01*
X155053027Y-83787752D02*
X154814932Y-84454419D01*
X154814932Y-84454419D02*
X154719694Y-84692514D01*
X154719694Y-84692514D02*
X154672075Y-84740133D01*
X154672075Y-84740133D02*
X154576837Y-84787752D01*
X156100647Y-83454419D02*
X156719694Y-83454419D01*
X156719694Y-83454419D02*
X156386361Y-83835371D01*
X156386361Y-83835371D02*
X156529218Y-83835371D01*
X156529218Y-83835371D02*
X156624456Y-83882990D01*
X156624456Y-83882990D02*
X156672075Y-83930609D01*
X156672075Y-83930609D02*
X156719694Y-84025847D01*
X156719694Y-84025847D02*
X156719694Y-84263942D01*
X156719694Y-84263942D02*
X156672075Y-84359180D01*
X156672075Y-84359180D02*
X156624456Y-84406800D01*
X156624456Y-84406800D02*
X156529218Y-84454419D01*
X156529218Y-84454419D02*
X156243504Y-84454419D01*
X156243504Y-84454419D02*
X156148266Y-84406800D01*
X156148266Y-84406800D02*
X156100647Y-84359180D01*
X157148266Y-84359180D02*
X157195885Y-84406800D01*
X157195885Y-84406800D02*
X157148266Y-84454419D01*
X157148266Y-84454419D02*
X157100647Y-84406800D01*
X157100647Y-84406800D02*
X157148266Y-84359180D01*
X157148266Y-84359180D02*
X157148266Y-84454419D01*
X157529218Y-83454419D02*
X158148265Y-83454419D01*
X158148265Y-83454419D02*
X157814932Y-83835371D01*
X157814932Y-83835371D02*
X157957789Y-83835371D01*
X157957789Y-83835371D02*
X158053027Y-83882990D01*
X158053027Y-83882990D02*
X158100646Y-83930609D01*
X158100646Y-83930609D02*
X158148265Y-84025847D01*
X158148265Y-84025847D02*
X158148265Y-84263942D01*
X158148265Y-84263942D02*
X158100646Y-84359180D01*
X158100646Y-84359180D02*
X158053027Y-84406800D01*
X158053027Y-84406800D02*
X157957789Y-84454419D01*
X157957789Y-84454419D02*
X157672075Y-84454419D01*
X157672075Y-84454419D02*
X157576837Y-84406800D01*
X157576837Y-84406800D02*
X157529218Y-84359180D01*
X158433980Y-83454419D02*
X158767313Y-84454419D01*
X158767313Y-84454419D02*
X159100646Y-83454419D01*
X71947693Y-134429038D02*
X71852455Y-134381419D01*
X71852455Y-134381419D02*
X71709598Y-134381419D01*
X71709598Y-134381419D02*
X71566741Y-134429038D01*
X71566741Y-134429038D02*
X71471503Y-134524276D01*
X71471503Y-134524276D02*
X71423884Y-134619514D01*
X71423884Y-134619514D02*
X71376265Y-134809990D01*
X71376265Y-134809990D02*
X71376265Y-134952847D01*
X71376265Y-134952847D02*
X71423884Y-135143323D01*
X71423884Y-135143323D02*
X71471503Y-135238561D01*
X71471503Y-135238561D02*
X71566741Y-135333800D01*
X71566741Y-135333800D02*
X71709598Y-135381419D01*
X71709598Y-135381419D02*
X71804836Y-135381419D01*
X71804836Y-135381419D02*
X71947693Y-135333800D01*
X71947693Y-135333800D02*
X71995312Y-135286180D01*
X71995312Y-135286180D02*
X71995312Y-134952847D01*
X71995312Y-134952847D02*
X71804836Y-134952847D01*
X148477931Y-86853847D02*
X148592217Y-86891942D01*
X148592217Y-86891942D02*
X148630312Y-86930038D01*
X148630312Y-86930038D02*
X148668408Y-87006228D01*
X148668408Y-87006228D02*
X148668408Y-87120514D01*
X148668408Y-87120514D02*
X148630312Y-87196704D01*
X148630312Y-87196704D02*
X148592217Y-87234800D01*
X148592217Y-87234800D02*
X148516027Y-87272895D01*
X148516027Y-87272895D02*
X148211265Y-87272895D01*
X148211265Y-87272895D02*
X148211265Y-86472895D01*
X148211265Y-86472895D02*
X148477931Y-86472895D01*
X148477931Y-86472895D02*
X148554122Y-86510990D01*
X148554122Y-86510990D02*
X148592217Y-86549085D01*
X148592217Y-86549085D02*
X148630312Y-86625276D01*
X148630312Y-86625276D02*
X148630312Y-86701466D01*
X148630312Y-86701466D02*
X148592217Y-86777657D01*
X148592217Y-86777657D02*
X148554122Y-86815752D01*
X148554122Y-86815752D02*
X148477931Y-86853847D01*
X148477931Y-86853847D02*
X148211265Y-86853847D01*
X148973169Y-86549085D02*
X149011265Y-86510990D01*
X149011265Y-86510990D02*
X149087455Y-86472895D01*
X149087455Y-86472895D02*
X149277931Y-86472895D01*
X149277931Y-86472895D02*
X149354122Y-86510990D01*
X149354122Y-86510990D02*
X149392217Y-86549085D01*
X149392217Y-86549085D02*
X149430312Y-86625276D01*
X149430312Y-86625276D02*
X149430312Y-86701466D01*
X149430312Y-86701466D02*
X149392217Y-86815752D01*
X149392217Y-86815752D02*
X148935074Y-87272895D01*
X148935074Y-87272895D02*
X149430312Y-87272895D01*
X149963646Y-87539561D02*
X149963646Y-86396704D01*
X150535075Y-86853847D02*
X150801741Y-86853847D01*
X150916027Y-87272895D02*
X150535075Y-87272895D01*
X150535075Y-87272895D02*
X150535075Y-86472895D01*
X150535075Y-86472895D02*
X150916027Y-86472895D01*
X151677932Y-87272895D02*
X151220789Y-87272895D01*
X151449361Y-87272895D02*
X151449361Y-86472895D01*
X151449361Y-86472895D02*
X151373170Y-86587180D01*
X151373170Y-86587180D02*
X151296980Y-86663371D01*
X151296980Y-86663371D02*
X151220789Y-86701466D01*
X151944599Y-86472895D02*
X152439837Y-86472895D01*
X152439837Y-86472895D02*
X152173171Y-86777657D01*
X152173171Y-86777657D02*
X152287456Y-86777657D01*
X152287456Y-86777657D02*
X152363647Y-86815752D01*
X152363647Y-86815752D02*
X152401742Y-86853847D01*
X152401742Y-86853847D02*
X152439837Y-86930038D01*
X152439837Y-86930038D02*
X152439837Y-87120514D01*
X152439837Y-87120514D02*
X152401742Y-87196704D01*
X152401742Y-87196704D02*
X152363647Y-87234800D01*
X152363647Y-87234800D02*
X152287456Y-87272895D01*
X152287456Y-87272895D02*
X152058885Y-87272895D01*
X152058885Y-87272895D02*
X151982694Y-87234800D01*
X151982694Y-87234800D02*
X151944599Y-87196704D01*
X71535027Y-154701419D02*
X71868360Y-155701419D01*
X71868360Y-155701419D02*
X72201693Y-154701419D01*
X123239884Y-102107419D02*
X123239884Y-101107419D01*
X123239884Y-101107419D02*
X123811312Y-102107419D01*
X123811312Y-102107419D02*
X123811312Y-101107419D01*
X124858931Y-102107419D02*
X124525598Y-101631228D01*
X124287503Y-102107419D02*
X124287503Y-101107419D01*
X124287503Y-101107419D02*
X124668455Y-101107419D01*
X124668455Y-101107419D02*
X124763693Y-101155038D01*
X124763693Y-101155038D02*
X124811312Y-101202657D01*
X124811312Y-101202657D02*
X124858931Y-101297895D01*
X124858931Y-101297895D02*
X124858931Y-101440752D01*
X124858931Y-101440752D02*
X124811312Y-101535990D01*
X124811312Y-101535990D02*
X124763693Y-101583609D01*
X124763693Y-101583609D02*
X124668455Y-101631228D01*
X124668455Y-101631228D02*
X124287503Y-101631228D01*
X125239884Y-102059800D02*
X125382741Y-102107419D01*
X125382741Y-102107419D02*
X125620836Y-102107419D01*
X125620836Y-102107419D02*
X125716074Y-102059800D01*
X125716074Y-102059800D02*
X125763693Y-102012180D01*
X125763693Y-102012180D02*
X125811312Y-101916942D01*
X125811312Y-101916942D02*
X125811312Y-101821704D01*
X125811312Y-101821704D02*
X125763693Y-101726466D01*
X125763693Y-101726466D02*
X125716074Y-101678847D01*
X125716074Y-101678847D02*
X125620836Y-101631228D01*
X125620836Y-101631228D02*
X125430360Y-101583609D01*
X125430360Y-101583609D02*
X125335122Y-101535990D01*
X125335122Y-101535990D02*
X125287503Y-101488371D01*
X125287503Y-101488371D02*
X125239884Y-101393133D01*
X125239884Y-101393133D02*
X125239884Y-101297895D01*
X125239884Y-101297895D02*
X125287503Y-101202657D01*
X125287503Y-101202657D02*
X125335122Y-101155038D01*
X125335122Y-101155038D02*
X125430360Y-101107419D01*
X125430360Y-101107419D02*
X125668455Y-101107419D01*
X125668455Y-101107419D02*
X125811312Y-101155038D01*
X126097027Y-101107419D02*
X126668455Y-101107419D01*
X126382741Y-102107419D02*
X126382741Y-101107419D01*
X71408027Y-131841419D02*
X71741360Y-132841419D01*
X71741360Y-132841419D02*
X72074693Y-131841419D01*
X107282704Y-117726734D02*
X107282704Y-117250544D01*
X107568419Y-117821972D02*
X106568419Y-117488639D01*
X106568419Y-117488639D02*
X107568419Y-117155306D01*
X106568419Y-116393401D02*
X106568419Y-116583877D01*
X106568419Y-116583877D02*
X106616038Y-116679115D01*
X106616038Y-116679115D02*
X106663657Y-116726734D01*
X106663657Y-116726734D02*
X106806514Y-116821972D01*
X106806514Y-116821972D02*
X106996990Y-116869591D01*
X106996990Y-116869591D02*
X107377942Y-116869591D01*
X107377942Y-116869591D02*
X107473180Y-116821972D01*
X107473180Y-116821972D02*
X107520800Y-116774353D01*
X107520800Y-116774353D02*
X107568419Y-116679115D01*
X107568419Y-116679115D02*
X107568419Y-116488639D01*
X107568419Y-116488639D02*
X107520800Y-116393401D01*
X107520800Y-116393401D02*
X107473180Y-116345782D01*
X107473180Y-116345782D02*
X107377942Y-116298163D01*
X107377942Y-116298163D02*
X107139847Y-116298163D01*
X107139847Y-116298163D02*
X107044609Y-116345782D01*
X107044609Y-116345782D02*
X106996990Y-116393401D01*
X106996990Y-116393401D02*
X106949371Y-116488639D01*
X106949371Y-116488639D02*
X106949371Y-116679115D01*
X106949371Y-116679115D02*
X106996990Y-116774353D01*
X106996990Y-116774353D02*
X107044609Y-116821972D01*
X107044609Y-116821972D02*
X107139847Y-116869591D01*
X71550884Y-163321419D02*
X71550884Y-162321419D01*
X71550884Y-162321419D02*
X71788979Y-162321419D01*
X71788979Y-162321419D02*
X71931836Y-162369038D01*
X71931836Y-162369038D02*
X72027074Y-162464276D01*
X72027074Y-162464276D02*
X72074693Y-162559514D01*
X72074693Y-162559514D02*
X72122312Y-162749990D01*
X72122312Y-162749990D02*
X72122312Y-162892847D01*
X72122312Y-162892847D02*
X72074693Y-163083323D01*
X72074693Y-163083323D02*
X72027074Y-163178561D01*
X72027074Y-163178561D02*
X71931836Y-163273800D01*
X71931836Y-163273800D02*
X71788979Y-163321419D01*
X71788979Y-163321419D02*
X71550884Y-163321419D01*
X72979455Y-162321419D02*
X72788979Y-162321419D01*
X72788979Y-162321419D02*
X72693741Y-162369038D01*
X72693741Y-162369038D02*
X72646122Y-162416657D01*
X72646122Y-162416657D02*
X72550884Y-162559514D01*
X72550884Y-162559514D02*
X72503265Y-162749990D01*
X72503265Y-162749990D02*
X72503265Y-163130942D01*
X72503265Y-163130942D02*
X72550884Y-163226180D01*
X72550884Y-163226180D02*
X72598503Y-163273800D01*
X72598503Y-163273800D02*
X72693741Y-163321419D01*
X72693741Y-163321419D02*
X72884217Y-163321419D01*
X72884217Y-163321419D02*
X72979455Y-163273800D01*
X72979455Y-163273800D02*
X73027074Y-163226180D01*
X73027074Y-163226180D02*
X73074693Y-163130942D01*
X73074693Y-163130942D02*
X73074693Y-162892847D01*
X73074693Y-162892847D02*
X73027074Y-162797609D01*
X73027074Y-162797609D02*
X72979455Y-162749990D01*
X72979455Y-162749990D02*
X72884217Y-162702371D01*
X72884217Y-162702371D02*
X72693741Y-162702371D01*
X72693741Y-162702371D02*
X72598503Y-162749990D01*
X72598503Y-162749990D02*
X72550884Y-162797609D01*
X72550884Y-162797609D02*
X72503265Y-162892847D01*
X73741360Y-163654752D02*
X73741360Y-162226180D01*
X75027074Y-163226180D02*
X74979455Y-163273800D01*
X74979455Y-163273800D02*
X74836598Y-163321419D01*
X74836598Y-163321419D02*
X74741360Y-163321419D01*
X74741360Y-163321419D02*
X74598503Y-163273800D01*
X74598503Y-163273800D02*
X74503265Y-163178561D01*
X74503265Y-163178561D02*
X74455646Y-163083323D01*
X74455646Y-163083323D02*
X74408027Y-162892847D01*
X74408027Y-162892847D02*
X74408027Y-162749990D01*
X74408027Y-162749990D02*
X74455646Y-162559514D01*
X74455646Y-162559514D02*
X74503265Y-162464276D01*
X74503265Y-162464276D02*
X74598503Y-162369038D01*
X74598503Y-162369038D02*
X74741360Y-162321419D01*
X74741360Y-162321419D02*
X74836598Y-162321419D01*
X74836598Y-162321419D02*
X74979455Y-162369038D01*
X74979455Y-162369038D02*
X75027074Y-162416657D01*
X75598503Y-162749990D02*
X75503265Y-162702371D01*
X75503265Y-162702371D02*
X75455646Y-162654752D01*
X75455646Y-162654752D02*
X75408027Y-162559514D01*
X75408027Y-162559514D02*
X75408027Y-162511895D01*
X75408027Y-162511895D02*
X75455646Y-162416657D01*
X75455646Y-162416657D02*
X75503265Y-162369038D01*
X75503265Y-162369038D02*
X75598503Y-162321419D01*
X75598503Y-162321419D02*
X75788979Y-162321419D01*
X75788979Y-162321419D02*
X75884217Y-162369038D01*
X75884217Y-162369038D02*
X75931836Y-162416657D01*
X75931836Y-162416657D02*
X75979455Y-162511895D01*
X75979455Y-162511895D02*
X75979455Y-162559514D01*
X75979455Y-162559514D02*
X75931836Y-162654752D01*
X75931836Y-162654752D02*
X75884217Y-162702371D01*
X75884217Y-162702371D02*
X75788979Y-162749990D01*
X75788979Y-162749990D02*
X75598503Y-162749990D01*
X75598503Y-162749990D02*
X75503265Y-162797609D01*
X75503265Y-162797609D02*
X75455646Y-162845228D01*
X75455646Y-162845228D02*
X75408027Y-162940466D01*
X75408027Y-162940466D02*
X75408027Y-163130942D01*
X75408027Y-163130942D02*
X75455646Y-163226180D01*
X75455646Y-163226180D02*
X75503265Y-163273800D01*
X75503265Y-163273800D02*
X75598503Y-163321419D01*
X75598503Y-163321419D02*
X75788979Y-163321419D01*
X75788979Y-163321419D02*
X75884217Y-163273800D01*
X75884217Y-163273800D02*
X75931836Y-163226180D01*
X75931836Y-163226180D02*
X75979455Y-163130942D01*
X75979455Y-163130942D02*
X75979455Y-162940466D01*
X75979455Y-162940466D02*
X75931836Y-162845228D01*
X75931836Y-162845228D02*
X75884217Y-162797609D01*
X75884217Y-162797609D02*
X75788979Y-162749990D01*
X136955884Y-155701419D02*
X136955884Y-154701419D01*
X136955884Y-154701419D02*
X137193979Y-154701419D01*
X137193979Y-154701419D02*
X137336836Y-154749038D01*
X137336836Y-154749038D02*
X137432074Y-154844276D01*
X137432074Y-154844276D02*
X137479693Y-154939514D01*
X137479693Y-154939514D02*
X137527312Y-155129990D01*
X137527312Y-155129990D02*
X137527312Y-155272847D01*
X137527312Y-155272847D02*
X137479693Y-155463323D01*
X137479693Y-155463323D02*
X137432074Y-155558561D01*
X137432074Y-155558561D02*
X137336836Y-155653800D01*
X137336836Y-155653800D02*
X137193979Y-155701419D01*
X137193979Y-155701419D02*
X136955884Y-155701419D01*
X138479693Y-155701419D02*
X137908265Y-155701419D01*
X138193979Y-155701419D02*
X138193979Y-154701419D01*
X138193979Y-154701419D02*
X138098741Y-154844276D01*
X138098741Y-154844276D02*
X138003503Y-154939514D01*
X138003503Y-154939514D02*
X137908265Y-154987133D01*
X138813027Y-154701419D02*
X139432074Y-154701419D01*
X139432074Y-154701419D02*
X139098741Y-155082371D01*
X139098741Y-155082371D02*
X139241598Y-155082371D01*
X139241598Y-155082371D02*
X139336836Y-155129990D01*
X139336836Y-155129990D02*
X139384455Y-155177609D01*
X139384455Y-155177609D02*
X139432074Y-155272847D01*
X139432074Y-155272847D02*
X139432074Y-155510942D01*
X139432074Y-155510942D02*
X139384455Y-155606180D01*
X139384455Y-155606180D02*
X139336836Y-155653800D01*
X139336836Y-155653800D02*
X139241598Y-155701419D01*
X139241598Y-155701419D02*
X138955884Y-155701419D01*
X138955884Y-155701419D02*
X138860646Y-155653800D01*
X138860646Y-155653800D02*
X138813027Y-155606180D01*
X126287884Y-155701419D02*
X126287884Y-154701419D01*
X126287884Y-154701419D02*
X126525979Y-154701419D01*
X126525979Y-154701419D02*
X126668836Y-154749038D01*
X126668836Y-154749038D02*
X126764074Y-154844276D01*
X126764074Y-154844276D02*
X126811693Y-154939514D01*
X126811693Y-154939514D02*
X126859312Y-155129990D01*
X126859312Y-155129990D02*
X126859312Y-155272847D01*
X126859312Y-155272847D02*
X126811693Y-155463323D01*
X126811693Y-155463323D02*
X126764074Y-155558561D01*
X126764074Y-155558561D02*
X126668836Y-155653800D01*
X126668836Y-155653800D02*
X126525979Y-155701419D01*
X126525979Y-155701419D02*
X126287884Y-155701419D01*
X127811693Y-155701419D02*
X127240265Y-155701419D01*
X127525979Y-155701419D02*
X127525979Y-154701419D01*
X127525979Y-154701419D02*
X127430741Y-154844276D01*
X127430741Y-154844276D02*
X127335503Y-154939514D01*
X127335503Y-154939514D02*
X127240265Y-154987133D01*
X128668836Y-155034752D02*
X128668836Y-155701419D01*
X128430741Y-154653800D02*
X128192646Y-155368085D01*
X128192646Y-155368085D02*
X128811693Y-155368085D01*
X152449884Y-124602419D02*
X152449884Y-125411942D01*
X152449884Y-125411942D02*
X152497503Y-125507180D01*
X152497503Y-125507180D02*
X152545122Y-125554800D01*
X152545122Y-125554800D02*
X152640360Y-125602419D01*
X152640360Y-125602419D02*
X152830836Y-125602419D01*
X152830836Y-125602419D02*
X152926074Y-125554800D01*
X152926074Y-125554800D02*
X152973693Y-125507180D01*
X152973693Y-125507180D02*
X153021312Y-125411942D01*
X153021312Y-125411942D02*
X153021312Y-124602419D01*
X153449884Y-125554800D02*
X153592741Y-125602419D01*
X153592741Y-125602419D02*
X153830836Y-125602419D01*
X153830836Y-125602419D02*
X153926074Y-125554800D01*
X153926074Y-125554800D02*
X153973693Y-125507180D01*
X153973693Y-125507180D02*
X154021312Y-125411942D01*
X154021312Y-125411942D02*
X154021312Y-125316704D01*
X154021312Y-125316704D02*
X153973693Y-125221466D01*
X153973693Y-125221466D02*
X153926074Y-125173847D01*
X153926074Y-125173847D02*
X153830836Y-125126228D01*
X153830836Y-125126228D02*
X153640360Y-125078609D01*
X153640360Y-125078609D02*
X153545122Y-125030990D01*
X153545122Y-125030990D02*
X153497503Y-124983371D01*
X153497503Y-124983371D02*
X153449884Y-124888133D01*
X153449884Y-124888133D02*
X153449884Y-124792895D01*
X153449884Y-124792895D02*
X153497503Y-124697657D01*
X153497503Y-124697657D02*
X153545122Y-124650038D01*
X153545122Y-124650038D02*
X153640360Y-124602419D01*
X153640360Y-124602419D02*
X153878455Y-124602419D01*
X153878455Y-124602419D02*
X154021312Y-124650038D01*
X154402265Y-125316704D02*
X154878455Y-125316704D01*
X154307027Y-125602419D02*
X154640360Y-124602419D01*
X154640360Y-124602419D02*
X154973693Y-125602419D01*
X155878455Y-125602419D02*
X155545122Y-125126228D01*
X155307027Y-125602419D02*
X155307027Y-124602419D01*
X155307027Y-124602419D02*
X155687979Y-124602419D01*
X155687979Y-124602419D02*
X155783217Y-124650038D01*
X155783217Y-124650038D02*
X155830836Y-124697657D01*
X155830836Y-124697657D02*
X155878455Y-124792895D01*
X155878455Y-124792895D02*
X155878455Y-124935752D01*
X155878455Y-124935752D02*
X155830836Y-125030990D01*
X155830836Y-125030990D02*
X155783217Y-125078609D01*
X155783217Y-125078609D02*
X155687979Y-125126228D01*
X155687979Y-125126228D02*
X155307027Y-125126228D01*
X156164170Y-124602419D02*
X156735598Y-124602419D01*
X156449884Y-125602419D02*
X156449884Y-124602419D01*
X157592741Y-125602419D02*
X157021313Y-125602419D01*
X157307027Y-125602419D02*
X157307027Y-124602419D01*
X157307027Y-124602419D02*
X157211789Y-124745276D01*
X157211789Y-124745276D02*
X157116551Y-124840514D01*
X157116551Y-124840514D02*
X157021313Y-124888133D01*
X88934027Y-79136419D02*
X89505455Y-79136419D01*
X89219741Y-80136419D02*
X89219741Y-79136419D01*
X89743551Y-79136419D02*
X90410217Y-80136419D01*
X90410217Y-79136419D02*
X89743551Y-80136419D01*
X90791170Y-80136419D02*
X90791170Y-79136419D01*
X90791170Y-79136419D02*
X91029265Y-79136419D01*
X91029265Y-79136419D02*
X91172122Y-79184038D01*
X91172122Y-79184038D02*
X91267360Y-79279276D01*
X91267360Y-79279276D02*
X91314979Y-79374514D01*
X91314979Y-79374514D02*
X91362598Y-79564990D01*
X91362598Y-79564990D02*
X91362598Y-79707847D01*
X91362598Y-79707847D02*
X91314979Y-79898323D01*
X91314979Y-79898323D02*
X91267360Y-79993561D01*
X91267360Y-79993561D02*
X91172122Y-80088800D01*
X91172122Y-80088800D02*
X91029265Y-80136419D01*
X91029265Y-80136419D02*
X90791170Y-80136419D01*
X68375884Y-152780419D02*
X68375884Y-151780419D01*
X68804455Y-151875657D02*
X68852074Y-151828038D01*
X68852074Y-151828038D02*
X68947312Y-151780419D01*
X68947312Y-151780419D02*
X69185407Y-151780419D01*
X69185407Y-151780419D02*
X69280645Y-151828038D01*
X69280645Y-151828038D02*
X69328264Y-151875657D01*
X69328264Y-151875657D02*
X69375883Y-151970895D01*
X69375883Y-151970895D02*
X69375883Y-152066133D01*
X69375883Y-152066133D02*
X69328264Y-152208990D01*
X69328264Y-152208990D02*
X68756836Y-152780419D01*
X68756836Y-152780419D02*
X69375883Y-152780419D01*
X70375883Y-152685180D02*
X70328264Y-152732800D01*
X70328264Y-152732800D02*
X70185407Y-152780419D01*
X70185407Y-152780419D02*
X70090169Y-152780419D01*
X70090169Y-152780419D02*
X69947312Y-152732800D01*
X69947312Y-152732800D02*
X69852074Y-152637561D01*
X69852074Y-152637561D02*
X69804455Y-152542323D01*
X69804455Y-152542323D02*
X69756836Y-152351847D01*
X69756836Y-152351847D02*
X69756836Y-152208990D01*
X69756836Y-152208990D02*
X69804455Y-152018514D01*
X69804455Y-152018514D02*
X69852074Y-151923276D01*
X69852074Y-151923276D02*
X69947312Y-151828038D01*
X69947312Y-151828038D02*
X70090169Y-151780419D01*
X70090169Y-151780419D02*
X70185407Y-151780419D01*
X70185407Y-151780419D02*
X70328264Y-151828038D01*
X70328264Y-151828038D02*
X70375883Y-151875657D01*
X70709217Y-151780419D02*
X71328264Y-151780419D01*
X71328264Y-151780419D02*
X70994931Y-152161371D01*
X70994931Y-152161371D02*
X71137788Y-152161371D01*
X71137788Y-152161371D02*
X71233026Y-152208990D01*
X71233026Y-152208990D02*
X71280645Y-152256609D01*
X71280645Y-152256609D02*
X71328264Y-152351847D01*
X71328264Y-152351847D02*
X71328264Y-152589942D01*
X71328264Y-152589942D02*
X71280645Y-152685180D01*
X71280645Y-152685180D02*
X71233026Y-152732800D01*
X71233026Y-152732800D02*
X71137788Y-152780419D01*
X71137788Y-152780419D02*
X70852074Y-152780419D01*
X70852074Y-152780419D02*
X70756836Y-152732800D01*
X70756836Y-152732800D02*
X70709217Y-152685180D01*
X112190884Y-90423419D02*
X112190884Y-89423419D01*
X112190884Y-89899609D02*
X112762312Y-89899609D01*
X112762312Y-90423419D02*
X112762312Y-89423419D01*
X117524218Y-90423419D02*
X117048028Y-90423419D01*
X117048028Y-90423419D02*
X117048028Y-89423419D01*
X65073884Y-147430609D02*
X65407217Y-147430609D01*
X65550074Y-147954419D02*
X65073884Y-147954419D01*
X65073884Y-147954419D02*
X65073884Y-146954419D01*
X65073884Y-146954419D02*
X65550074Y-146954419D01*
X66502455Y-147954419D02*
X65931027Y-147954419D01*
X66216741Y-147954419D02*
X66216741Y-146954419D01*
X66216741Y-146954419D02*
X66121503Y-147097276D01*
X66121503Y-147097276D02*
X66026265Y-147192514D01*
X66026265Y-147192514D02*
X65931027Y-147240133D01*
X67407217Y-146954419D02*
X66931027Y-146954419D01*
X66931027Y-146954419D02*
X66883408Y-147430609D01*
X66883408Y-147430609D02*
X66931027Y-147382990D01*
X66931027Y-147382990D02*
X67026265Y-147335371D01*
X67026265Y-147335371D02*
X67264360Y-147335371D01*
X67264360Y-147335371D02*
X67359598Y-147382990D01*
X67359598Y-147382990D02*
X67407217Y-147430609D01*
X67407217Y-147430609D02*
X67454836Y-147525847D01*
X67454836Y-147525847D02*
X67454836Y-147763942D01*
X67454836Y-147763942D02*
X67407217Y-147859180D01*
X67407217Y-147859180D02*
X67359598Y-147906800D01*
X67359598Y-147906800D02*
X67264360Y-147954419D01*
X67264360Y-147954419D02*
X67026265Y-147954419D01*
X67026265Y-147954419D02*
X66931027Y-147906800D01*
X66931027Y-147906800D02*
X66883408Y-147859180D01*
X68121503Y-148287752D02*
X68121503Y-146859180D01*
X68835789Y-147954419D02*
X68835789Y-146954419D01*
X68835789Y-146954419D02*
X69073884Y-146954419D01*
X69073884Y-146954419D02*
X69216741Y-147002038D01*
X69216741Y-147002038D02*
X69311979Y-147097276D01*
X69311979Y-147097276D02*
X69359598Y-147192514D01*
X69359598Y-147192514D02*
X69407217Y-147382990D01*
X69407217Y-147382990D02*
X69407217Y-147525847D01*
X69407217Y-147525847D02*
X69359598Y-147716323D01*
X69359598Y-147716323D02*
X69311979Y-147811561D01*
X69311979Y-147811561D02*
X69216741Y-147906800D01*
X69216741Y-147906800D02*
X69073884Y-147954419D01*
X69073884Y-147954419D02*
X68835789Y-147954419D01*
X70359598Y-147954419D02*
X69788170Y-147954419D01*
X70073884Y-147954419D02*
X70073884Y-146954419D01*
X70073884Y-146954419D02*
X69978646Y-147097276D01*
X69978646Y-147097276D02*
X69883408Y-147192514D01*
X69883408Y-147192514D02*
X69788170Y-147240133D01*
X71264360Y-146954419D02*
X70788170Y-146954419D01*
X70788170Y-146954419D02*
X70740551Y-147430609D01*
X70740551Y-147430609D02*
X70788170Y-147382990D01*
X70788170Y-147382990D02*
X70883408Y-147335371D01*
X70883408Y-147335371D02*
X71121503Y-147335371D01*
X71121503Y-147335371D02*
X71216741Y-147382990D01*
X71216741Y-147382990D02*
X71264360Y-147430609D01*
X71264360Y-147430609D02*
X71311979Y-147525847D01*
X71311979Y-147525847D02*
X71311979Y-147763942D01*
X71311979Y-147763942D02*
X71264360Y-147859180D01*
X71264360Y-147859180D02*
X71216741Y-147906800D01*
X71216741Y-147906800D02*
X71121503Y-147954419D01*
X71121503Y-147954419D02*
X70883408Y-147954419D01*
X70883408Y-147954419D02*
X70788170Y-147906800D01*
X70788170Y-147906800D02*
X70740551Y-147859180D01*
X71408027Y-108981419D02*
X71741360Y-109981419D01*
X71741360Y-109981419D02*
X72074693Y-108981419D01*
X113347038Y-91247306D02*
X113299419Y-91342544D01*
X113299419Y-91342544D02*
X113299419Y-91485401D01*
X113299419Y-91485401D02*
X113347038Y-91628258D01*
X113347038Y-91628258D02*
X113442276Y-91723496D01*
X113442276Y-91723496D02*
X113537514Y-91771115D01*
X113537514Y-91771115D02*
X113727990Y-91818734D01*
X113727990Y-91818734D02*
X113870847Y-91818734D01*
X113870847Y-91818734D02*
X114061323Y-91771115D01*
X114061323Y-91771115D02*
X114156561Y-91723496D01*
X114156561Y-91723496D02*
X114251800Y-91628258D01*
X114251800Y-91628258D02*
X114299419Y-91485401D01*
X114299419Y-91485401D02*
X114299419Y-91390163D01*
X114299419Y-91390163D02*
X114251800Y-91247306D01*
X114251800Y-91247306D02*
X114204180Y-91199687D01*
X114204180Y-91199687D02*
X113870847Y-91199687D01*
X113870847Y-91199687D02*
X113870847Y-91390163D01*
X114426419Y-101423115D02*
X113426419Y-101423115D01*
X113426419Y-101423115D02*
X114426419Y-100851687D01*
X114426419Y-100851687D02*
X113426419Y-100851687D01*
X114426419Y-99804068D02*
X113950228Y-100137401D01*
X114426419Y-100375496D02*
X113426419Y-100375496D01*
X113426419Y-100375496D02*
X113426419Y-99994544D01*
X113426419Y-99994544D02*
X113474038Y-99899306D01*
X113474038Y-99899306D02*
X113521657Y-99851687D01*
X113521657Y-99851687D02*
X113616895Y-99804068D01*
X113616895Y-99804068D02*
X113759752Y-99804068D01*
X113759752Y-99804068D02*
X113854990Y-99851687D01*
X113854990Y-99851687D02*
X113902609Y-99899306D01*
X113902609Y-99899306D02*
X113950228Y-99994544D01*
X113950228Y-99994544D02*
X113950228Y-100375496D01*
X114378800Y-99423115D02*
X114426419Y-99280258D01*
X114426419Y-99280258D02*
X114426419Y-99042163D01*
X114426419Y-99042163D02*
X114378800Y-98946925D01*
X114378800Y-98946925D02*
X114331180Y-98899306D01*
X114331180Y-98899306D02*
X114235942Y-98851687D01*
X114235942Y-98851687D02*
X114140704Y-98851687D01*
X114140704Y-98851687D02*
X114045466Y-98899306D01*
X114045466Y-98899306D02*
X113997847Y-98946925D01*
X113997847Y-98946925D02*
X113950228Y-99042163D01*
X113950228Y-99042163D02*
X113902609Y-99232639D01*
X113902609Y-99232639D02*
X113854990Y-99327877D01*
X113854990Y-99327877D02*
X113807371Y-99375496D01*
X113807371Y-99375496D02*
X113712133Y-99423115D01*
X113712133Y-99423115D02*
X113616895Y-99423115D01*
X113616895Y-99423115D02*
X113521657Y-99375496D01*
X113521657Y-99375496D02*
X113474038Y-99327877D01*
X113474038Y-99327877D02*
X113426419Y-99232639D01*
X113426419Y-99232639D02*
X113426419Y-98994544D01*
X113426419Y-98994544D02*
X113474038Y-98851687D01*
X113426419Y-98565972D02*
X113426419Y-97994544D01*
X114426419Y-98280258D02*
X113426419Y-98280258D01*
X71423884Y-97281419D02*
X71423884Y-96281419D01*
X71423884Y-96281419D02*
X71661979Y-96281419D01*
X71661979Y-96281419D02*
X71804836Y-96329038D01*
X71804836Y-96329038D02*
X71900074Y-96424276D01*
X71900074Y-96424276D02*
X71947693Y-96519514D01*
X71947693Y-96519514D02*
X71995312Y-96709990D01*
X71995312Y-96709990D02*
X71995312Y-96852847D01*
X71995312Y-96852847D02*
X71947693Y-97043323D01*
X71947693Y-97043323D02*
X71900074Y-97138561D01*
X71900074Y-97138561D02*
X71804836Y-97233800D01*
X71804836Y-97233800D02*
X71661979Y-97281419D01*
X71661979Y-97281419D02*
X71423884Y-97281419D01*
X72947693Y-97281419D02*
X72376265Y-97281419D01*
X72661979Y-97281419D02*
X72661979Y-96281419D01*
X72661979Y-96281419D02*
X72566741Y-96424276D01*
X72566741Y-96424276D02*
X72471503Y-96519514D01*
X72471503Y-96519514D02*
X72376265Y-96567133D01*
X73566741Y-96281419D02*
X73661979Y-96281419D01*
X73661979Y-96281419D02*
X73757217Y-96329038D01*
X73757217Y-96329038D02*
X73804836Y-96376657D01*
X73804836Y-96376657D02*
X73852455Y-96471895D01*
X73852455Y-96471895D02*
X73900074Y-96662371D01*
X73900074Y-96662371D02*
X73900074Y-96900466D01*
X73900074Y-96900466D02*
X73852455Y-97090942D01*
X73852455Y-97090942D02*
X73804836Y-97186180D01*
X73804836Y-97186180D02*
X73757217Y-97233800D01*
X73757217Y-97233800D02*
X73661979Y-97281419D01*
X73661979Y-97281419D02*
X73566741Y-97281419D01*
X73566741Y-97281419D02*
X73471503Y-97233800D01*
X73471503Y-97233800D02*
X73423884Y-97186180D01*
X73423884Y-97186180D02*
X73376265Y-97090942D01*
X73376265Y-97090942D02*
X73328646Y-96900466D01*
X73328646Y-96900466D02*
X73328646Y-96662371D01*
X73328646Y-96662371D02*
X73376265Y-96471895D01*
X73376265Y-96471895D02*
X73423884Y-96376657D01*
X73423884Y-96376657D02*
X73471503Y-96329038D01*
X73471503Y-96329038D02*
X73566741Y-96281419D01*
X74566741Y-97614752D02*
X74566741Y-96186180D01*
X75281027Y-97281419D02*
X75281027Y-96281419D01*
X75281027Y-96281419D02*
X75519122Y-96281419D01*
X75519122Y-96281419D02*
X75661979Y-96329038D01*
X75661979Y-96329038D02*
X75757217Y-96424276D01*
X75757217Y-96424276D02*
X75804836Y-96519514D01*
X75804836Y-96519514D02*
X75852455Y-96709990D01*
X75852455Y-96709990D02*
X75852455Y-96852847D01*
X75852455Y-96852847D02*
X75804836Y-97043323D01*
X75804836Y-97043323D02*
X75757217Y-97138561D01*
X75757217Y-97138561D02*
X75661979Y-97233800D01*
X75661979Y-97233800D02*
X75519122Y-97281419D01*
X75519122Y-97281419D02*
X75281027Y-97281419D01*
X76328646Y-97281419D02*
X76519122Y-97281419D01*
X76519122Y-97281419D02*
X76614360Y-97233800D01*
X76614360Y-97233800D02*
X76661979Y-97186180D01*
X76661979Y-97186180D02*
X76757217Y-97043323D01*
X76757217Y-97043323D02*
X76804836Y-96852847D01*
X76804836Y-96852847D02*
X76804836Y-96471895D01*
X76804836Y-96471895D02*
X76757217Y-96376657D01*
X76757217Y-96376657D02*
X76709598Y-96329038D01*
X76709598Y-96329038D02*
X76614360Y-96281419D01*
X76614360Y-96281419D02*
X76423884Y-96281419D01*
X76423884Y-96281419D02*
X76328646Y-96329038D01*
X76328646Y-96329038D02*
X76281027Y-96376657D01*
X76281027Y-96376657D02*
X76233408Y-96471895D01*
X76233408Y-96471895D02*
X76233408Y-96709990D01*
X76233408Y-96709990D02*
X76281027Y-96805228D01*
X76281027Y-96805228D02*
X76328646Y-96852847D01*
X76328646Y-96852847D02*
X76423884Y-96900466D01*
X76423884Y-96900466D02*
X76614360Y-96900466D01*
X76614360Y-96900466D02*
X76709598Y-96852847D01*
X76709598Y-96852847D02*
X76757217Y-96805228D01*
X76757217Y-96805228D02*
X76804836Y-96709990D01*
X71693693Y-88709038D02*
X71598455Y-88661419D01*
X71598455Y-88661419D02*
X71455598Y-88661419D01*
X71455598Y-88661419D02*
X71312741Y-88709038D01*
X71312741Y-88709038D02*
X71217503Y-88804276D01*
X71217503Y-88804276D02*
X71169884Y-88899514D01*
X71169884Y-88899514D02*
X71122265Y-89089990D01*
X71122265Y-89089990D02*
X71122265Y-89232847D01*
X71122265Y-89232847D02*
X71169884Y-89423323D01*
X71169884Y-89423323D02*
X71217503Y-89518561D01*
X71217503Y-89518561D02*
X71312741Y-89613800D01*
X71312741Y-89613800D02*
X71455598Y-89661419D01*
X71455598Y-89661419D02*
X71550836Y-89661419D01*
X71550836Y-89661419D02*
X71693693Y-89613800D01*
X71693693Y-89613800D02*
X71741312Y-89566180D01*
X71741312Y-89566180D02*
X71741312Y-89232847D01*
X71741312Y-89232847D02*
X71550836Y-89232847D01*
X71423884Y-122681419D02*
X71423884Y-121681419D01*
X71423884Y-121681419D02*
X71995312Y-122681419D01*
X71995312Y-122681419D02*
X71995312Y-121681419D01*
X73042931Y-122586180D02*
X72995312Y-122633800D01*
X72995312Y-122633800D02*
X72852455Y-122681419D01*
X72852455Y-122681419D02*
X72757217Y-122681419D01*
X72757217Y-122681419D02*
X72614360Y-122633800D01*
X72614360Y-122633800D02*
X72519122Y-122538561D01*
X72519122Y-122538561D02*
X72471503Y-122443323D01*
X72471503Y-122443323D02*
X72423884Y-122252847D01*
X72423884Y-122252847D02*
X72423884Y-122109990D01*
X72423884Y-122109990D02*
X72471503Y-121919514D01*
X72471503Y-121919514D02*
X72519122Y-121824276D01*
X72519122Y-121824276D02*
X72614360Y-121729038D01*
X72614360Y-121729038D02*
X72757217Y-121681419D01*
X72757217Y-121681419D02*
X72852455Y-121681419D01*
X72852455Y-121681419D02*
X72995312Y-121729038D01*
X72995312Y-121729038D02*
X73042931Y-121776657D01*
X73709598Y-123014752D02*
X73709598Y-121586180D01*
X74995312Y-122586180D02*
X74947693Y-122633800D01*
X74947693Y-122633800D02*
X74804836Y-122681419D01*
X74804836Y-122681419D02*
X74709598Y-122681419D01*
X74709598Y-122681419D02*
X74566741Y-122633800D01*
X74566741Y-122633800D02*
X74471503Y-122538561D01*
X74471503Y-122538561D02*
X74423884Y-122443323D01*
X74423884Y-122443323D02*
X74376265Y-122252847D01*
X74376265Y-122252847D02*
X74376265Y-122109990D01*
X74376265Y-122109990D02*
X74423884Y-121919514D01*
X74423884Y-121919514D02*
X74471503Y-121824276D01*
X74471503Y-121824276D02*
X74566741Y-121729038D01*
X74566741Y-121729038D02*
X74709598Y-121681419D01*
X74709598Y-121681419D02*
X74804836Y-121681419D01*
X74804836Y-121681419D02*
X74947693Y-121729038D01*
X74947693Y-121729038D02*
X74995312Y-121776657D01*
X75947693Y-122681419D02*
X75376265Y-122681419D01*
X75661979Y-122681419D02*
X75661979Y-121681419D01*
X75661979Y-121681419D02*
X75566741Y-121824276D01*
X75566741Y-121824276D02*
X75471503Y-121919514D01*
X75471503Y-121919514D02*
X75376265Y-121967133D01*
X71550884Y-165734419D02*
X71550884Y-164734419D01*
X71550884Y-164734419D02*
X71788979Y-164734419D01*
X71788979Y-164734419D02*
X71931836Y-164782038D01*
X71931836Y-164782038D02*
X72027074Y-164877276D01*
X72027074Y-164877276D02*
X72074693Y-164972514D01*
X72074693Y-164972514D02*
X72122312Y-165162990D01*
X72122312Y-165162990D02*
X72122312Y-165305847D01*
X72122312Y-165305847D02*
X72074693Y-165496323D01*
X72074693Y-165496323D02*
X72027074Y-165591561D01*
X72027074Y-165591561D02*
X71931836Y-165686800D01*
X71931836Y-165686800D02*
X71788979Y-165734419D01*
X71788979Y-165734419D02*
X71550884Y-165734419D01*
X73027074Y-164734419D02*
X72550884Y-164734419D01*
X72550884Y-164734419D02*
X72503265Y-165210609D01*
X72503265Y-165210609D02*
X72550884Y-165162990D01*
X72550884Y-165162990D02*
X72646122Y-165115371D01*
X72646122Y-165115371D02*
X72884217Y-165115371D01*
X72884217Y-165115371D02*
X72979455Y-165162990D01*
X72979455Y-165162990D02*
X73027074Y-165210609D01*
X73027074Y-165210609D02*
X73074693Y-165305847D01*
X73074693Y-165305847D02*
X73074693Y-165543942D01*
X73074693Y-165543942D02*
X73027074Y-165639180D01*
X73027074Y-165639180D02*
X72979455Y-165686800D01*
X72979455Y-165686800D02*
X72884217Y-165734419D01*
X72884217Y-165734419D02*
X72646122Y-165734419D01*
X72646122Y-165734419D02*
X72550884Y-165686800D01*
X72550884Y-165686800D02*
X72503265Y-165639180D01*
X73741360Y-166067752D02*
X73741360Y-164639180D01*
X74788979Y-165210609D02*
X74931836Y-165258228D01*
X74931836Y-165258228D02*
X74979455Y-165305847D01*
X74979455Y-165305847D02*
X75027074Y-165401085D01*
X75027074Y-165401085D02*
X75027074Y-165543942D01*
X75027074Y-165543942D02*
X74979455Y-165639180D01*
X74979455Y-165639180D02*
X74931836Y-165686800D01*
X74931836Y-165686800D02*
X74836598Y-165734419D01*
X74836598Y-165734419D02*
X74455646Y-165734419D01*
X74455646Y-165734419D02*
X74455646Y-164734419D01*
X74455646Y-164734419D02*
X74788979Y-164734419D01*
X74788979Y-164734419D02*
X74884217Y-164782038D01*
X74884217Y-164782038D02*
X74931836Y-164829657D01*
X74931836Y-164829657D02*
X74979455Y-164924895D01*
X74979455Y-164924895D02*
X74979455Y-165020133D01*
X74979455Y-165020133D02*
X74931836Y-165115371D01*
X74931836Y-165115371D02*
X74884217Y-165162990D01*
X74884217Y-165162990D02*
X74788979Y-165210609D01*
X74788979Y-165210609D02*
X74455646Y-165210609D01*
X75884217Y-164734419D02*
X75693741Y-164734419D01*
X75693741Y-164734419D02*
X75598503Y-164782038D01*
X75598503Y-164782038D02*
X75550884Y-164829657D01*
X75550884Y-164829657D02*
X75455646Y-164972514D01*
X75455646Y-164972514D02*
X75408027Y-165162990D01*
X75408027Y-165162990D02*
X75408027Y-165543942D01*
X75408027Y-165543942D02*
X75455646Y-165639180D01*
X75455646Y-165639180D02*
X75503265Y-165686800D01*
X75503265Y-165686800D02*
X75598503Y-165734419D01*
X75598503Y-165734419D02*
X75788979Y-165734419D01*
X75788979Y-165734419D02*
X75884217Y-165686800D01*
X75884217Y-165686800D02*
X75931836Y-165639180D01*
X75931836Y-165639180D02*
X75979455Y-165543942D01*
X75979455Y-165543942D02*
X75979455Y-165305847D01*
X75979455Y-165305847D02*
X75931836Y-165210609D01*
X75931836Y-165210609D02*
X75884217Y-165162990D01*
X75884217Y-165162990D02*
X75788979Y-165115371D01*
X75788979Y-165115371D02*
X75598503Y-165115371D01*
X75598503Y-165115371D02*
X75503265Y-165162990D01*
X75503265Y-165162990D02*
X75455646Y-165210609D01*
X75455646Y-165210609D02*
X75408027Y-165305847D01*
X71154027Y-86121419D02*
X71487360Y-87121419D01*
X71487360Y-87121419D02*
X71820693Y-86121419D01*
X71550884Y-160781419D02*
X71550884Y-159781419D01*
X71550884Y-159781419D02*
X71788979Y-159781419D01*
X71788979Y-159781419D02*
X71931836Y-159829038D01*
X71931836Y-159829038D02*
X72027074Y-159924276D01*
X72027074Y-159924276D02*
X72074693Y-160019514D01*
X72074693Y-160019514D02*
X72122312Y-160209990D01*
X72122312Y-160209990D02*
X72122312Y-160352847D01*
X72122312Y-160352847D02*
X72074693Y-160543323D01*
X72074693Y-160543323D02*
X72027074Y-160638561D01*
X72027074Y-160638561D02*
X71931836Y-160733800D01*
X71931836Y-160733800D02*
X71788979Y-160781419D01*
X71788979Y-160781419D02*
X71550884Y-160781419D01*
X72979455Y-160114752D02*
X72979455Y-160781419D01*
X72741360Y-159733800D02*
X72503265Y-160448085D01*
X72503265Y-160448085D02*
X73122312Y-160448085D01*
X73741360Y-161114752D02*
X73741360Y-159686180D01*
X75027074Y-160686180D02*
X74979455Y-160733800D01*
X74979455Y-160733800D02*
X74836598Y-160781419D01*
X74836598Y-160781419D02*
X74741360Y-160781419D01*
X74741360Y-160781419D02*
X74598503Y-160733800D01*
X74598503Y-160733800D02*
X74503265Y-160638561D01*
X74503265Y-160638561D02*
X74455646Y-160543323D01*
X74455646Y-160543323D02*
X74408027Y-160352847D01*
X74408027Y-160352847D02*
X74408027Y-160209990D01*
X74408027Y-160209990D02*
X74455646Y-160019514D01*
X74455646Y-160019514D02*
X74503265Y-159924276D01*
X74503265Y-159924276D02*
X74598503Y-159829038D01*
X74598503Y-159829038D02*
X74741360Y-159781419D01*
X74741360Y-159781419D02*
X74836598Y-159781419D01*
X74836598Y-159781419D02*
X74979455Y-159829038D01*
X74979455Y-159829038D02*
X75027074Y-159876657D01*
X75503265Y-160781419D02*
X75693741Y-160781419D01*
X75693741Y-160781419D02*
X75788979Y-160733800D01*
X75788979Y-160733800D02*
X75836598Y-160686180D01*
X75836598Y-160686180D02*
X75931836Y-160543323D01*
X75931836Y-160543323D02*
X75979455Y-160352847D01*
X75979455Y-160352847D02*
X75979455Y-159971895D01*
X75979455Y-159971895D02*
X75931836Y-159876657D01*
X75931836Y-159876657D02*
X75884217Y-159829038D01*
X75884217Y-159829038D02*
X75788979Y-159781419D01*
X75788979Y-159781419D02*
X75598503Y-159781419D01*
X75598503Y-159781419D02*
X75503265Y-159829038D01*
X75503265Y-159829038D02*
X75455646Y-159876657D01*
X75455646Y-159876657D02*
X75408027Y-159971895D01*
X75408027Y-159971895D02*
X75408027Y-160209990D01*
X75408027Y-160209990D02*
X75455646Y-160305228D01*
X75455646Y-160305228D02*
X75503265Y-160352847D01*
X75503265Y-160352847D02*
X75598503Y-160400466D01*
X75598503Y-160400466D02*
X75788979Y-160400466D01*
X75788979Y-160400466D02*
X75884217Y-160352847D01*
X75884217Y-160352847D02*
X75931836Y-160305228D01*
X75931836Y-160305228D02*
X75979455Y-160209990D01*
X151545027Y-99202419D02*
X151878360Y-100202419D01*
X151878360Y-100202419D02*
X152211693Y-99202419D01*
X71423884Y-120141419D02*
X71423884Y-119141419D01*
X71423884Y-119141419D02*
X71995312Y-120141419D01*
X71995312Y-120141419D02*
X71995312Y-119141419D01*
X73042931Y-120046180D02*
X72995312Y-120093800D01*
X72995312Y-120093800D02*
X72852455Y-120141419D01*
X72852455Y-120141419D02*
X72757217Y-120141419D01*
X72757217Y-120141419D02*
X72614360Y-120093800D01*
X72614360Y-120093800D02*
X72519122Y-119998561D01*
X72519122Y-119998561D02*
X72471503Y-119903323D01*
X72471503Y-119903323D02*
X72423884Y-119712847D01*
X72423884Y-119712847D02*
X72423884Y-119569990D01*
X72423884Y-119569990D02*
X72471503Y-119379514D01*
X72471503Y-119379514D02*
X72519122Y-119284276D01*
X72519122Y-119284276D02*
X72614360Y-119189038D01*
X72614360Y-119189038D02*
X72757217Y-119141419D01*
X72757217Y-119141419D02*
X72852455Y-119141419D01*
X72852455Y-119141419D02*
X72995312Y-119189038D01*
X72995312Y-119189038D02*
X73042931Y-119236657D01*
X73709598Y-120474752D02*
X73709598Y-119046180D01*
X74376265Y-119855704D02*
X74852455Y-119855704D01*
X74281027Y-120141419D02*
X74614360Y-119141419D01*
X74614360Y-119141419D02*
X74947693Y-120141419D01*
X75233408Y-119236657D02*
X75281027Y-119189038D01*
X75281027Y-119189038D02*
X75376265Y-119141419D01*
X75376265Y-119141419D02*
X75614360Y-119141419D01*
X75614360Y-119141419D02*
X75709598Y-119189038D01*
X75709598Y-119189038D02*
X75757217Y-119236657D01*
X75757217Y-119236657D02*
X75804836Y-119331895D01*
X75804836Y-119331895D02*
X75804836Y-119427133D01*
X75804836Y-119427133D02*
X75757217Y-119569990D01*
X75757217Y-119569990D02*
X75185789Y-120141419D01*
X75185789Y-120141419D02*
X75804836Y-120141419D01*
X148338265Y-94473847D02*
X148604931Y-94473847D01*
X148719217Y-94892895D02*
X148338265Y-94892895D01*
X148338265Y-94892895D02*
X148338265Y-94092895D01*
X148338265Y-94092895D02*
X148719217Y-94092895D01*
X149100170Y-94892895D02*
X149252551Y-94892895D01*
X149252551Y-94892895D02*
X149328741Y-94854800D01*
X149328741Y-94854800D02*
X149366837Y-94816704D01*
X149366837Y-94816704D02*
X149443027Y-94702419D01*
X149443027Y-94702419D02*
X149481122Y-94550038D01*
X149481122Y-94550038D02*
X149481122Y-94245276D01*
X149481122Y-94245276D02*
X149443027Y-94169085D01*
X149443027Y-94169085D02*
X149404932Y-94130990D01*
X149404932Y-94130990D02*
X149328741Y-94092895D01*
X149328741Y-94092895D02*
X149176360Y-94092895D01*
X149176360Y-94092895D02*
X149100170Y-94130990D01*
X149100170Y-94130990D02*
X149062075Y-94169085D01*
X149062075Y-94169085D02*
X149023979Y-94245276D01*
X149023979Y-94245276D02*
X149023979Y-94435752D01*
X149023979Y-94435752D02*
X149062075Y-94511942D01*
X149062075Y-94511942D02*
X149100170Y-94550038D01*
X149100170Y-94550038D02*
X149176360Y-94588133D01*
X149176360Y-94588133D02*
X149328741Y-94588133D01*
X149328741Y-94588133D02*
X149404932Y-94550038D01*
X149404932Y-94550038D02*
X149443027Y-94511942D01*
X149443027Y-94511942D02*
X149481122Y-94435752D01*
X150014456Y-95159561D02*
X150014456Y-94016704D01*
X150585885Y-94473847D02*
X150852551Y-94473847D01*
X150966837Y-94892895D02*
X150585885Y-94892895D01*
X150585885Y-94892895D02*
X150585885Y-94092895D01*
X150585885Y-94092895D02*
X150966837Y-94092895D01*
X151728742Y-94892895D02*
X151271599Y-94892895D01*
X151500171Y-94892895D02*
X151500171Y-94092895D01*
X151500171Y-94092895D02*
X151423980Y-94207180D01*
X151423980Y-94207180D02*
X151347790Y-94283371D01*
X151347790Y-94283371D02*
X151271599Y-94321466D01*
X152223981Y-94092895D02*
X152300171Y-94092895D01*
X152300171Y-94092895D02*
X152376362Y-94130990D01*
X152376362Y-94130990D02*
X152414457Y-94169085D01*
X152414457Y-94169085D02*
X152452552Y-94245276D01*
X152452552Y-94245276D02*
X152490647Y-94397657D01*
X152490647Y-94397657D02*
X152490647Y-94588133D01*
X152490647Y-94588133D02*
X152452552Y-94740514D01*
X152452552Y-94740514D02*
X152414457Y-94816704D01*
X152414457Y-94816704D02*
X152376362Y-94854800D01*
X152376362Y-94854800D02*
X152300171Y-94892895D01*
X152300171Y-94892895D02*
X152223981Y-94892895D01*
X152223981Y-94892895D02*
X152147790Y-94854800D01*
X152147790Y-94854800D02*
X152109695Y-94816704D01*
X152109695Y-94816704D02*
X152071600Y-94740514D01*
X152071600Y-94740514D02*
X152033504Y-94588133D01*
X152033504Y-94588133D02*
X152033504Y-94397657D01*
X152033504Y-94397657D02*
X152071600Y-94245276D01*
X152071600Y-94245276D02*
X152109695Y-94169085D01*
X152109695Y-94169085D02*
X152147790Y-94130990D01*
X152147790Y-94130990D02*
X152223981Y-94092895D01*
X89394312Y-83946419D02*
X89060979Y-83470228D01*
X88822884Y-83946419D02*
X88822884Y-82946419D01*
X88822884Y-82946419D02*
X89203836Y-82946419D01*
X89203836Y-82946419D02*
X89299074Y-82994038D01*
X89299074Y-82994038D02*
X89346693Y-83041657D01*
X89346693Y-83041657D02*
X89394312Y-83136895D01*
X89394312Y-83136895D02*
X89394312Y-83279752D01*
X89394312Y-83279752D02*
X89346693Y-83374990D01*
X89346693Y-83374990D02*
X89299074Y-83422609D01*
X89299074Y-83422609D02*
X89203836Y-83470228D01*
X89203836Y-83470228D02*
X88822884Y-83470228D01*
X89727646Y-82946419D02*
X90394312Y-83946419D01*
X90394312Y-82946419D02*
X89727646Y-83946419D01*
X90775265Y-83946419D02*
X90775265Y-82946419D01*
X90775265Y-82946419D02*
X91013360Y-82946419D01*
X91013360Y-82946419D02*
X91156217Y-82994038D01*
X91156217Y-82994038D02*
X91251455Y-83089276D01*
X91251455Y-83089276D02*
X91299074Y-83184514D01*
X91299074Y-83184514D02*
X91346693Y-83374990D01*
X91346693Y-83374990D02*
X91346693Y-83517847D01*
X91346693Y-83517847D02*
X91299074Y-83708323D01*
X91299074Y-83708323D02*
X91251455Y-83803561D01*
X91251455Y-83803561D02*
X91156217Y-83898800D01*
X91156217Y-83898800D02*
X91013360Y-83946419D01*
X91013360Y-83946419D02*
X90775265Y-83946419D01*
X116699312Y-155606180D02*
X116651693Y-155653800D01*
X116651693Y-155653800D02*
X116508836Y-155701419D01*
X116508836Y-155701419D02*
X116413598Y-155701419D01*
X116413598Y-155701419D02*
X116270741Y-155653800D01*
X116270741Y-155653800D02*
X116175503Y-155558561D01*
X116175503Y-155558561D02*
X116127884Y-155463323D01*
X116127884Y-155463323D02*
X116080265Y-155272847D01*
X116080265Y-155272847D02*
X116080265Y-155129990D01*
X116080265Y-155129990D02*
X116127884Y-154939514D01*
X116127884Y-154939514D02*
X116175503Y-154844276D01*
X116175503Y-154844276D02*
X116270741Y-154749038D01*
X116270741Y-154749038D02*
X116413598Y-154701419D01*
X116413598Y-154701419D02*
X116508836Y-154701419D01*
X116508836Y-154701419D02*
X116651693Y-154749038D01*
X116651693Y-154749038D02*
X116699312Y-154796657D01*
X117032646Y-154701419D02*
X117699312Y-154701419D01*
X117699312Y-154701419D02*
X117270741Y-155701419D01*
X130904704Y-117726734D02*
X130904704Y-117250544D01*
X131190419Y-117821972D02*
X130190419Y-117488639D01*
X130190419Y-117488639D02*
X131190419Y-117155306D01*
X130190419Y-116917210D02*
X130190419Y-116298163D01*
X130190419Y-116298163D02*
X130571371Y-116631496D01*
X130571371Y-116631496D02*
X130571371Y-116488639D01*
X130571371Y-116488639D02*
X130618990Y-116393401D01*
X130618990Y-116393401D02*
X130666609Y-116345782D01*
X130666609Y-116345782D02*
X130761847Y-116298163D01*
X130761847Y-116298163D02*
X130999942Y-116298163D01*
X130999942Y-116298163D02*
X131095180Y-116345782D01*
X131095180Y-116345782D02*
X131142800Y-116393401D01*
X131142800Y-116393401D02*
X131190419Y-116488639D01*
X131190419Y-116488639D02*
X131190419Y-116774353D01*
X131190419Y-116774353D02*
X131142800Y-116869591D01*
X131142800Y-116869591D02*
X131095180Y-116917210D01*
X148338265Y-89393847D02*
X148604931Y-89393847D01*
X148719217Y-89812895D02*
X148338265Y-89812895D01*
X148338265Y-89812895D02*
X148338265Y-89012895D01*
X148338265Y-89012895D02*
X148719217Y-89012895D01*
X148985884Y-89012895D02*
X149519218Y-89012895D01*
X149519218Y-89012895D02*
X149176360Y-89812895D01*
X150014456Y-90079561D02*
X150014456Y-88936704D01*
X150585885Y-89393847D02*
X150852551Y-89393847D01*
X150966837Y-89812895D02*
X150585885Y-89812895D01*
X150585885Y-89812895D02*
X150585885Y-89012895D01*
X150585885Y-89012895D02*
X150966837Y-89012895D01*
X151728742Y-89812895D02*
X151271599Y-89812895D01*
X151500171Y-89812895D02*
X151500171Y-89012895D01*
X151500171Y-89012895D02*
X151423980Y-89127180D01*
X151423980Y-89127180D02*
X151347790Y-89203371D01*
X151347790Y-89203371D02*
X151271599Y-89241466D01*
X152033504Y-89089085D02*
X152071600Y-89050990D01*
X152071600Y-89050990D02*
X152147790Y-89012895D01*
X152147790Y-89012895D02*
X152338266Y-89012895D01*
X152338266Y-89012895D02*
X152414457Y-89050990D01*
X152414457Y-89050990D02*
X152452552Y-89089085D01*
X152452552Y-89089085D02*
X152490647Y-89165276D01*
X152490647Y-89165276D02*
X152490647Y-89241466D01*
X152490647Y-89241466D02*
X152452552Y-89355752D01*
X152452552Y-89355752D02*
X151995409Y-89812895D01*
X151995409Y-89812895D02*
X152490647Y-89812895D01*
X67058265Y-129872800D02*
X67201122Y-129920419D01*
X67201122Y-129920419D02*
X67439217Y-129920419D01*
X67439217Y-129920419D02*
X67534455Y-129872800D01*
X67534455Y-129872800D02*
X67582074Y-129825180D01*
X67582074Y-129825180D02*
X67629693Y-129729942D01*
X67629693Y-129729942D02*
X67629693Y-129634704D01*
X67629693Y-129634704D02*
X67582074Y-129539466D01*
X67582074Y-129539466D02*
X67534455Y-129491847D01*
X67534455Y-129491847D02*
X67439217Y-129444228D01*
X67439217Y-129444228D02*
X67248741Y-129396609D01*
X67248741Y-129396609D02*
X67153503Y-129348990D01*
X67153503Y-129348990D02*
X67105884Y-129301371D01*
X67105884Y-129301371D02*
X67058265Y-129206133D01*
X67058265Y-129206133D02*
X67058265Y-129110895D01*
X67058265Y-129110895D02*
X67105884Y-129015657D01*
X67105884Y-129015657D02*
X67153503Y-128968038D01*
X67153503Y-128968038D02*
X67248741Y-128920419D01*
X67248741Y-128920419D02*
X67486836Y-128920419D01*
X67486836Y-128920419D02*
X67629693Y-128968038D01*
X68058265Y-129920419D02*
X68058265Y-128920419D01*
X68058265Y-128920419D02*
X68439217Y-128920419D01*
X68439217Y-128920419D02*
X68534455Y-128968038D01*
X68534455Y-128968038D02*
X68582074Y-129015657D01*
X68582074Y-129015657D02*
X68629693Y-129110895D01*
X68629693Y-129110895D02*
X68629693Y-129253752D01*
X68629693Y-129253752D02*
X68582074Y-129348990D01*
X68582074Y-129348990D02*
X68534455Y-129396609D01*
X68534455Y-129396609D02*
X68439217Y-129444228D01*
X68439217Y-129444228D02*
X68058265Y-129444228D01*
X69058265Y-129920419D02*
X69058265Y-128920419D01*
X69486836Y-129015657D02*
X69534455Y-128968038D01*
X69534455Y-128968038D02*
X69629693Y-128920419D01*
X69629693Y-128920419D02*
X69867788Y-128920419D01*
X69867788Y-128920419D02*
X69963026Y-128968038D01*
X69963026Y-128968038D02*
X70010645Y-129015657D01*
X70010645Y-129015657D02*
X70058264Y-129110895D01*
X70058264Y-129110895D02*
X70058264Y-129206133D01*
X70058264Y-129206133D02*
X70010645Y-129348990D01*
X70010645Y-129348990D02*
X69439217Y-129920419D01*
X69439217Y-129920419D02*
X70058264Y-129920419D01*
X65962884Y-101853419D02*
X65962884Y-100853419D01*
X65962884Y-100853419D02*
X66200979Y-100853419D01*
X66200979Y-100853419D02*
X66343836Y-100901038D01*
X66343836Y-100901038D02*
X66439074Y-100996276D01*
X66439074Y-100996276D02*
X66486693Y-101091514D01*
X66486693Y-101091514D02*
X66534312Y-101281990D01*
X66534312Y-101281990D02*
X66534312Y-101424847D01*
X66534312Y-101424847D02*
X66486693Y-101615323D01*
X66486693Y-101615323D02*
X66439074Y-101710561D01*
X66439074Y-101710561D02*
X66343836Y-101805800D01*
X66343836Y-101805800D02*
X66200979Y-101853419D01*
X66200979Y-101853419D02*
X65962884Y-101853419D01*
X67105741Y-101281990D02*
X67010503Y-101234371D01*
X67010503Y-101234371D02*
X66962884Y-101186752D01*
X66962884Y-101186752D02*
X66915265Y-101091514D01*
X66915265Y-101091514D02*
X66915265Y-101043895D01*
X66915265Y-101043895D02*
X66962884Y-100948657D01*
X66962884Y-100948657D02*
X67010503Y-100901038D01*
X67010503Y-100901038D02*
X67105741Y-100853419D01*
X67105741Y-100853419D02*
X67296217Y-100853419D01*
X67296217Y-100853419D02*
X67391455Y-100901038D01*
X67391455Y-100901038D02*
X67439074Y-100948657D01*
X67439074Y-100948657D02*
X67486693Y-101043895D01*
X67486693Y-101043895D02*
X67486693Y-101091514D01*
X67486693Y-101091514D02*
X67439074Y-101186752D01*
X67439074Y-101186752D02*
X67391455Y-101234371D01*
X67391455Y-101234371D02*
X67296217Y-101281990D01*
X67296217Y-101281990D02*
X67105741Y-101281990D01*
X67105741Y-101281990D02*
X67010503Y-101329609D01*
X67010503Y-101329609D02*
X66962884Y-101377228D01*
X66962884Y-101377228D02*
X66915265Y-101472466D01*
X66915265Y-101472466D02*
X66915265Y-101662942D01*
X66915265Y-101662942D02*
X66962884Y-101758180D01*
X66962884Y-101758180D02*
X67010503Y-101805800D01*
X67010503Y-101805800D02*
X67105741Y-101853419D01*
X67105741Y-101853419D02*
X67296217Y-101853419D01*
X67296217Y-101853419D02*
X67391455Y-101805800D01*
X67391455Y-101805800D02*
X67439074Y-101758180D01*
X67439074Y-101758180D02*
X67486693Y-101662942D01*
X67486693Y-101662942D02*
X67486693Y-101472466D01*
X67486693Y-101472466D02*
X67439074Y-101377228D01*
X67439074Y-101377228D02*
X67391455Y-101329609D01*
X67391455Y-101329609D02*
X67296217Y-101281990D01*
X68153360Y-102186752D02*
X68153360Y-100758180D01*
X68820027Y-101567704D02*
X69296217Y-101567704D01*
X68724789Y-101853419D02*
X69058122Y-100853419D01*
X69058122Y-100853419D02*
X69391455Y-101853419D01*
X70248598Y-101853419D02*
X69677170Y-101853419D01*
X69962884Y-101853419D02*
X69962884Y-100853419D01*
X69962884Y-100853419D02*
X69867646Y-100996276D01*
X69867646Y-100996276D02*
X69772408Y-101091514D01*
X69772408Y-101091514D02*
X69677170Y-101139133D01*
X71423884Y-92074419D02*
X71423884Y-91074419D01*
X71423884Y-91074419D02*
X71995312Y-92074419D01*
X71995312Y-92074419D02*
X71995312Y-91074419D01*
X73042931Y-91979180D02*
X72995312Y-92026800D01*
X72995312Y-92026800D02*
X72852455Y-92074419D01*
X72852455Y-92074419D02*
X72757217Y-92074419D01*
X72757217Y-92074419D02*
X72614360Y-92026800D01*
X72614360Y-92026800D02*
X72519122Y-91931561D01*
X72519122Y-91931561D02*
X72471503Y-91836323D01*
X72471503Y-91836323D02*
X72423884Y-91645847D01*
X72423884Y-91645847D02*
X72423884Y-91502990D01*
X72423884Y-91502990D02*
X72471503Y-91312514D01*
X72471503Y-91312514D02*
X72519122Y-91217276D01*
X72519122Y-91217276D02*
X72614360Y-91122038D01*
X72614360Y-91122038D02*
X72757217Y-91074419D01*
X72757217Y-91074419D02*
X72852455Y-91074419D01*
X72852455Y-91074419D02*
X72995312Y-91122038D01*
X72995312Y-91122038D02*
X73042931Y-91169657D01*
X73709598Y-92407752D02*
X73709598Y-90979180D01*
X74757217Y-91550609D02*
X74900074Y-91598228D01*
X74900074Y-91598228D02*
X74947693Y-91645847D01*
X74947693Y-91645847D02*
X74995312Y-91741085D01*
X74995312Y-91741085D02*
X74995312Y-91883942D01*
X74995312Y-91883942D02*
X74947693Y-91979180D01*
X74947693Y-91979180D02*
X74900074Y-92026800D01*
X74900074Y-92026800D02*
X74804836Y-92074419D01*
X74804836Y-92074419D02*
X74423884Y-92074419D01*
X74423884Y-92074419D02*
X74423884Y-91074419D01*
X74423884Y-91074419D02*
X74757217Y-91074419D01*
X74757217Y-91074419D02*
X74852455Y-91122038D01*
X74852455Y-91122038D02*
X74900074Y-91169657D01*
X74900074Y-91169657D02*
X74947693Y-91264895D01*
X74947693Y-91264895D02*
X74947693Y-91360133D01*
X74947693Y-91360133D02*
X74900074Y-91455371D01*
X74900074Y-91455371D02*
X74852455Y-91502990D01*
X74852455Y-91502990D02*
X74757217Y-91550609D01*
X74757217Y-91550609D02*
X74423884Y-91550609D01*
X75947693Y-92074419D02*
X75376265Y-92074419D01*
X75661979Y-92074419D02*
X75661979Y-91074419D01*
X75661979Y-91074419D02*
X75566741Y-91217276D01*
X75566741Y-91217276D02*
X75471503Y-91312514D01*
X75471503Y-91312514D02*
X75376265Y-91360133D01*
X76281027Y-91074419D02*
X76900074Y-91074419D01*
X76900074Y-91074419D02*
X76566741Y-91455371D01*
X76566741Y-91455371D02*
X76709598Y-91455371D01*
X76709598Y-91455371D02*
X76804836Y-91502990D01*
X76804836Y-91502990D02*
X76852455Y-91550609D01*
X76852455Y-91550609D02*
X76900074Y-91645847D01*
X76900074Y-91645847D02*
X76900074Y-91883942D01*
X76900074Y-91883942D02*
X76852455Y-91979180D01*
X76852455Y-91979180D02*
X76804836Y-92026800D01*
X76804836Y-92026800D02*
X76709598Y-92074419D01*
X76709598Y-92074419D02*
X76423884Y-92074419D01*
X76423884Y-92074419D02*
X76328646Y-92026800D01*
X76328646Y-92026800D02*
X76281027Y-91979180D01*
X71947693Y-111569038D02*
X71852455Y-111521419D01*
X71852455Y-111521419D02*
X71709598Y-111521419D01*
X71709598Y-111521419D02*
X71566741Y-111569038D01*
X71566741Y-111569038D02*
X71471503Y-111664276D01*
X71471503Y-111664276D02*
X71423884Y-111759514D01*
X71423884Y-111759514D02*
X71376265Y-111949990D01*
X71376265Y-111949990D02*
X71376265Y-112092847D01*
X71376265Y-112092847D02*
X71423884Y-112283323D01*
X71423884Y-112283323D02*
X71471503Y-112378561D01*
X71471503Y-112378561D02*
X71566741Y-112473800D01*
X71566741Y-112473800D02*
X71709598Y-112521419D01*
X71709598Y-112521419D02*
X71804836Y-112521419D01*
X71804836Y-112521419D02*
X71947693Y-112473800D01*
X71947693Y-112473800D02*
X71995312Y-112426180D01*
X71995312Y-112426180D02*
X71995312Y-112092847D01*
X71995312Y-112092847D02*
X71804836Y-112092847D01*
X72074693Y-157289038D02*
X71979455Y-157241419D01*
X71979455Y-157241419D02*
X71836598Y-157241419D01*
X71836598Y-157241419D02*
X71693741Y-157289038D01*
X71693741Y-157289038D02*
X71598503Y-157384276D01*
X71598503Y-157384276D02*
X71550884Y-157479514D01*
X71550884Y-157479514D02*
X71503265Y-157669990D01*
X71503265Y-157669990D02*
X71503265Y-157812847D01*
X71503265Y-157812847D02*
X71550884Y-158003323D01*
X71550884Y-158003323D02*
X71598503Y-158098561D01*
X71598503Y-158098561D02*
X71693741Y-158193800D01*
X71693741Y-158193800D02*
X71836598Y-158241419D01*
X71836598Y-158241419D02*
X71931836Y-158241419D01*
X71931836Y-158241419D02*
X72074693Y-158193800D01*
X72074693Y-158193800D02*
X72122312Y-158146180D01*
X72122312Y-158146180D02*
X72122312Y-157812847D01*
X72122312Y-157812847D02*
X71931836Y-157812847D01*
X152211693Y-119443038D02*
X152116455Y-119395419D01*
X152116455Y-119395419D02*
X151973598Y-119395419D01*
X151973598Y-119395419D02*
X151830741Y-119443038D01*
X151830741Y-119443038D02*
X151735503Y-119538276D01*
X151735503Y-119538276D02*
X151687884Y-119633514D01*
X151687884Y-119633514D02*
X151640265Y-119823990D01*
X151640265Y-119823990D02*
X151640265Y-119966847D01*
X151640265Y-119966847D02*
X151687884Y-120157323D01*
X151687884Y-120157323D02*
X151735503Y-120252561D01*
X151735503Y-120252561D02*
X151830741Y-120347800D01*
X151830741Y-120347800D02*
X151973598Y-120395419D01*
X151973598Y-120395419D02*
X152068836Y-120395419D01*
X152068836Y-120395419D02*
X152211693Y-120347800D01*
X152211693Y-120347800D02*
X152259312Y-120300180D01*
X152259312Y-120300180D02*
X152259312Y-119966847D01*
X152259312Y-119966847D02*
X152068836Y-119966847D01*
X152084693Y-96583038D02*
X151989455Y-96535419D01*
X151989455Y-96535419D02*
X151846598Y-96535419D01*
X151846598Y-96535419D02*
X151703741Y-96583038D01*
X151703741Y-96583038D02*
X151608503Y-96678276D01*
X151608503Y-96678276D02*
X151560884Y-96773514D01*
X151560884Y-96773514D02*
X151513265Y-96963990D01*
X151513265Y-96963990D02*
X151513265Y-97106847D01*
X151513265Y-97106847D02*
X151560884Y-97297323D01*
X151560884Y-97297323D02*
X151608503Y-97392561D01*
X151608503Y-97392561D02*
X151703741Y-97487800D01*
X151703741Y-97487800D02*
X151846598Y-97535419D01*
X151846598Y-97535419D02*
X151941836Y-97535419D01*
X151941836Y-97535419D02*
X152084693Y-97487800D01*
X152084693Y-97487800D02*
X152132312Y-97440180D01*
X152132312Y-97440180D02*
X152132312Y-97106847D01*
X152132312Y-97106847D02*
X151941836Y-97106847D01*
X71833408Y-140282704D02*
X71795312Y-140320800D01*
X71795312Y-140320800D02*
X71681027Y-140358895D01*
X71681027Y-140358895D02*
X71604836Y-140358895D01*
X71604836Y-140358895D02*
X71490550Y-140320800D01*
X71490550Y-140320800D02*
X71414360Y-140244609D01*
X71414360Y-140244609D02*
X71376265Y-140168419D01*
X71376265Y-140168419D02*
X71338169Y-140016038D01*
X71338169Y-140016038D02*
X71338169Y-139901752D01*
X71338169Y-139901752D02*
X71376265Y-139749371D01*
X71376265Y-139749371D02*
X71414360Y-139673180D01*
X71414360Y-139673180D02*
X71490550Y-139596990D01*
X71490550Y-139596990D02*
X71604836Y-139558895D01*
X71604836Y-139558895D02*
X71681027Y-139558895D01*
X71681027Y-139558895D02*
X71795312Y-139596990D01*
X71795312Y-139596990D02*
X71833408Y-139635085D01*
X72595312Y-140358895D02*
X72138169Y-140358895D01*
X72366741Y-140358895D02*
X72366741Y-139558895D01*
X72366741Y-139558895D02*
X72290550Y-139673180D01*
X72290550Y-139673180D02*
X72214360Y-139749371D01*
X72214360Y-139749371D02*
X72138169Y-139787466D01*
X72900074Y-139635085D02*
X72938170Y-139596990D01*
X72938170Y-139596990D02*
X73014360Y-139558895D01*
X73014360Y-139558895D02*
X73204836Y-139558895D01*
X73204836Y-139558895D02*
X73281027Y-139596990D01*
X73281027Y-139596990D02*
X73319122Y-139635085D01*
X73319122Y-139635085D02*
X73357217Y-139711276D01*
X73357217Y-139711276D02*
X73357217Y-139787466D01*
X73357217Y-139787466D02*
X73319122Y-139901752D01*
X73319122Y-139901752D02*
X72861979Y-140358895D01*
X72861979Y-140358895D02*
X73357217Y-140358895D01*
X73890551Y-140625561D02*
X73890551Y-139482704D01*
X74423884Y-140130323D02*
X74804837Y-140130323D01*
X74347694Y-140358895D02*
X74614361Y-139558895D01*
X74614361Y-139558895D02*
X74881027Y-140358895D01*
X75566741Y-140358895D02*
X75109598Y-140358895D01*
X75338170Y-140358895D02*
X75338170Y-139558895D01*
X75338170Y-139558895D02*
X75261979Y-139673180D01*
X75261979Y-139673180D02*
X75185789Y-139749371D01*
X75185789Y-139749371D02*
X75109598Y-139787466D01*
X76061980Y-139558895D02*
X76138170Y-139558895D01*
X76138170Y-139558895D02*
X76214361Y-139596990D01*
X76214361Y-139596990D02*
X76252456Y-139635085D01*
X76252456Y-139635085D02*
X76290551Y-139711276D01*
X76290551Y-139711276D02*
X76328646Y-139863657D01*
X76328646Y-139863657D02*
X76328646Y-140054133D01*
X76328646Y-140054133D02*
X76290551Y-140206514D01*
X76290551Y-140206514D02*
X76252456Y-140282704D01*
X76252456Y-140282704D02*
X76214361Y-140320800D01*
X76214361Y-140320800D02*
X76138170Y-140358895D01*
X76138170Y-140358895D02*
X76061980Y-140358895D01*
X76061980Y-140358895D02*
X75985789Y-140320800D01*
X75985789Y-140320800D02*
X75947694Y-140282704D01*
X75947694Y-140282704D02*
X75909599Y-140206514D01*
X75909599Y-140206514D02*
X75871503Y-140054133D01*
X75871503Y-140054133D02*
X75871503Y-139863657D01*
X75871503Y-139863657D02*
X75909599Y-139711276D01*
X75909599Y-139711276D02*
X75947694Y-139635085D01*
X75947694Y-139635085D02*
X75985789Y-139596990D01*
X75985789Y-139596990D02*
X76061980Y-139558895D01*
X71550884Y-168401419D02*
X71550884Y-167401419D01*
X71550884Y-167401419D02*
X71788979Y-167401419D01*
X71788979Y-167401419D02*
X71931836Y-167449038D01*
X71931836Y-167449038D02*
X72027074Y-167544276D01*
X72027074Y-167544276D02*
X72074693Y-167639514D01*
X72074693Y-167639514D02*
X72122312Y-167829990D01*
X72122312Y-167829990D02*
X72122312Y-167972847D01*
X72122312Y-167972847D02*
X72074693Y-168163323D01*
X72074693Y-168163323D02*
X72027074Y-168258561D01*
X72027074Y-168258561D02*
X71931836Y-168353800D01*
X71931836Y-168353800D02*
X71788979Y-168401419D01*
X71788979Y-168401419D02*
X71550884Y-168401419D01*
X72455646Y-167401419D02*
X73074693Y-167401419D01*
X73074693Y-167401419D02*
X72741360Y-167782371D01*
X72741360Y-167782371D02*
X72884217Y-167782371D01*
X72884217Y-167782371D02*
X72979455Y-167829990D01*
X72979455Y-167829990D02*
X73027074Y-167877609D01*
X73027074Y-167877609D02*
X73074693Y-167972847D01*
X73074693Y-167972847D02*
X73074693Y-168210942D01*
X73074693Y-168210942D02*
X73027074Y-168306180D01*
X73027074Y-168306180D02*
X72979455Y-168353800D01*
X72979455Y-168353800D02*
X72884217Y-168401419D01*
X72884217Y-168401419D02*
X72598503Y-168401419D01*
X72598503Y-168401419D02*
X72503265Y-168353800D01*
X72503265Y-168353800D02*
X72455646Y-168306180D01*
X73741360Y-168734752D02*
X73741360Y-167306180D01*
X74455646Y-168401419D02*
X74455646Y-167401419D01*
X74455646Y-167401419D02*
X74693741Y-167401419D01*
X74693741Y-167401419D02*
X74836598Y-167449038D01*
X74836598Y-167449038D02*
X74931836Y-167544276D01*
X74931836Y-167544276D02*
X74979455Y-167639514D01*
X74979455Y-167639514D02*
X75027074Y-167829990D01*
X75027074Y-167829990D02*
X75027074Y-167972847D01*
X75027074Y-167972847D02*
X74979455Y-168163323D01*
X74979455Y-168163323D02*
X74931836Y-168258561D01*
X74931836Y-168258561D02*
X74836598Y-168353800D01*
X74836598Y-168353800D02*
X74693741Y-168401419D01*
X74693741Y-168401419D02*
X74455646Y-168401419D01*
X75360408Y-167401419D02*
X76027074Y-167401419D01*
X76027074Y-167401419D02*
X75598503Y-168401419D01*
X105523312Y-155733180D02*
X105475693Y-155780800D01*
X105475693Y-155780800D02*
X105332836Y-155828419D01*
X105332836Y-155828419D02*
X105237598Y-155828419D01*
X105237598Y-155828419D02*
X105094741Y-155780800D01*
X105094741Y-155780800D02*
X104999503Y-155685561D01*
X104999503Y-155685561D02*
X104951884Y-155590323D01*
X104951884Y-155590323D02*
X104904265Y-155399847D01*
X104904265Y-155399847D02*
X104904265Y-155256990D01*
X104904265Y-155256990D02*
X104951884Y-155066514D01*
X104951884Y-155066514D02*
X104999503Y-154971276D01*
X104999503Y-154971276D02*
X105094741Y-154876038D01*
X105094741Y-154876038D02*
X105237598Y-154828419D01*
X105237598Y-154828419D02*
X105332836Y-154828419D01*
X105332836Y-154828419D02*
X105475693Y-154876038D01*
X105475693Y-154876038D02*
X105523312Y-154923657D01*
X106380455Y-154828419D02*
X106189979Y-154828419D01*
X106189979Y-154828419D02*
X106094741Y-154876038D01*
X106094741Y-154876038D02*
X106047122Y-154923657D01*
X106047122Y-154923657D02*
X105951884Y-155066514D01*
X105951884Y-155066514D02*
X105904265Y-155256990D01*
X105904265Y-155256990D02*
X105904265Y-155637942D01*
X105904265Y-155637942D02*
X105951884Y-155733180D01*
X105951884Y-155733180D02*
X105999503Y-155780800D01*
X105999503Y-155780800D02*
X106094741Y-155828419D01*
X106094741Y-155828419D02*
X106285217Y-155828419D01*
X106285217Y-155828419D02*
X106380455Y-155780800D01*
X106380455Y-155780800D02*
X106428074Y-155733180D01*
X106428074Y-155733180D02*
X106475693Y-155637942D01*
X106475693Y-155637942D02*
X106475693Y-155399847D01*
X106475693Y-155399847D02*
X106428074Y-155304609D01*
X106428074Y-155304609D02*
X106380455Y-155256990D01*
X106380455Y-155256990D02*
X106285217Y-155209371D01*
X106285217Y-155209371D02*
X106094741Y-155209371D01*
X106094741Y-155209371D02*
X105999503Y-155256990D01*
X105999503Y-155256990D02*
X105951884Y-155304609D01*
X105951884Y-155304609D02*
X105904265Y-155399847D01*
X123620884Y-168782419D02*
X123620884Y-167782419D01*
X123620884Y-167782419D02*
X124001836Y-167782419D01*
X124001836Y-167782419D02*
X124097074Y-167830038D01*
X124097074Y-167830038D02*
X124144693Y-167877657D01*
X124144693Y-167877657D02*
X124192312Y-167972895D01*
X124192312Y-167972895D02*
X124192312Y-168115752D01*
X124192312Y-168115752D02*
X124144693Y-168210990D01*
X124144693Y-168210990D02*
X124097074Y-168258609D01*
X124097074Y-168258609D02*
X124001836Y-168306228D01*
X124001836Y-168306228D02*
X123620884Y-168306228D01*
X124620884Y-168782419D02*
X124620884Y-168115752D01*
X124620884Y-168210990D02*
X124668503Y-168163371D01*
X124668503Y-168163371D02*
X124763741Y-168115752D01*
X124763741Y-168115752D02*
X124906598Y-168115752D01*
X124906598Y-168115752D02*
X125001836Y-168163371D01*
X125001836Y-168163371D02*
X125049455Y-168258609D01*
X125049455Y-168258609D02*
X125049455Y-168782419D01*
X125049455Y-168258609D02*
X125097074Y-168163371D01*
X125097074Y-168163371D02*
X125192312Y-168115752D01*
X125192312Y-168115752D02*
X125335169Y-168115752D01*
X125335169Y-168115752D02*
X125430408Y-168163371D01*
X125430408Y-168163371D02*
X125478027Y-168258609D01*
X125478027Y-168258609D02*
X125478027Y-168782419D01*
X126097074Y-168782419D02*
X126001836Y-168734800D01*
X126001836Y-168734800D02*
X125954217Y-168687180D01*
X125954217Y-168687180D02*
X125906598Y-168591942D01*
X125906598Y-168591942D02*
X125906598Y-168306228D01*
X125906598Y-168306228D02*
X125954217Y-168210990D01*
X125954217Y-168210990D02*
X126001836Y-168163371D01*
X126001836Y-168163371D02*
X126097074Y-168115752D01*
X126097074Y-168115752D02*
X126239931Y-168115752D01*
X126239931Y-168115752D02*
X126335169Y-168163371D01*
X126335169Y-168163371D02*
X126382788Y-168210990D01*
X126382788Y-168210990D02*
X126430407Y-168306228D01*
X126430407Y-168306228D02*
X126430407Y-168591942D01*
X126430407Y-168591942D02*
X126382788Y-168687180D01*
X126382788Y-168687180D02*
X126335169Y-168734800D01*
X126335169Y-168734800D02*
X126239931Y-168782419D01*
X126239931Y-168782419D02*
X126097074Y-168782419D01*
X127287550Y-168782419D02*
X127287550Y-167782419D01*
X127287550Y-168734800D02*
X127192312Y-168782419D01*
X127192312Y-168782419D02*
X127001836Y-168782419D01*
X127001836Y-168782419D02*
X126906598Y-168734800D01*
X126906598Y-168734800D02*
X126858979Y-168687180D01*
X126858979Y-168687180D02*
X126811360Y-168591942D01*
X126811360Y-168591942D02*
X126811360Y-168306228D01*
X126811360Y-168306228D02*
X126858979Y-168210990D01*
X126858979Y-168210990D02*
X126906598Y-168163371D01*
X126906598Y-168163371D02*
X127001836Y-168115752D01*
X127001836Y-168115752D02*
X127192312Y-168115752D01*
X127192312Y-168115752D02*
X127287550Y-168163371D01*
X128525646Y-168258609D02*
X128858979Y-168258609D01*
X129001836Y-168782419D02*
X128525646Y-168782419D01*
X128525646Y-168782419D02*
X128525646Y-167782419D01*
X128525646Y-167782419D02*
X129001836Y-167782419D01*
X129335170Y-167782419D02*
X130001836Y-168782419D01*
X130001836Y-167782419D02*
X129335170Y-168782419D01*
X130382789Y-168782419D02*
X130382789Y-167782419D01*
X130382789Y-167782419D02*
X130763741Y-167782419D01*
X130763741Y-167782419D02*
X130858979Y-167830038D01*
X130858979Y-167830038D02*
X130906598Y-167877657D01*
X130906598Y-167877657D02*
X130954217Y-167972895D01*
X130954217Y-167972895D02*
X130954217Y-168115752D01*
X130954217Y-168115752D02*
X130906598Y-168210990D01*
X130906598Y-168210990D02*
X130858979Y-168258609D01*
X130858979Y-168258609D02*
X130763741Y-168306228D01*
X130763741Y-168306228D02*
X130382789Y-168306228D01*
X132049456Y-168115752D02*
X132287551Y-168782419D01*
X132287551Y-168782419D02*
X132525646Y-168115752D01*
X133097075Y-167782419D02*
X133192313Y-167782419D01*
X133192313Y-167782419D02*
X133287551Y-167830038D01*
X133287551Y-167830038D02*
X133335170Y-167877657D01*
X133335170Y-167877657D02*
X133382789Y-167972895D01*
X133382789Y-167972895D02*
X133430408Y-168163371D01*
X133430408Y-168163371D02*
X133430408Y-168401466D01*
X133430408Y-168401466D02*
X133382789Y-168591942D01*
X133382789Y-168591942D02*
X133335170Y-168687180D01*
X133335170Y-168687180D02*
X133287551Y-168734800D01*
X133287551Y-168734800D02*
X133192313Y-168782419D01*
X133192313Y-168782419D02*
X133097075Y-168782419D01*
X133097075Y-168782419D02*
X133001837Y-168734800D01*
X133001837Y-168734800D02*
X132954218Y-168687180D01*
X132954218Y-168687180D02*
X132906599Y-168591942D01*
X132906599Y-168591942D02*
X132858980Y-168401466D01*
X132858980Y-168401466D02*
X132858980Y-168163371D01*
X132858980Y-168163371D02*
X132906599Y-167972895D01*
X132906599Y-167972895D02*
X132954218Y-167877657D01*
X132954218Y-167877657D02*
X133001837Y-167830038D01*
X133001837Y-167830038D02*
X133097075Y-167782419D01*
X133858980Y-168687180D02*
X133906599Y-168734800D01*
X133906599Y-168734800D02*
X133858980Y-168782419D01*
X133858980Y-168782419D02*
X133811361Y-168734800D01*
X133811361Y-168734800D02*
X133858980Y-168687180D01*
X133858980Y-168687180D02*
X133858980Y-168782419D01*
X134858979Y-168782419D02*
X134287551Y-168782419D01*
X134573265Y-168782419D02*
X134573265Y-167782419D01*
X134573265Y-167782419D02*
X134478027Y-167925276D01*
X134478027Y-167925276D02*
X134382789Y-168020514D01*
X134382789Y-168020514D02*
X134287551Y-168068133D01*
X135906599Y-168115752D02*
X136287551Y-168115752D01*
X136049456Y-168782419D02*
X136049456Y-167925276D01*
X136049456Y-167925276D02*
X136097075Y-167830038D01*
X136097075Y-167830038D02*
X136192313Y-167782419D01*
X136192313Y-167782419D02*
X136287551Y-167782419D01*
X136763742Y-168782419D02*
X136668504Y-168734800D01*
X136668504Y-168734800D02*
X136620885Y-168687180D01*
X136620885Y-168687180D02*
X136573266Y-168591942D01*
X136573266Y-168591942D02*
X136573266Y-168306228D01*
X136573266Y-168306228D02*
X136620885Y-168210990D01*
X136620885Y-168210990D02*
X136668504Y-168163371D01*
X136668504Y-168163371D02*
X136763742Y-168115752D01*
X136763742Y-168115752D02*
X136906599Y-168115752D01*
X136906599Y-168115752D02*
X137001837Y-168163371D01*
X137001837Y-168163371D02*
X137049456Y-168210990D01*
X137049456Y-168210990D02*
X137097075Y-168306228D01*
X137097075Y-168306228D02*
X137097075Y-168591942D01*
X137097075Y-168591942D02*
X137049456Y-168687180D01*
X137049456Y-168687180D02*
X137001837Y-168734800D01*
X137001837Y-168734800D02*
X136906599Y-168782419D01*
X136906599Y-168782419D02*
X136763742Y-168782419D01*
X137525647Y-168782419D02*
X137525647Y-168115752D01*
X137525647Y-168306228D02*
X137573266Y-168210990D01*
X137573266Y-168210990D02*
X137620885Y-168163371D01*
X137620885Y-168163371D02*
X137716123Y-168115752D01*
X137716123Y-168115752D02*
X137811361Y-168115752D01*
X138906600Y-168782419D02*
X138906600Y-167782419D01*
X138906600Y-167782419D02*
X139287552Y-167782419D01*
X139287552Y-167782419D02*
X139382790Y-167830038D01*
X139382790Y-167830038D02*
X139430409Y-167877657D01*
X139430409Y-167877657D02*
X139478028Y-167972895D01*
X139478028Y-167972895D02*
X139478028Y-168115752D01*
X139478028Y-168115752D02*
X139430409Y-168210990D01*
X139430409Y-168210990D02*
X139382790Y-168258609D01*
X139382790Y-168258609D02*
X139287552Y-168306228D01*
X139287552Y-168306228D02*
X138906600Y-168306228D01*
X140097076Y-168306228D02*
X140097076Y-168782419D01*
X139763743Y-167782419D02*
X140097076Y-168306228D01*
X140097076Y-168306228D02*
X140430409Y-167782419D01*
X140668505Y-167782419D02*
X141287552Y-167782419D01*
X141287552Y-167782419D02*
X140954219Y-168163371D01*
X140954219Y-168163371D02*
X141097076Y-168163371D01*
X141097076Y-168163371D02*
X141192314Y-168210990D01*
X141192314Y-168210990D02*
X141239933Y-168258609D01*
X141239933Y-168258609D02*
X141287552Y-168353847D01*
X141287552Y-168353847D02*
X141287552Y-168591942D01*
X141287552Y-168591942D02*
X141239933Y-168687180D01*
X141239933Y-168687180D02*
X141192314Y-168734800D01*
X141192314Y-168734800D02*
X141097076Y-168782419D01*
X141097076Y-168782419D02*
X140811362Y-168782419D01*
X140811362Y-168782419D02*
X140716124Y-168734800D01*
X140716124Y-168734800D02*
X140668505Y-168687180D01*
X141668505Y-167877657D02*
X141716124Y-167830038D01*
X141716124Y-167830038D02*
X141811362Y-167782419D01*
X141811362Y-167782419D02*
X142049457Y-167782419D01*
X142049457Y-167782419D02*
X142144695Y-167830038D01*
X142144695Y-167830038D02*
X142192314Y-167877657D01*
X142192314Y-167877657D02*
X142239933Y-167972895D01*
X142239933Y-167972895D02*
X142239933Y-168068133D01*
X142239933Y-168068133D02*
X142192314Y-168210990D01*
X142192314Y-168210990D02*
X141620886Y-168782419D01*
X141620886Y-168782419D02*
X142239933Y-168782419D01*
X142668505Y-168258609D02*
X143001838Y-168258609D01*
X143144695Y-168782419D02*
X142668505Y-168782419D01*
X142668505Y-168782419D02*
X142668505Y-167782419D01*
X142668505Y-167782419D02*
X143144695Y-167782419D01*
X144001838Y-168115752D02*
X144001838Y-168782419D01*
X143763743Y-167734800D02*
X143525648Y-168449085D01*
X143525648Y-168449085D02*
X144144695Y-168449085D01*
X144716124Y-167782419D02*
X144811362Y-167782419D01*
X144811362Y-167782419D02*
X144906600Y-167830038D01*
X144906600Y-167830038D02*
X144954219Y-167877657D01*
X144954219Y-167877657D02*
X145001838Y-167972895D01*
X145001838Y-167972895D02*
X145049457Y-168163371D01*
X145049457Y-168163371D02*
X145049457Y-168401466D01*
X145049457Y-168401466D02*
X145001838Y-168591942D01*
X145001838Y-168591942D02*
X144954219Y-168687180D01*
X144954219Y-168687180D02*
X144906600Y-168734800D01*
X144906600Y-168734800D02*
X144811362Y-168782419D01*
X144811362Y-168782419D02*
X144716124Y-168782419D01*
X144716124Y-168782419D02*
X144620886Y-168734800D01*
X144620886Y-168734800D02*
X144573267Y-168687180D01*
X144573267Y-168687180D02*
X144525648Y-168591942D01*
X144525648Y-168591942D02*
X144478029Y-168401466D01*
X144478029Y-168401466D02*
X144478029Y-168163371D01*
X144478029Y-168163371D02*
X144525648Y-167972895D01*
X144525648Y-167972895D02*
X144573267Y-167877657D01*
X144573267Y-167877657D02*
X144620886Y-167830038D01*
X144620886Y-167830038D02*
X144716124Y-167782419D01*
X145382791Y-167782419D02*
X146049457Y-167782419D01*
X146049457Y-167782419D02*
X145620886Y-168782419D01*
X146430410Y-168401466D02*
X147192315Y-168401466D01*
X147620886Y-168734800D02*
X147763743Y-168782419D01*
X147763743Y-168782419D02*
X148001838Y-168782419D01*
X148001838Y-168782419D02*
X148097076Y-168734800D01*
X148097076Y-168734800D02*
X148144695Y-168687180D01*
X148144695Y-168687180D02*
X148192314Y-168591942D01*
X148192314Y-168591942D02*
X148192314Y-168496704D01*
X148192314Y-168496704D02*
X148144695Y-168401466D01*
X148144695Y-168401466D02*
X148097076Y-168353847D01*
X148097076Y-168353847D02*
X148001838Y-168306228D01*
X148001838Y-168306228D02*
X147811362Y-168258609D01*
X147811362Y-168258609D02*
X147716124Y-168210990D01*
X147716124Y-168210990D02*
X147668505Y-168163371D01*
X147668505Y-168163371D02*
X147620886Y-168068133D01*
X147620886Y-168068133D02*
X147620886Y-167972895D01*
X147620886Y-167972895D02*
X147668505Y-167877657D01*
X147668505Y-167877657D02*
X147716124Y-167830038D01*
X147716124Y-167830038D02*
X147811362Y-167782419D01*
X147811362Y-167782419D02*
X148049457Y-167782419D01*
X148049457Y-167782419D02*
X148192314Y-167830038D01*
X148478029Y-167782419D02*
X149049457Y-167782419D01*
X148763743Y-168782419D02*
X148763743Y-167782419D01*
X149335172Y-168496704D02*
X149811362Y-168496704D01*
X149239934Y-168782419D02*
X149573267Y-167782419D01*
X149573267Y-167782419D02*
X149906600Y-168782419D01*
X150811362Y-168782419D02*
X150478029Y-168306228D01*
X150239934Y-168782419D02*
X150239934Y-167782419D01*
X150239934Y-167782419D02*
X150620886Y-167782419D01*
X150620886Y-167782419D02*
X150716124Y-167830038D01*
X150716124Y-167830038D02*
X150763743Y-167877657D01*
X150763743Y-167877657D02*
X150811362Y-167972895D01*
X150811362Y-167972895D02*
X150811362Y-168115752D01*
X150811362Y-168115752D02*
X150763743Y-168210990D01*
X150763743Y-168210990D02*
X150716124Y-168258609D01*
X150716124Y-168258609D02*
X150620886Y-168306228D01*
X150620886Y-168306228D02*
X150239934Y-168306228D01*
X151097077Y-167782419D02*
X151668505Y-167782419D01*
X151382791Y-168782419D02*
X151382791Y-167782419D01*
X152001839Y-168401466D02*
X152763744Y-168401466D01*
X153239934Y-168258609D02*
X153573267Y-168258609D01*
X153716124Y-168782419D02*
X153239934Y-168782419D01*
X153239934Y-168782419D02*
X153239934Y-167782419D01*
X153239934Y-167782419D02*
X153716124Y-167782419D01*
X154001839Y-167782419D02*
X154573267Y-167782419D01*
X154287553Y-168782419D02*
X154287553Y-167782419D01*
X154906601Y-168782419D02*
X154906601Y-167782419D01*
X154906601Y-168258609D02*
X155478029Y-168258609D01*
X155478029Y-168782419D02*
X155478029Y-167782419D01*
X156573268Y-167782419D02*
X156906601Y-168782419D01*
X156906601Y-168782419D02*
X157239934Y-167782419D01*
X157525649Y-167877657D02*
X157573268Y-167830038D01*
X157573268Y-167830038D02*
X157668506Y-167782419D01*
X157668506Y-167782419D02*
X157906601Y-167782419D01*
X157906601Y-167782419D02*
X158001839Y-167830038D01*
X158001839Y-167830038D02*
X158049458Y-167877657D01*
X158049458Y-167877657D02*
X158097077Y-167972895D01*
X158097077Y-167972895D02*
X158097077Y-168068133D01*
X158097077Y-168068133D02*
X158049458Y-168210990D01*
X158049458Y-168210990D02*
X157478030Y-168782419D01*
X157478030Y-168782419D02*
X158097077Y-168782419D01*
X158525649Y-168687180D02*
X158573268Y-168734800D01*
X158573268Y-168734800D02*
X158525649Y-168782419D01*
X158525649Y-168782419D02*
X158478030Y-168734800D01*
X158478030Y-168734800D02*
X158525649Y-168687180D01*
X158525649Y-168687180D02*
X158525649Y-168782419D01*
X159525648Y-168782419D02*
X158954220Y-168782419D01*
X159239934Y-168782419D02*
X159239934Y-167782419D01*
X159239934Y-167782419D02*
X159144696Y-167925276D01*
X159144696Y-167925276D02*
X159049458Y-168020514D01*
X159049458Y-168020514D02*
X158954220Y-168068133D01*
X123284704Y-117853734D02*
X123284704Y-117377544D01*
X123570419Y-117948972D02*
X122570419Y-117615639D01*
X122570419Y-117615639D02*
X123570419Y-117282306D01*
X122903752Y-116520401D02*
X123570419Y-116520401D01*
X122522800Y-116758496D02*
X123237085Y-116996591D01*
X123237085Y-116996591D02*
X123237085Y-116377544D01*
X151672027Y-122062419D02*
X152005360Y-123062419D01*
X152005360Y-123062419D02*
X152338693Y-122062419D01*
X71423884Y-137921419D02*
X71423884Y-136921419D01*
X71423884Y-136921419D02*
X71661979Y-136921419D01*
X71661979Y-136921419D02*
X71804836Y-136969038D01*
X71804836Y-136969038D02*
X71900074Y-137064276D01*
X71900074Y-137064276D02*
X71947693Y-137159514D01*
X71947693Y-137159514D02*
X71995312Y-137349990D01*
X71995312Y-137349990D02*
X71995312Y-137492847D01*
X71995312Y-137492847D02*
X71947693Y-137683323D01*
X71947693Y-137683323D02*
X71900074Y-137778561D01*
X71900074Y-137778561D02*
X71804836Y-137873800D01*
X71804836Y-137873800D02*
X71661979Y-137921419D01*
X71661979Y-137921419D02*
X71423884Y-137921419D01*
X72376265Y-137016657D02*
X72423884Y-136969038D01*
X72423884Y-136969038D02*
X72519122Y-136921419D01*
X72519122Y-136921419D02*
X72757217Y-136921419D01*
X72757217Y-136921419D02*
X72852455Y-136969038D01*
X72852455Y-136969038D02*
X72900074Y-137016657D01*
X72900074Y-137016657D02*
X72947693Y-137111895D01*
X72947693Y-137111895D02*
X72947693Y-137207133D01*
X72947693Y-137207133D02*
X72900074Y-137349990D01*
X72900074Y-137349990D02*
X72328646Y-137921419D01*
X72328646Y-137921419D02*
X72947693Y-137921419D01*
X73614360Y-138254752D02*
X73614360Y-136826180D01*
X74661979Y-137397609D02*
X74328646Y-137397609D01*
X74328646Y-137921419D02*
X74328646Y-136921419D01*
X74328646Y-136921419D02*
X74804836Y-136921419D01*
X75614360Y-137254752D02*
X75614360Y-137921419D01*
X75376265Y-136873800D02*
X75138170Y-137588085D01*
X75138170Y-137588085D02*
X75757217Y-137588085D01*
X148131884Y-112251609D02*
X148465217Y-112251609D01*
X148608074Y-112775419D02*
X148131884Y-112775419D01*
X148131884Y-112775419D02*
X148131884Y-111775419D01*
X148131884Y-111775419D02*
X148608074Y-111775419D01*
X149227122Y-111775419D02*
X149322360Y-111775419D01*
X149322360Y-111775419D02*
X149417598Y-111823038D01*
X149417598Y-111823038D02*
X149465217Y-111870657D01*
X149465217Y-111870657D02*
X149512836Y-111965895D01*
X149512836Y-111965895D02*
X149560455Y-112156371D01*
X149560455Y-112156371D02*
X149560455Y-112394466D01*
X149560455Y-112394466D02*
X149512836Y-112584942D01*
X149512836Y-112584942D02*
X149465217Y-112680180D01*
X149465217Y-112680180D02*
X149417598Y-112727800D01*
X149417598Y-112727800D02*
X149322360Y-112775419D01*
X149322360Y-112775419D02*
X149227122Y-112775419D01*
X149227122Y-112775419D02*
X149131884Y-112727800D01*
X149131884Y-112727800D02*
X149084265Y-112680180D01*
X149084265Y-112680180D02*
X149036646Y-112584942D01*
X149036646Y-112584942D02*
X148989027Y-112394466D01*
X148989027Y-112394466D02*
X148989027Y-112156371D01*
X148989027Y-112156371D02*
X149036646Y-111965895D01*
X149036646Y-111965895D02*
X149084265Y-111870657D01*
X149084265Y-111870657D02*
X149131884Y-111823038D01*
X149131884Y-111823038D02*
X149227122Y-111775419D01*
X150227122Y-113108752D02*
X150227122Y-111680180D01*
X150941408Y-112251609D02*
X151274741Y-112251609D01*
X151417598Y-112775419D02*
X150941408Y-112775419D01*
X150941408Y-112775419D02*
X150941408Y-111775419D01*
X150941408Y-111775419D02*
X151417598Y-111775419D01*
X152322360Y-111775419D02*
X151846170Y-111775419D01*
X151846170Y-111775419D02*
X151798551Y-112251609D01*
X151798551Y-112251609D02*
X151846170Y-112203990D01*
X151846170Y-112203990D02*
X151941408Y-112156371D01*
X151941408Y-112156371D02*
X152179503Y-112156371D01*
X152179503Y-112156371D02*
X152274741Y-112203990D01*
X152274741Y-112203990D02*
X152322360Y-112251609D01*
X152322360Y-112251609D02*
X152369979Y-112346847D01*
X152369979Y-112346847D02*
X152369979Y-112584942D01*
X152369979Y-112584942D02*
X152322360Y-112680180D01*
X152322360Y-112680180D02*
X152274741Y-112727800D01*
X152274741Y-112727800D02*
X152179503Y-112775419D01*
X152179503Y-112775419D02*
X151941408Y-112775419D01*
X151941408Y-112775419D02*
X151846170Y-112727800D01*
X151846170Y-112727800D02*
X151798551Y-112680180D01*
X72122312Y-142779180D02*
X72074693Y-142826800D01*
X72074693Y-142826800D02*
X71931836Y-142874419D01*
X71931836Y-142874419D02*
X71836598Y-142874419D01*
X71836598Y-142874419D02*
X71693741Y-142826800D01*
X71693741Y-142826800D02*
X71598503Y-142731561D01*
X71598503Y-142731561D02*
X71550884Y-142636323D01*
X71550884Y-142636323D02*
X71503265Y-142445847D01*
X71503265Y-142445847D02*
X71503265Y-142302990D01*
X71503265Y-142302990D02*
X71550884Y-142112514D01*
X71550884Y-142112514D02*
X71598503Y-142017276D01*
X71598503Y-142017276D02*
X71693741Y-141922038D01*
X71693741Y-141922038D02*
X71836598Y-141874419D01*
X71836598Y-141874419D02*
X71931836Y-141874419D01*
X71931836Y-141874419D02*
X72074693Y-141922038D01*
X72074693Y-141922038D02*
X72122312Y-141969657D01*
X73074693Y-142874419D02*
X72503265Y-142874419D01*
X72788979Y-142874419D02*
X72788979Y-141874419D01*
X72788979Y-141874419D02*
X72693741Y-142017276D01*
X72693741Y-142017276D02*
X72598503Y-142112514D01*
X72598503Y-142112514D02*
X72503265Y-142160133D01*
X73693741Y-141874419D02*
X73788979Y-141874419D01*
X73788979Y-141874419D02*
X73884217Y-141922038D01*
X73884217Y-141922038D02*
X73931836Y-141969657D01*
X73931836Y-141969657D02*
X73979455Y-142064895D01*
X73979455Y-142064895D02*
X74027074Y-142255371D01*
X74027074Y-142255371D02*
X74027074Y-142493466D01*
X74027074Y-142493466D02*
X73979455Y-142683942D01*
X73979455Y-142683942D02*
X73931836Y-142779180D01*
X73931836Y-142779180D02*
X73884217Y-142826800D01*
X73884217Y-142826800D02*
X73788979Y-142874419D01*
X73788979Y-142874419D02*
X73693741Y-142874419D01*
X73693741Y-142874419D02*
X73598503Y-142826800D01*
X73598503Y-142826800D02*
X73550884Y-142779180D01*
X73550884Y-142779180D02*
X73503265Y-142683942D01*
X73503265Y-142683942D02*
X73455646Y-142493466D01*
X73455646Y-142493466D02*
X73455646Y-142255371D01*
X73455646Y-142255371D02*
X73503265Y-142064895D01*
X73503265Y-142064895D02*
X73550884Y-141969657D01*
X73550884Y-141969657D02*
X73598503Y-141922038D01*
X73598503Y-141922038D02*
X73693741Y-141874419D01*
X74693741Y-143207752D02*
X74693741Y-141779180D01*
X75360408Y-142588704D02*
X75836598Y-142588704D01*
X75265170Y-142874419D02*
X75598503Y-141874419D01*
X75598503Y-141874419D02*
X75931836Y-142874419D01*
X76788979Y-142874419D02*
X76217551Y-142874419D01*
X76503265Y-142874419D02*
X76503265Y-141874419D01*
X76503265Y-141874419D02*
X76408027Y-142017276D01*
X76408027Y-142017276D02*
X76312789Y-142112514D01*
X76312789Y-142112514D02*
X76217551Y-142160133D01*
X77741360Y-142874419D02*
X77169932Y-142874419D01*
X77455646Y-142874419D02*
X77455646Y-141874419D01*
X77455646Y-141874419D02*
X77360408Y-142017276D01*
X77360408Y-142017276D02*
X77265170Y-142112514D01*
X77265170Y-142112514D02*
X77169932Y-142160133D01*
X147496884Y-117331609D02*
X147830217Y-117331609D01*
X147973074Y-117855419D02*
X147496884Y-117855419D01*
X147496884Y-117855419D02*
X147496884Y-116855419D01*
X147496884Y-116855419D02*
X147973074Y-116855419D01*
X148306408Y-116855419D02*
X148925455Y-116855419D01*
X148925455Y-116855419D02*
X148592122Y-117236371D01*
X148592122Y-117236371D02*
X148734979Y-117236371D01*
X148734979Y-117236371D02*
X148830217Y-117283990D01*
X148830217Y-117283990D02*
X148877836Y-117331609D01*
X148877836Y-117331609D02*
X148925455Y-117426847D01*
X148925455Y-117426847D02*
X148925455Y-117664942D01*
X148925455Y-117664942D02*
X148877836Y-117760180D01*
X148877836Y-117760180D02*
X148830217Y-117807800D01*
X148830217Y-117807800D02*
X148734979Y-117855419D01*
X148734979Y-117855419D02*
X148449265Y-117855419D01*
X148449265Y-117855419D02*
X148354027Y-117807800D01*
X148354027Y-117807800D02*
X148306408Y-117760180D01*
X149592122Y-118188752D02*
X149592122Y-116760180D01*
X150306408Y-117331609D02*
X150639741Y-117331609D01*
X150782598Y-117855419D02*
X150306408Y-117855419D01*
X150306408Y-117855419D02*
X150306408Y-116855419D01*
X150306408Y-116855419D02*
X150782598Y-116855419D01*
X151734979Y-117855419D02*
X151163551Y-117855419D01*
X151449265Y-117855419D02*
X151449265Y-116855419D01*
X151449265Y-116855419D02*
X151354027Y-116998276D01*
X151354027Y-116998276D02*
X151258789Y-117093514D01*
X151258789Y-117093514D02*
X151163551Y-117141133D01*
X152592122Y-117188752D02*
X152592122Y-117855419D01*
X152354027Y-116807800D02*
X152115932Y-117522085D01*
X152115932Y-117522085D02*
X152734979Y-117522085D01*
X71757217Y-94217609D02*
X71900074Y-94265228D01*
X71900074Y-94265228D02*
X71947693Y-94312847D01*
X71947693Y-94312847D02*
X71995312Y-94408085D01*
X71995312Y-94408085D02*
X71995312Y-94550942D01*
X71995312Y-94550942D02*
X71947693Y-94646180D01*
X71947693Y-94646180D02*
X71900074Y-94693800D01*
X71900074Y-94693800D02*
X71804836Y-94741419D01*
X71804836Y-94741419D02*
X71423884Y-94741419D01*
X71423884Y-94741419D02*
X71423884Y-93741419D01*
X71423884Y-93741419D02*
X71757217Y-93741419D01*
X71757217Y-93741419D02*
X71852455Y-93789038D01*
X71852455Y-93789038D02*
X71900074Y-93836657D01*
X71900074Y-93836657D02*
X71947693Y-93931895D01*
X71947693Y-93931895D02*
X71947693Y-94027133D01*
X71947693Y-94027133D02*
X71900074Y-94122371D01*
X71900074Y-94122371D02*
X71852455Y-94169990D01*
X71852455Y-94169990D02*
X71757217Y-94217609D01*
X71757217Y-94217609D02*
X71423884Y-94217609D01*
X72947693Y-94741419D02*
X72376265Y-94741419D01*
X72661979Y-94741419D02*
X72661979Y-93741419D01*
X72661979Y-93741419D02*
X72566741Y-93884276D01*
X72566741Y-93884276D02*
X72471503Y-93979514D01*
X72471503Y-93979514D02*
X72376265Y-94027133D01*
X73328646Y-93836657D02*
X73376265Y-93789038D01*
X73376265Y-93789038D02*
X73471503Y-93741419D01*
X73471503Y-93741419D02*
X73709598Y-93741419D01*
X73709598Y-93741419D02*
X73804836Y-93789038D01*
X73804836Y-93789038D02*
X73852455Y-93836657D01*
X73852455Y-93836657D02*
X73900074Y-93931895D01*
X73900074Y-93931895D02*
X73900074Y-94027133D01*
X73900074Y-94027133D02*
X73852455Y-94169990D01*
X73852455Y-94169990D02*
X73281027Y-94741419D01*
X73281027Y-94741419D02*
X73900074Y-94741419D01*
X74566741Y-95074752D02*
X74566741Y-93646180D01*
X75614360Y-94217609D02*
X75757217Y-94265228D01*
X75757217Y-94265228D02*
X75804836Y-94312847D01*
X75804836Y-94312847D02*
X75852455Y-94408085D01*
X75852455Y-94408085D02*
X75852455Y-94550942D01*
X75852455Y-94550942D02*
X75804836Y-94646180D01*
X75804836Y-94646180D02*
X75757217Y-94693800D01*
X75757217Y-94693800D02*
X75661979Y-94741419D01*
X75661979Y-94741419D02*
X75281027Y-94741419D01*
X75281027Y-94741419D02*
X75281027Y-93741419D01*
X75281027Y-93741419D02*
X75614360Y-93741419D01*
X75614360Y-93741419D02*
X75709598Y-93789038D01*
X75709598Y-93789038D02*
X75757217Y-93836657D01*
X75757217Y-93836657D02*
X75804836Y-93931895D01*
X75804836Y-93931895D02*
X75804836Y-94027133D01*
X75804836Y-94027133D02*
X75757217Y-94122371D01*
X75757217Y-94122371D02*
X75709598Y-94169990D01*
X75709598Y-94169990D02*
X75614360Y-94217609D01*
X75614360Y-94217609D02*
X75281027Y-94217609D01*
X76804836Y-94741419D02*
X76233408Y-94741419D01*
X76519122Y-94741419D02*
X76519122Y-93741419D01*
X76519122Y-93741419D02*
X76423884Y-93884276D01*
X76423884Y-93884276D02*
X76328646Y-93979514D01*
X76328646Y-93979514D02*
X76233408Y-94027133D01*
X77757217Y-94741419D02*
X77185789Y-94741419D01*
X77471503Y-94741419D02*
X77471503Y-93741419D01*
X77471503Y-93741419D02*
X77376265Y-93884276D01*
X77376265Y-93884276D02*
X77281027Y-93979514D01*
X77281027Y-93979514D02*
X77185789Y-94027133D01*
X115156704Y-117726734D02*
X115156704Y-117250544D01*
X115442419Y-117821972D02*
X114442419Y-117488639D01*
X114442419Y-117488639D02*
X115442419Y-117155306D01*
X114442419Y-116345782D02*
X114442419Y-116821972D01*
X114442419Y-116821972D02*
X114918609Y-116869591D01*
X114918609Y-116869591D02*
X114870990Y-116821972D01*
X114870990Y-116821972D02*
X114823371Y-116726734D01*
X114823371Y-116726734D02*
X114823371Y-116488639D01*
X114823371Y-116488639D02*
X114870990Y-116393401D01*
X114870990Y-116393401D02*
X114918609Y-116345782D01*
X114918609Y-116345782D02*
X115013847Y-116298163D01*
X115013847Y-116298163D02*
X115251942Y-116298163D01*
X115251942Y-116298163D02*
X115347180Y-116345782D01*
X115347180Y-116345782D02*
X115394800Y-116393401D01*
X115394800Y-116393401D02*
X115442419Y-116488639D01*
X115442419Y-116488639D02*
X115442419Y-116726734D01*
X115442419Y-116726734D02*
X115394800Y-116821972D01*
X115394800Y-116821972D02*
X115347180Y-116869591D01*
X148131884Y-109711609D02*
X148465217Y-109711609D01*
X148608074Y-110235419D02*
X148131884Y-110235419D01*
X148131884Y-110235419D02*
X148131884Y-109235419D01*
X148131884Y-109235419D02*
X148608074Y-109235419D01*
X148989027Y-109330657D02*
X149036646Y-109283038D01*
X149036646Y-109283038D02*
X149131884Y-109235419D01*
X149131884Y-109235419D02*
X149369979Y-109235419D01*
X149369979Y-109235419D02*
X149465217Y-109283038D01*
X149465217Y-109283038D02*
X149512836Y-109330657D01*
X149512836Y-109330657D02*
X149560455Y-109425895D01*
X149560455Y-109425895D02*
X149560455Y-109521133D01*
X149560455Y-109521133D02*
X149512836Y-109663990D01*
X149512836Y-109663990D02*
X148941408Y-110235419D01*
X148941408Y-110235419D02*
X149560455Y-110235419D01*
X150227122Y-110568752D02*
X150227122Y-109140180D01*
X150941408Y-109711609D02*
X151274741Y-109711609D01*
X151417598Y-110235419D02*
X150941408Y-110235419D01*
X150941408Y-110235419D02*
X150941408Y-109235419D01*
X150941408Y-109235419D02*
X151417598Y-109235419D01*
X152274741Y-109568752D02*
X152274741Y-110235419D01*
X152036646Y-109187800D02*
X151798551Y-109902085D01*
X151798551Y-109902085D02*
X152417598Y-109902085D01*
X148338265Y-91933847D02*
X148604931Y-91933847D01*
X148719217Y-92352895D02*
X148338265Y-92352895D01*
X148338265Y-92352895D02*
X148338265Y-91552895D01*
X148338265Y-91552895D02*
X148719217Y-91552895D01*
X149176360Y-91895752D02*
X149100170Y-91857657D01*
X149100170Y-91857657D02*
X149062075Y-91819561D01*
X149062075Y-91819561D02*
X149023979Y-91743371D01*
X149023979Y-91743371D02*
X149023979Y-91705276D01*
X149023979Y-91705276D02*
X149062075Y-91629085D01*
X149062075Y-91629085D02*
X149100170Y-91590990D01*
X149100170Y-91590990D02*
X149176360Y-91552895D01*
X149176360Y-91552895D02*
X149328741Y-91552895D01*
X149328741Y-91552895D02*
X149404932Y-91590990D01*
X149404932Y-91590990D02*
X149443027Y-91629085D01*
X149443027Y-91629085D02*
X149481122Y-91705276D01*
X149481122Y-91705276D02*
X149481122Y-91743371D01*
X149481122Y-91743371D02*
X149443027Y-91819561D01*
X149443027Y-91819561D02*
X149404932Y-91857657D01*
X149404932Y-91857657D02*
X149328741Y-91895752D01*
X149328741Y-91895752D02*
X149176360Y-91895752D01*
X149176360Y-91895752D02*
X149100170Y-91933847D01*
X149100170Y-91933847D02*
X149062075Y-91971942D01*
X149062075Y-91971942D02*
X149023979Y-92048133D01*
X149023979Y-92048133D02*
X149023979Y-92200514D01*
X149023979Y-92200514D02*
X149062075Y-92276704D01*
X149062075Y-92276704D02*
X149100170Y-92314800D01*
X149100170Y-92314800D02*
X149176360Y-92352895D01*
X149176360Y-92352895D02*
X149328741Y-92352895D01*
X149328741Y-92352895D02*
X149404932Y-92314800D01*
X149404932Y-92314800D02*
X149443027Y-92276704D01*
X149443027Y-92276704D02*
X149481122Y-92200514D01*
X149481122Y-92200514D02*
X149481122Y-92048133D01*
X149481122Y-92048133D02*
X149443027Y-91971942D01*
X149443027Y-91971942D02*
X149404932Y-91933847D01*
X149404932Y-91933847D02*
X149328741Y-91895752D01*
X150014456Y-92619561D02*
X150014456Y-91476704D01*
X150585885Y-91933847D02*
X150852551Y-91933847D01*
X150966837Y-92352895D02*
X150585885Y-92352895D01*
X150585885Y-92352895D02*
X150585885Y-91552895D01*
X150585885Y-91552895D02*
X150966837Y-91552895D01*
X151728742Y-92352895D02*
X151271599Y-92352895D01*
X151500171Y-92352895D02*
X151500171Y-91552895D01*
X151500171Y-91552895D02*
X151423980Y-91667180D01*
X151423980Y-91667180D02*
X151347790Y-91743371D01*
X151347790Y-91743371D02*
X151271599Y-91781466D01*
X152490647Y-92352895D02*
X152033504Y-92352895D01*
X152262076Y-92352895D02*
X152262076Y-91552895D01*
X152262076Y-91552895D02*
X152185885Y-91667180D01*
X152185885Y-91667180D02*
X152109695Y-91743371D01*
X152109695Y-91743371D02*
X152033504Y-91781466D01*
X108219419Y-91294925D02*
X108219419Y-91771115D01*
X108219419Y-91771115D02*
X108695609Y-91818734D01*
X108695609Y-91818734D02*
X108647990Y-91771115D01*
X108647990Y-91771115D02*
X108600371Y-91675877D01*
X108600371Y-91675877D02*
X108600371Y-91437782D01*
X108600371Y-91437782D02*
X108647990Y-91342544D01*
X108647990Y-91342544D02*
X108695609Y-91294925D01*
X108695609Y-91294925D02*
X108790847Y-91247306D01*
X108790847Y-91247306D02*
X109028942Y-91247306D01*
X109028942Y-91247306D02*
X109124180Y-91294925D01*
X109124180Y-91294925D02*
X109171800Y-91342544D01*
X109171800Y-91342544D02*
X109219419Y-91437782D01*
X109219419Y-91437782D02*
X109219419Y-91675877D01*
X109219419Y-91675877D02*
X109171800Y-91771115D01*
X109171800Y-91771115D02*
X109124180Y-91818734D01*
X108219419Y-90961591D02*
X109219419Y-90628258D01*
X109219419Y-90628258D02*
X108219419Y-90294925D01*
X148131884Y-114791609D02*
X148465217Y-114791609D01*
X148608074Y-115315419D02*
X148131884Y-115315419D01*
X148131884Y-115315419D02*
X148131884Y-114315419D01*
X148131884Y-114315419D02*
X148608074Y-114315419D01*
X149560455Y-115315419D02*
X148989027Y-115315419D01*
X149274741Y-115315419D02*
X149274741Y-114315419D01*
X149274741Y-114315419D02*
X149179503Y-114458276D01*
X149179503Y-114458276D02*
X149084265Y-114553514D01*
X149084265Y-114553514D02*
X148989027Y-114601133D01*
X150227122Y-115648752D02*
X150227122Y-114220180D01*
X150941408Y-114791609D02*
X151274741Y-114791609D01*
X151417598Y-115315419D02*
X150941408Y-115315419D01*
X150941408Y-115315419D02*
X150941408Y-114315419D01*
X150941408Y-114315419D02*
X151417598Y-114315419D01*
X152274741Y-114315419D02*
X152084265Y-114315419D01*
X152084265Y-114315419D02*
X151989027Y-114363038D01*
X151989027Y-114363038D02*
X151941408Y-114410657D01*
X151941408Y-114410657D02*
X151846170Y-114553514D01*
X151846170Y-114553514D02*
X151798551Y-114743990D01*
X151798551Y-114743990D02*
X151798551Y-115124942D01*
X151798551Y-115124942D02*
X151846170Y-115220180D01*
X151846170Y-115220180D02*
X151893789Y-115267800D01*
X151893789Y-115267800D02*
X151989027Y-115315419D01*
X151989027Y-115315419D02*
X152179503Y-115315419D01*
X152179503Y-115315419D02*
X152274741Y-115267800D01*
X152274741Y-115267800D02*
X152322360Y-115220180D01*
X152322360Y-115220180D02*
X152369979Y-115124942D01*
X152369979Y-115124942D02*
X152369979Y-114886847D01*
X152369979Y-114886847D02*
X152322360Y-114791609D01*
X152322360Y-114791609D02*
X152274741Y-114743990D01*
X152274741Y-114743990D02*
X152179503Y-114696371D01*
X152179503Y-114696371D02*
X151989027Y-114696371D01*
X151989027Y-114696371D02*
X151893789Y-114743990D01*
X151893789Y-114743990D02*
X151846170Y-114791609D01*
X151846170Y-114791609D02*
X151798551Y-114886847D01*
D11*
X123798380Y-97323842D02*
X123979809Y-97384318D01*
X123979809Y-97384318D02*
X124282190Y-97384318D01*
X124282190Y-97384318D02*
X124403142Y-97323842D01*
X124403142Y-97323842D02*
X124463618Y-97263365D01*
X124463618Y-97263365D02*
X124524095Y-97142413D01*
X124524095Y-97142413D02*
X124524095Y-97021461D01*
X124524095Y-97021461D02*
X124463618Y-96900508D01*
X124463618Y-96900508D02*
X124403142Y-96840032D01*
X124403142Y-96840032D02*
X124282190Y-96779556D01*
X124282190Y-96779556D02*
X124040285Y-96719080D01*
X124040285Y-96719080D02*
X123919333Y-96658603D01*
X123919333Y-96658603D02*
X123858856Y-96598127D01*
X123858856Y-96598127D02*
X123798380Y-96477175D01*
X123798380Y-96477175D02*
X123798380Y-96356222D01*
X123798380Y-96356222D02*
X123858856Y-96235270D01*
X123858856Y-96235270D02*
X123919333Y-96174794D01*
X123919333Y-96174794D02*
X124040285Y-96114318D01*
X124040285Y-96114318D02*
X124342666Y-96114318D01*
X124342666Y-96114318D02*
X124524095Y-96174794D01*
X125673142Y-96114318D02*
X125068380Y-96114318D01*
X125068380Y-96114318D02*
X125007904Y-96719080D01*
X125007904Y-96719080D02*
X125068380Y-96658603D01*
X125068380Y-96658603D02*
X125189333Y-96598127D01*
X125189333Y-96598127D02*
X125491714Y-96598127D01*
X125491714Y-96598127D02*
X125612666Y-96658603D01*
X125612666Y-96658603D02*
X125673142Y-96719080D01*
X125673142Y-96719080D02*
X125733619Y-96840032D01*
X125733619Y-96840032D02*
X125733619Y-97142413D01*
X125733619Y-97142413D02*
X125673142Y-97263365D01*
X125673142Y-97263365D02*
X125612666Y-97323842D01*
X125612666Y-97323842D02*
X125491714Y-97384318D01*
X125491714Y-97384318D02*
X125189333Y-97384318D01*
X125189333Y-97384318D02*
X125068380Y-97323842D01*
X125068380Y-97323842D02*
X125007904Y-97263365D01*
X101896333Y-84902318D02*
X101291571Y-84902318D01*
X101291571Y-84902318D02*
X101291571Y-83632318D01*
X102984905Y-84902318D02*
X102259190Y-84902318D01*
X102622047Y-84902318D02*
X102622047Y-83632318D01*
X102622047Y-83632318D02*
X102501095Y-83813746D01*
X102501095Y-83813746D02*
X102380143Y-83934699D01*
X102380143Y-83934699D02*
X102259190Y-83995175D01*
D10*
X127110895Y-114433332D02*
X126729942Y-114699999D01*
X127110895Y-114890475D02*
X126310895Y-114890475D01*
X126310895Y-114890475D02*
X126310895Y-114585713D01*
X126310895Y-114585713D02*
X126348990Y-114509523D01*
X126348990Y-114509523D02*
X126387085Y-114471428D01*
X126387085Y-114471428D02*
X126463276Y-114433332D01*
X126463276Y-114433332D02*
X126577561Y-114433332D01*
X126577561Y-114433332D02*
X126653752Y-114471428D01*
X126653752Y-114471428D02*
X126691847Y-114509523D01*
X126691847Y-114509523D02*
X126729942Y-114585713D01*
X126729942Y-114585713D02*
X126729942Y-114890475D01*
X126310895Y-113747618D02*
X126310895Y-113899999D01*
X126310895Y-113899999D02*
X126348990Y-113976190D01*
X126348990Y-113976190D02*
X126387085Y-114014285D01*
X126387085Y-114014285D02*
X126501371Y-114090475D01*
X126501371Y-114090475D02*
X126653752Y-114128571D01*
X126653752Y-114128571D02*
X126958514Y-114128571D01*
X126958514Y-114128571D02*
X127034704Y-114090475D01*
X127034704Y-114090475D02*
X127072800Y-114052380D01*
X127072800Y-114052380D02*
X127110895Y-113976190D01*
X127110895Y-113976190D02*
X127110895Y-113823809D01*
X127110895Y-113823809D02*
X127072800Y-113747618D01*
X127072800Y-113747618D02*
X127034704Y-113709523D01*
X127034704Y-113709523D02*
X126958514Y-113671428D01*
X126958514Y-113671428D02*
X126768038Y-113671428D01*
X126768038Y-113671428D02*
X126691847Y-113709523D01*
X126691847Y-113709523D02*
X126653752Y-113747618D01*
X126653752Y-113747618D02*
X126615657Y-113823809D01*
X126615657Y-113823809D02*
X126615657Y-113976190D01*
X126615657Y-113976190D02*
X126653752Y-114052380D01*
X126653752Y-114052380D02*
X126691847Y-114090475D01*
X126691847Y-114090475D02*
X126768038Y-114128571D01*
D11*
X117353842Y-162680119D02*
X117414318Y-162498690D01*
X117414318Y-162498690D02*
X117414318Y-162196309D01*
X117414318Y-162196309D02*
X117353842Y-162075357D01*
X117353842Y-162075357D02*
X117293365Y-162014881D01*
X117293365Y-162014881D02*
X117172413Y-161954404D01*
X117172413Y-161954404D02*
X117051461Y-161954404D01*
X117051461Y-161954404D02*
X116930508Y-162014881D01*
X116930508Y-162014881D02*
X116870032Y-162075357D01*
X116870032Y-162075357D02*
X116809556Y-162196309D01*
X116809556Y-162196309D02*
X116749080Y-162438214D01*
X116749080Y-162438214D02*
X116688603Y-162559166D01*
X116688603Y-162559166D02*
X116628127Y-162619643D01*
X116628127Y-162619643D02*
X116507175Y-162680119D01*
X116507175Y-162680119D02*
X116386222Y-162680119D01*
X116386222Y-162680119D02*
X116265270Y-162619643D01*
X116265270Y-162619643D02*
X116204794Y-162559166D01*
X116204794Y-162559166D02*
X116144318Y-162438214D01*
X116144318Y-162438214D02*
X116144318Y-162135833D01*
X116144318Y-162135833D02*
X116204794Y-161954404D01*
X116144318Y-161531071D02*
X116144318Y-160744880D01*
X116144318Y-160744880D02*
X116628127Y-161168214D01*
X116628127Y-161168214D02*
X116628127Y-160986785D01*
X116628127Y-160986785D02*
X116688603Y-160865833D01*
X116688603Y-160865833D02*
X116749080Y-160805357D01*
X116749080Y-160805357D02*
X116870032Y-160744880D01*
X116870032Y-160744880D02*
X117172413Y-160744880D01*
X117172413Y-160744880D02*
X117293365Y-160805357D01*
X117293365Y-160805357D02*
X117353842Y-160865833D01*
X117353842Y-160865833D02*
X117414318Y-160986785D01*
X117414318Y-160986785D02*
X117414318Y-161349642D01*
X117414318Y-161349642D02*
X117353842Y-161470595D01*
X117353842Y-161470595D02*
X117293365Y-161531071D01*
D10*
X111235895Y-114560332D02*
X110854942Y-114826999D01*
X111235895Y-115017475D02*
X110435895Y-115017475D01*
X110435895Y-115017475D02*
X110435895Y-114712713D01*
X110435895Y-114712713D02*
X110473990Y-114636523D01*
X110473990Y-114636523D02*
X110512085Y-114598428D01*
X110512085Y-114598428D02*
X110588276Y-114560332D01*
X110588276Y-114560332D02*
X110702561Y-114560332D01*
X110702561Y-114560332D02*
X110778752Y-114598428D01*
X110778752Y-114598428D02*
X110816847Y-114636523D01*
X110816847Y-114636523D02*
X110854942Y-114712713D01*
X110854942Y-114712713D02*
X110854942Y-115017475D01*
X110702561Y-113874618D02*
X111235895Y-113874618D01*
X110397800Y-114065094D02*
X110969228Y-114255571D01*
X110969228Y-114255571D02*
X110969228Y-113760332D01*
X129152667Y-87232895D02*
X128886000Y-86851942D01*
X128695524Y-87232895D02*
X128695524Y-86432895D01*
X128695524Y-86432895D02*
X129000286Y-86432895D01*
X129000286Y-86432895D02*
X129076476Y-86470990D01*
X129076476Y-86470990D02*
X129114571Y-86509085D01*
X129114571Y-86509085D02*
X129152667Y-86585276D01*
X129152667Y-86585276D02*
X129152667Y-86699561D01*
X129152667Y-86699561D02*
X129114571Y-86775752D01*
X129114571Y-86775752D02*
X129076476Y-86813847D01*
X129076476Y-86813847D02*
X129000286Y-86851942D01*
X129000286Y-86851942D02*
X128695524Y-86851942D01*
X129457428Y-86509085D02*
X129495524Y-86470990D01*
X129495524Y-86470990D02*
X129571714Y-86432895D01*
X129571714Y-86432895D02*
X129762190Y-86432895D01*
X129762190Y-86432895D02*
X129838381Y-86470990D01*
X129838381Y-86470990D02*
X129876476Y-86509085D01*
X129876476Y-86509085D02*
X129914571Y-86585276D01*
X129914571Y-86585276D02*
X129914571Y-86661466D01*
X129914571Y-86661466D02*
X129876476Y-86775752D01*
X129876476Y-86775752D02*
X129419333Y-87232895D01*
X129419333Y-87232895D02*
X129914571Y-87232895D01*
X111710895Y-160915332D02*
X111329942Y-161181999D01*
X111710895Y-161372475D02*
X110910895Y-161372475D01*
X110910895Y-161372475D02*
X110910895Y-161067713D01*
X110910895Y-161067713D02*
X110948990Y-160991523D01*
X110948990Y-160991523D02*
X110987085Y-160953428D01*
X110987085Y-160953428D02*
X111063276Y-160915332D01*
X111063276Y-160915332D02*
X111177561Y-160915332D01*
X111177561Y-160915332D02*
X111253752Y-160953428D01*
X111253752Y-160953428D02*
X111291847Y-160991523D01*
X111291847Y-160991523D02*
X111329942Y-161067713D01*
X111329942Y-161067713D02*
X111329942Y-161372475D01*
X111710895Y-160534380D02*
X111710895Y-160381999D01*
X111710895Y-160381999D02*
X111672800Y-160305809D01*
X111672800Y-160305809D02*
X111634704Y-160267713D01*
X111634704Y-160267713D02*
X111520419Y-160191523D01*
X111520419Y-160191523D02*
X111368038Y-160153428D01*
X111368038Y-160153428D02*
X111063276Y-160153428D01*
X111063276Y-160153428D02*
X110987085Y-160191523D01*
X110987085Y-160191523D02*
X110948990Y-160229618D01*
X110948990Y-160229618D02*
X110910895Y-160305809D01*
X110910895Y-160305809D02*
X110910895Y-160458190D01*
X110910895Y-160458190D02*
X110948990Y-160534380D01*
X110948990Y-160534380D02*
X110987085Y-160572475D01*
X110987085Y-160572475D02*
X111063276Y-160610571D01*
X111063276Y-160610571D02*
X111253752Y-160610571D01*
X111253752Y-160610571D02*
X111329942Y-160572475D01*
X111329942Y-160572475D02*
X111368038Y-160534380D01*
X111368038Y-160534380D02*
X111406133Y-160458190D01*
X111406133Y-160458190D02*
X111406133Y-160305809D01*
X111406133Y-160305809D02*
X111368038Y-160229618D01*
X111368038Y-160229618D02*
X111329942Y-160191523D01*
X111329942Y-160191523D02*
X111253752Y-160153428D01*
D11*
X138943842Y-162426619D02*
X139004318Y-162245190D01*
X139004318Y-162245190D02*
X139004318Y-161942809D01*
X139004318Y-161942809D02*
X138943842Y-161821857D01*
X138943842Y-161821857D02*
X138883365Y-161761381D01*
X138883365Y-161761381D02*
X138762413Y-161700904D01*
X138762413Y-161700904D02*
X138641461Y-161700904D01*
X138641461Y-161700904D02*
X138520508Y-161761381D01*
X138520508Y-161761381D02*
X138460032Y-161821857D01*
X138460032Y-161821857D02*
X138399556Y-161942809D01*
X138399556Y-161942809D02*
X138339080Y-162184714D01*
X138339080Y-162184714D02*
X138278603Y-162305666D01*
X138278603Y-162305666D02*
X138218127Y-162366143D01*
X138218127Y-162366143D02*
X138097175Y-162426619D01*
X138097175Y-162426619D02*
X137976222Y-162426619D01*
X137976222Y-162426619D02*
X137855270Y-162366143D01*
X137855270Y-162366143D02*
X137794794Y-162305666D01*
X137794794Y-162305666D02*
X137734318Y-162184714D01*
X137734318Y-162184714D02*
X137734318Y-161882333D01*
X137734318Y-161882333D02*
X137794794Y-161700904D01*
X139004318Y-160491380D02*
X139004318Y-161217095D01*
X139004318Y-160854238D02*
X137734318Y-160854238D01*
X137734318Y-160854238D02*
X137915746Y-160975190D01*
X137915746Y-160975190D02*
X138036699Y-161096142D01*
X138036699Y-161096142D02*
X138097175Y-161217095D01*
D10*
X133554895Y-160915332D02*
X133173942Y-161181999D01*
X133554895Y-161372475D02*
X132754895Y-161372475D01*
X132754895Y-161372475D02*
X132754895Y-161067713D01*
X132754895Y-161067713D02*
X132792990Y-160991523D01*
X132792990Y-160991523D02*
X132831085Y-160953428D01*
X132831085Y-160953428D02*
X132907276Y-160915332D01*
X132907276Y-160915332D02*
X133021561Y-160915332D01*
X133021561Y-160915332D02*
X133097752Y-160953428D01*
X133097752Y-160953428D02*
X133135847Y-160991523D01*
X133135847Y-160991523D02*
X133173942Y-161067713D01*
X133173942Y-161067713D02*
X133173942Y-161372475D01*
X132754895Y-160648666D02*
X132754895Y-160115332D01*
X132754895Y-160115332D02*
X133554895Y-160458190D01*
D12*
X159235476Y-101767819D02*
X159235476Y-102482104D01*
X159235476Y-102482104D02*
X159187857Y-102624961D01*
X159187857Y-102624961D02*
X159092619Y-102720200D01*
X159092619Y-102720200D02*
X158949762Y-102767819D01*
X158949762Y-102767819D02*
X158854524Y-102767819D01*
X160235476Y-102767819D02*
X159664048Y-102767819D01*
X159949762Y-102767819D02*
X159949762Y-101767819D01*
X159949762Y-101767819D02*
X159854524Y-101910676D01*
X159854524Y-101910676D02*
X159759286Y-102005914D01*
X159759286Y-102005914D02*
X159664048Y-102053533D01*
X160616429Y-101863057D02*
X160664048Y-101815438D01*
X160664048Y-101815438D02*
X160759286Y-101767819D01*
X160759286Y-101767819D02*
X160997381Y-101767819D01*
X160997381Y-101767819D02*
X161092619Y-101815438D01*
X161092619Y-101815438D02*
X161140238Y-101863057D01*
X161140238Y-101863057D02*
X161187857Y-101958295D01*
X161187857Y-101958295D02*
X161187857Y-102053533D01*
X161187857Y-102053533D02*
X161140238Y-102196390D01*
X161140238Y-102196390D02*
X160568810Y-102767819D01*
X160568810Y-102767819D02*
X161187857Y-102767819D01*
D10*
X119617895Y-114560332D02*
X119236942Y-114826999D01*
X119617895Y-115017475D02*
X118817895Y-115017475D01*
X118817895Y-115017475D02*
X118817895Y-114712713D01*
X118817895Y-114712713D02*
X118855990Y-114636523D01*
X118855990Y-114636523D02*
X118894085Y-114598428D01*
X118894085Y-114598428D02*
X118970276Y-114560332D01*
X118970276Y-114560332D02*
X119084561Y-114560332D01*
X119084561Y-114560332D02*
X119160752Y-114598428D01*
X119160752Y-114598428D02*
X119198847Y-114636523D01*
X119198847Y-114636523D02*
X119236942Y-114712713D01*
X119236942Y-114712713D02*
X119236942Y-115017475D01*
X118817895Y-113836523D02*
X118817895Y-114217475D01*
X118817895Y-114217475D02*
X119198847Y-114255571D01*
X119198847Y-114255571D02*
X119160752Y-114217475D01*
X119160752Y-114217475D02*
X119122657Y-114141285D01*
X119122657Y-114141285D02*
X119122657Y-113950809D01*
X119122657Y-113950809D02*
X119160752Y-113874618D01*
X119160752Y-113874618D02*
X119198847Y-113836523D01*
X119198847Y-113836523D02*
X119275038Y-113798428D01*
X119275038Y-113798428D02*
X119465514Y-113798428D01*
X119465514Y-113798428D02*
X119541704Y-113836523D01*
X119541704Y-113836523D02*
X119579800Y-113874618D01*
X119579800Y-113874618D02*
X119617895Y-113950809D01*
X119617895Y-113950809D02*
X119617895Y-114141285D01*
X119617895Y-114141285D02*
X119579800Y-114217475D01*
X119579800Y-114217475D02*
X119541704Y-114255571D01*
D12*
X159711666Y-124652819D02*
X159711666Y-125367104D01*
X159711666Y-125367104D02*
X159664047Y-125509961D01*
X159664047Y-125509961D02*
X159568809Y-125605200D01*
X159568809Y-125605200D02*
X159425952Y-125652819D01*
X159425952Y-125652819D02*
X159330714Y-125652819D01*
X160711666Y-125652819D02*
X160140238Y-125652819D01*
X160425952Y-125652819D02*
X160425952Y-124652819D01*
X160425952Y-124652819D02*
X160330714Y-124795676D01*
X160330714Y-124795676D02*
X160235476Y-124890914D01*
X160235476Y-124890914D02*
X160140238Y-124938533D01*
D10*
X124193333Y-78050895D02*
X124193333Y-78622323D01*
X124193333Y-78622323D02*
X124155238Y-78736609D01*
X124155238Y-78736609D02*
X124079047Y-78812800D01*
X124079047Y-78812800D02*
X123964762Y-78850895D01*
X123964762Y-78850895D02*
X123888571Y-78850895D01*
X124688571Y-78393752D02*
X124612381Y-78355657D01*
X124612381Y-78355657D02*
X124574286Y-78317561D01*
X124574286Y-78317561D02*
X124536190Y-78241371D01*
X124536190Y-78241371D02*
X124536190Y-78203276D01*
X124536190Y-78203276D02*
X124574286Y-78127085D01*
X124574286Y-78127085D02*
X124612381Y-78088990D01*
X124612381Y-78088990D02*
X124688571Y-78050895D01*
X124688571Y-78050895D02*
X124840952Y-78050895D01*
X124840952Y-78050895D02*
X124917143Y-78088990D01*
X124917143Y-78088990D02*
X124955238Y-78127085D01*
X124955238Y-78127085D02*
X124993333Y-78203276D01*
X124993333Y-78203276D02*
X124993333Y-78241371D01*
X124993333Y-78241371D02*
X124955238Y-78317561D01*
X124955238Y-78317561D02*
X124917143Y-78355657D01*
X124917143Y-78355657D02*
X124840952Y-78393752D01*
X124840952Y-78393752D02*
X124688571Y-78393752D01*
X124688571Y-78393752D02*
X124612381Y-78431847D01*
X124612381Y-78431847D02*
X124574286Y-78469942D01*
X124574286Y-78469942D02*
X124536190Y-78546133D01*
X124536190Y-78546133D02*
X124536190Y-78698514D01*
X124536190Y-78698514D02*
X124574286Y-78774704D01*
X124574286Y-78774704D02*
X124612381Y-78812800D01*
X124612381Y-78812800D02*
X124688571Y-78850895D01*
X124688571Y-78850895D02*
X124840952Y-78850895D01*
X124840952Y-78850895D02*
X124917143Y-78812800D01*
X124917143Y-78812800D02*
X124955238Y-78774704D01*
X124955238Y-78774704D02*
X124993333Y-78698514D01*
X124993333Y-78698514D02*
X124993333Y-78546133D01*
X124993333Y-78546133D02*
X124955238Y-78469942D01*
X124955238Y-78469942D02*
X124917143Y-78431847D01*
X124917143Y-78431847D02*
X124840952Y-78393752D01*
D11*
X106177842Y-162511619D02*
X106238318Y-162330190D01*
X106238318Y-162330190D02*
X106238318Y-162027809D01*
X106238318Y-162027809D02*
X106177842Y-161906857D01*
X106177842Y-161906857D02*
X106117365Y-161846381D01*
X106117365Y-161846381D02*
X105996413Y-161785904D01*
X105996413Y-161785904D02*
X105875461Y-161785904D01*
X105875461Y-161785904D02*
X105754508Y-161846381D01*
X105754508Y-161846381D02*
X105694032Y-161906857D01*
X105694032Y-161906857D02*
X105633556Y-162027809D01*
X105633556Y-162027809D02*
X105573080Y-162269714D01*
X105573080Y-162269714D02*
X105512603Y-162390666D01*
X105512603Y-162390666D02*
X105452127Y-162451143D01*
X105452127Y-162451143D02*
X105331175Y-162511619D01*
X105331175Y-162511619D02*
X105210222Y-162511619D01*
X105210222Y-162511619D02*
X105089270Y-162451143D01*
X105089270Y-162451143D02*
X105028794Y-162390666D01*
X105028794Y-162390666D02*
X104968318Y-162269714D01*
X104968318Y-162269714D02*
X104968318Y-161967333D01*
X104968318Y-161967333D02*
X105028794Y-161785904D01*
X105391651Y-160697333D02*
X106238318Y-160697333D01*
X104907842Y-160999714D02*
X105814984Y-161302095D01*
X105814984Y-161302095D02*
X105814984Y-160515904D01*
X94010237Y-82108318D02*
X94010237Y-80838318D01*
X95340714Y-81987365D02*
X95280238Y-82047842D01*
X95280238Y-82047842D02*
X95098809Y-82108318D01*
X95098809Y-82108318D02*
X94977857Y-82108318D01*
X94977857Y-82108318D02*
X94796428Y-82047842D01*
X94796428Y-82047842D02*
X94675476Y-81926889D01*
X94675476Y-81926889D02*
X94614999Y-81805937D01*
X94614999Y-81805937D02*
X94554523Y-81564032D01*
X94554523Y-81564032D02*
X94554523Y-81382603D01*
X94554523Y-81382603D02*
X94614999Y-81140699D01*
X94614999Y-81140699D02*
X94675476Y-81019746D01*
X94675476Y-81019746D02*
X94796428Y-80898794D01*
X94796428Y-80898794D02*
X94977857Y-80838318D01*
X94977857Y-80838318D02*
X95098809Y-80838318D01*
X95098809Y-80838318D02*
X95280238Y-80898794D01*
X95280238Y-80898794D02*
X95340714Y-80959270D01*
X96550238Y-82108318D02*
X95824523Y-82108318D01*
X96187380Y-82108318D02*
X96187380Y-80838318D01*
X96187380Y-80838318D02*
X96066428Y-81019746D01*
X96066428Y-81019746D02*
X95945476Y-81140699D01*
X95945476Y-81140699D02*
X95824523Y-81201175D01*
D12*
X63358666Y-106158819D02*
X63358666Y-106873104D01*
X63358666Y-106873104D02*
X63311047Y-107015961D01*
X63311047Y-107015961D02*
X63215809Y-107111200D01*
X63215809Y-107111200D02*
X63072952Y-107158819D01*
X63072952Y-107158819D02*
X62977714Y-107158819D01*
X64311047Y-106158819D02*
X63834857Y-106158819D01*
X63834857Y-106158819D02*
X63787238Y-106635009D01*
X63787238Y-106635009D02*
X63834857Y-106587390D01*
X63834857Y-106587390D02*
X63930095Y-106539771D01*
X63930095Y-106539771D02*
X64168190Y-106539771D01*
X64168190Y-106539771D02*
X64263428Y-106587390D01*
X64263428Y-106587390D02*
X64311047Y-106635009D01*
X64311047Y-106635009D02*
X64358666Y-106730247D01*
X64358666Y-106730247D02*
X64358666Y-106968342D01*
X64358666Y-106968342D02*
X64311047Y-107063580D01*
X64311047Y-107063580D02*
X64263428Y-107111200D01*
X64263428Y-107111200D02*
X64168190Y-107158819D01*
X64168190Y-107158819D02*
X63930095Y-107158819D01*
X63930095Y-107158819D02*
X63834857Y-107111200D01*
X63834857Y-107111200D02*
X63787238Y-107063580D01*
D10*
X135555380Y-149772895D02*
X135555380Y-150344323D01*
X135555380Y-150344323D02*
X135517285Y-150458609D01*
X135517285Y-150458609D02*
X135441094Y-150534800D01*
X135441094Y-150534800D02*
X135326809Y-150572895D01*
X135326809Y-150572895D02*
X135250618Y-150572895D01*
X136355380Y-150572895D02*
X135898237Y-150572895D01*
X136126809Y-150572895D02*
X136126809Y-149772895D01*
X136126809Y-149772895D02*
X136050618Y-149887180D01*
X136050618Y-149887180D02*
X135974428Y-149963371D01*
X135974428Y-149963371D02*
X135898237Y-150001466D01*
X137041095Y-150039561D02*
X137041095Y-150572895D01*
X136850619Y-149734800D02*
X136660142Y-150306228D01*
X136660142Y-150306228D02*
X137155381Y-150306228D01*
D12*
X82042095Y-83909819D02*
X82042095Y-84719342D01*
X82042095Y-84719342D02*
X82089714Y-84814580D01*
X82089714Y-84814580D02*
X82137333Y-84862200D01*
X82137333Y-84862200D02*
X82232571Y-84909819D01*
X82232571Y-84909819D02*
X82423047Y-84909819D01*
X82423047Y-84909819D02*
X82518285Y-84862200D01*
X82518285Y-84862200D02*
X82565904Y-84814580D01*
X82565904Y-84814580D02*
X82613523Y-84719342D01*
X82613523Y-84719342D02*
X82613523Y-83909819D01*
X83613523Y-84909819D02*
X83042095Y-84909819D01*
X83327809Y-84909819D02*
X83327809Y-83909819D01*
X83327809Y-83909819D02*
X83232571Y-84052676D01*
X83232571Y-84052676D02*
X83137333Y-84147914D01*
X83137333Y-84147914D02*
X83042095Y-84195533D01*
D10*
X141188169Y-149922085D02*
X141226265Y-149883990D01*
X141226265Y-149883990D02*
X141302455Y-149845895D01*
X141302455Y-149845895D02*
X141492931Y-149845895D01*
X141492931Y-149845895D02*
X141569122Y-149883990D01*
X141569122Y-149883990D02*
X141607217Y-149922085D01*
X141607217Y-149922085D02*
X141645312Y-149998276D01*
X141645312Y-149998276D02*
X141645312Y-150074466D01*
X141645312Y-150074466D02*
X141607217Y-150188752D01*
X141607217Y-150188752D02*
X141150074Y-150645895D01*
X141150074Y-150645895D02*
X141645312Y-150645895D01*
X145760122Y-84326561D02*
X145760122Y-84859895D01*
X145569646Y-84021800D02*
X145379169Y-84593228D01*
X145379169Y-84593228D02*
X145874408Y-84593228D01*
X146217265Y-84859895D02*
X146369646Y-84859895D01*
X146369646Y-84859895D02*
X146445836Y-84821800D01*
X146445836Y-84821800D02*
X146483932Y-84783704D01*
X146483932Y-84783704D02*
X146560122Y-84669419D01*
X146560122Y-84669419D02*
X146598217Y-84517038D01*
X146598217Y-84517038D02*
X146598217Y-84212276D01*
X146598217Y-84212276D02*
X146560122Y-84136085D01*
X146560122Y-84136085D02*
X146522027Y-84097990D01*
X146522027Y-84097990D02*
X146445836Y-84059895D01*
X146445836Y-84059895D02*
X146293455Y-84059895D01*
X146293455Y-84059895D02*
X146217265Y-84097990D01*
X146217265Y-84097990D02*
X146179170Y-84136085D01*
X146179170Y-84136085D02*
X146141074Y-84212276D01*
X146141074Y-84212276D02*
X146141074Y-84402752D01*
X146141074Y-84402752D02*
X146179170Y-84478942D01*
X146179170Y-84478942D02*
X146217265Y-84517038D01*
X146217265Y-84517038D02*
X146293455Y-84555133D01*
X146293455Y-84555133D02*
X146445836Y-84555133D01*
X146445836Y-84555133D02*
X146522027Y-84517038D01*
X146522027Y-84517038D02*
X146560122Y-84478942D01*
X146560122Y-84478942D02*
X146598217Y-84402752D01*
X83987312Y-150391895D02*
X83530169Y-150391895D01*
X83758741Y-150391895D02*
X83758741Y-149591895D01*
X83758741Y-149591895D02*
X83682550Y-149706180D01*
X83682550Y-149706180D02*
X83606360Y-149782371D01*
X83606360Y-149782371D02*
X83530169Y-149820466D01*
X84482551Y-149591895D02*
X84558741Y-149591895D01*
X84558741Y-149591895D02*
X84634932Y-149629990D01*
X84634932Y-149629990D02*
X84673027Y-149668085D01*
X84673027Y-149668085D02*
X84711122Y-149744276D01*
X84711122Y-149744276D02*
X84749217Y-149896657D01*
X84749217Y-149896657D02*
X84749217Y-150087133D01*
X84749217Y-150087133D02*
X84711122Y-150239514D01*
X84711122Y-150239514D02*
X84673027Y-150315704D01*
X84673027Y-150315704D02*
X84634932Y-150353800D01*
X84634932Y-150353800D02*
X84558741Y-150391895D01*
X84558741Y-150391895D02*
X84482551Y-150391895D01*
X84482551Y-150391895D02*
X84406360Y-150353800D01*
X84406360Y-150353800D02*
X84368265Y-150315704D01*
X84368265Y-150315704D02*
X84330170Y-150239514D01*
X84330170Y-150239514D02*
X84292074Y-150087133D01*
X84292074Y-150087133D02*
X84292074Y-149896657D01*
X84292074Y-149896657D02*
X84330170Y-149744276D01*
X84330170Y-149744276D02*
X84368265Y-149668085D01*
X84368265Y-149668085D02*
X84406360Y-149629990D01*
X84406360Y-149629990D02*
X84482551Y-149591895D01*
X85244456Y-149591895D02*
X85320646Y-149591895D01*
X85320646Y-149591895D02*
X85396837Y-149629990D01*
X85396837Y-149629990D02*
X85434932Y-149668085D01*
X85434932Y-149668085D02*
X85473027Y-149744276D01*
X85473027Y-149744276D02*
X85511122Y-149896657D01*
X85511122Y-149896657D02*
X85511122Y-150087133D01*
X85511122Y-150087133D02*
X85473027Y-150239514D01*
X85473027Y-150239514D02*
X85434932Y-150315704D01*
X85434932Y-150315704D02*
X85396837Y-150353800D01*
X85396837Y-150353800D02*
X85320646Y-150391895D01*
X85320646Y-150391895D02*
X85244456Y-150391895D01*
X85244456Y-150391895D02*
X85168265Y-150353800D01*
X85168265Y-150353800D02*
X85130170Y-150315704D01*
X85130170Y-150315704D02*
X85092075Y-150239514D01*
X85092075Y-150239514D02*
X85053979Y-150087133D01*
X85053979Y-150087133D02*
X85053979Y-149896657D01*
X85053979Y-149896657D02*
X85092075Y-149744276D01*
X85092075Y-149744276D02*
X85130170Y-149668085D01*
X85130170Y-149668085D02*
X85168265Y-149629990D01*
X85168265Y-149629990D02*
X85244456Y-149591895D01*
X140845217Y-84059895D02*
X140464265Y-84059895D01*
X140464265Y-84059895D02*
X140426169Y-84440847D01*
X140426169Y-84440847D02*
X140464265Y-84402752D01*
X140464265Y-84402752D02*
X140540455Y-84364657D01*
X140540455Y-84364657D02*
X140730931Y-84364657D01*
X140730931Y-84364657D02*
X140807122Y-84402752D01*
X140807122Y-84402752D02*
X140845217Y-84440847D01*
X140845217Y-84440847D02*
X140883312Y-84517038D01*
X140883312Y-84517038D02*
X140883312Y-84707514D01*
X140883312Y-84707514D02*
X140845217Y-84783704D01*
X140845217Y-84783704D02*
X140807122Y-84821800D01*
X140807122Y-84821800D02*
X140730931Y-84859895D01*
X140730931Y-84859895D02*
X140540455Y-84859895D01*
X140540455Y-84859895D02*
X140464265Y-84821800D01*
X140464265Y-84821800D02*
X140426169Y-84783704D01*
X141378551Y-84059895D02*
X141454741Y-84059895D01*
X141454741Y-84059895D02*
X141530932Y-84097990D01*
X141530932Y-84097990D02*
X141569027Y-84136085D01*
X141569027Y-84136085D02*
X141607122Y-84212276D01*
X141607122Y-84212276D02*
X141645217Y-84364657D01*
X141645217Y-84364657D02*
X141645217Y-84555133D01*
X141645217Y-84555133D02*
X141607122Y-84707514D01*
X141607122Y-84707514D02*
X141569027Y-84783704D01*
X141569027Y-84783704D02*
X141530932Y-84821800D01*
X141530932Y-84821800D02*
X141454741Y-84859895D01*
X141454741Y-84859895D02*
X141378551Y-84859895D01*
X141378551Y-84859895D02*
X141302360Y-84821800D01*
X141302360Y-84821800D02*
X141264265Y-84783704D01*
X141264265Y-84783704D02*
X141226170Y-84707514D01*
X141226170Y-84707514D02*
X141188074Y-84555133D01*
X141188074Y-84555133D02*
X141188074Y-84364657D01*
X141188074Y-84364657D02*
X141226170Y-84212276D01*
X141226170Y-84212276D02*
X141264265Y-84136085D01*
X141264265Y-84136085D02*
X141302360Y-84097990D01*
X141302360Y-84097990D02*
X141378551Y-84059895D01*
X146090312Y-150645895D02*
X145633169Y-150645895D01*
X145861741Y-150645895D02*
X145861741Y-149845895D01*
X145861741Y-149845895D02*
X145785550Y-149960180D01*
X145785550Y-149960180D02*
X145709360Y-150036371D01*
X145709360Y-150036371D02*
X145633169Y-150074466D01*
X78145360Y-150391895D02*
X78297741Y-150391895D01*
X78297741Y-150391895D02*
X78373931Y-150353800D01*
X78373931Y-150353800D02*
X78412027Y-150315704D01*
X78412027Y-150315704D02*
X78488217Y-150201419D01*
X78488217Y-150201419D02*
X78526312Y-150049038D01*
X78526312Y-150049038D02*
X78526312Y-149744276D01*
X78526312Y-149744276D02*
X78488217Y-149668085D01*
X78488217Y-149668085D02*
X78450122Y-149629990D01*
X78450122Y-149629990D02*
X78373931Y-149591895D01*
X78373931Y-149591895D02*
X78221550Y-149591895D01*
X78221550Y-149591895D02*
X78145360Y-149629990D01*
X78145360Y-149629990D02*
X78107265Y-149668085D01*
X78107265Y-149668085D02*
X78069169Y-149744276D01*
X78069169Y-149744276D02*
X78069169Y-149934752D01*
X78069169Y-149934752D02*
X78107265Y-150010942D01*
X78107265Y-150010942D02*
X78145360Y-150049038D01*
X78145360Y-150049038D02*
X78221550Y-150087133D01*
X78221550Y-150087133D02*
X78373931Y-150087133D01*
X78373931Y-150087133D02*
X78450122Y-150049038D01*
X78450122Y-150049038D02*
X78488217Y-150010942D01*
X78488217Y-150010942D02*
X78526312Y-149934752D01*
X78907265Y-150391895D02*
X79059646Y-150391895D01*
X79059646Y-150391895D02*
X79135836Y-150353800D01*
X79135836Y-150353800D02*
X79173932Y-150315704D01*
X79173932Y-150315704D02*
X79250122Y-150201419D01*
X79250122Y-150201419D02*
X79288217Y-150049038D01*
X79288217Y-150049038D02*
X79288217Y-149744276D01*
X79288217Y-149744276D02*
X79250122Y-149668085D01*
X79250122Y-149668085D02*
X79212027Y-149629990D01*
X79212027Y-149629990D02*
X79135836Y-149591895D01*
X79135836Y-149591895D02*
X78983455Y-149591895D01*
X78983455Y-149591895D02*
X78907265Y-149629990D01*
X78907265Y-149629990D02*
X78869170Y-149668085D01*
X78869170Y-149668085D02*
X78831074Y-149744276D01*
X78831074Y-149744276D02*
X78831074Y-149934752D01*
X78831074Y-149934752D02*
X78869170Y-150010942D01*
X78869170Y-150010942D02*
X78907265Y-150049038D01*
X78907265Y-150049038D02*
X78983455Y-150087133D01*
X78983455Y-150087133D02*
X79135836Y-150087133D01*
X79135836Y-150087133D02*
X79212027Y-150049038D01*
X79212027Y-150049038D02*
X79250122Y-150010942D01*
X79250122Y-150010942D02*
X79288217Y-149934752D01*
X84457217Y-84313895D02*
X84076265Y-84313895D01*
X84076265Y-84313895D02*
X84038169Y-84694847D01*
X84038169Y-84694847D02*
X84076265Y-84656752D01*
X84076265Y-84656752D02*
X84152455Y-84618657D01*
X84152455Y-84618657D02*
X84342931Y-84618657D01*
X84342931Y-84618657D02*
X84419122Y-84656752D01*
X84419122Y-84656752D02*
X84457217Y-84694847D01*
X84457217Y-84694847D02*
X84495312Y-84771038D01*
X84495312Y-84771038D02*
X84495312Y-84961514D01*
X84495312Y-84961514D02*
X84457217Y-85037704D01*
X84457217Y-85037704D02*
X84419122Y-85075800D01*
X84419122Y-85075800D02*
X84342931Y-85113895D01*
X84342931Y-85113895D02*
X84152455Y-85113895D01*
X84152455Y-85113895D02*
X84076265Y-85075800D01*
X84076265Y-85075800D02*
X84038169Y-85037704D01*
X84800074Y-84390085D02*
X84838170Y-84351990D01*
X84838170Y-84351990D02*
X84914360Y-84313895D01*
X84914360Y-84313895D02*
X85104836Y-84313895D01*
X85104836Y-84313895D02*
X85181027Y-84351990D01*
X85181027Y-84351990D02*
X85219122Y-84390085D01*
X85219122Y-84390085D02*
X85257217Y-84466276D01*
X85257217Y-84466276D02*
X85257217Y-84542466D01*
X85257217Y-84542466D02*
X85219122Y-84656752D01*
X85219122Y-84656752D02*
X84761979Y-85113895D01*
X84761979Y-85113895D02*
X85257217Y-85113895D01*
X77980217Y-84186895D02*
X77599265Y-84186895D01*
X77599265Y-84186895D02*
X77561169Y-84567847D01*
X77561169Y-84567847D02*
X77599265Y-84529752D01*
X77599265Y-84529752D02*
X77675455Y-84491657D01*
X77675455Y-84491657D02*
X77865931Y-84491657D01*
X77865931Y-84491657D02*
X77942122Y-84529752D01*
X77942122Y-84529752D02*
X77980217Y-84567847D01*
X77980217Y-84567847D02*
X78018312Y-84644038D01*
X78018312Y-84644038D02*
X78018312Y-84834514D01*
X78018312Y-84834514D02*
X77980217Y-84910704D01*
X77980217Y-84910704D02*
X77942122Y-84948800D01*
X77942122Y-84948800D02*
X77865931Y-84986895D01*
X77865931Y-84986895D02*
X77675455Y-84986895D01*
X77675455Y-84986895D02*
X77599265Y-84948800D01*
X77599265Y-84948800D02*
X77561169Y-84910704D01*
X78780217Y-84986895D02*
X78323074Y-84986895D01*
X78551646Y-84986895D02*
X78551646Y-84186895D01*
X78551646Y-84186895D02*
X78475455Y-84301180D01*
X78475455Y-84301180D02*
X78399265Y-84377371D01*
X78399265Y-84377371D02*
X78323074Y-84415466D01*
X100788895Y-161296285D02*
X100407942Y-161562952D01*
X100788895Y-161753428D02*
X99988895Y-161753428D01*
X99988895Y-161753428D02*
X99988895Y-161448666D01*
X99988895Y-161448666D02*
X100026990Y-161372476D01*
X100026990Y-161372476D02*
X100065085Y-161334381D01*
X100065085Y-161334381D02*
X100141276Y-161296285D01*
X100141276Y-161296285D02*
X100255561Y-161296285D01*
X100255561Y-161296285D02*
X100331752Y-161334381D01*
X100331752Y-161334381D02*
X100369847Y-161372476D01*
X100369847Y-161372476D02*
X100407942Y-161448666D01*
X100407942Y-161448666D02*
X100407942Y-161753428D01*
X100788895Y-160534381D02*
X100788895Y-160991524D01*
X100788895Y-160762952D02*
X99988895Y-160762952D01*
X99988895Y-160762952D02*
X100103180Y-160839143D01*
X100103180Y-160839143D02*
X100179371Y-160915333D01*
X100179371Y-160915333D02*
X100217466Y-160991524D01*
X99988895Y-160039142D02*
X99988895Y-159962952D01*
X99988895Y-159962952D02*
X100026990Y-159886761D01*
X100026990Y-159886761D02*
X100065085Y-159848666D01*
X100065085Y-159848666D02*
X100141276Y-159810571D01*
X100141276Y-159810571D02*
X100293657Y-159772476D01*
X100293657Y-159772476D02*
X100484133Y-159772476D01*
X100484133Y-159772476D02*
X100636514Y-159810571D01*
X100636514Y-159810571D02*
X100712704Y-159848666D01*
X100712704Y-159848666D02*
X100750800Y-159886761D01*
X100750800Y-159886761D02*
X100788895Y-159962952D01*
X100788895Y-159962952D02*
X100788895Y-160039142D01*
X100788895Y-160039142D02*
X100750800Y-160115333D01*
X100750800Y-160115333D02*
X100712704Y-160153428D01*
X100712704Y-160153428D02*
X100636514Y-160191523D01*
X100636514Y-160191523D02*
X100484133Y-160229619D01*
X100484133Y-160229619D02*
X100293657Y-160229619D01*
X100293657Y-160229619D02*
X100141276Y-160191523D01*
X100141276Y-160191523D02*
X100065085Y-160153428D01*
X100065085Y-160153428D02*
X100026990Y-160115333D01*
X100026990Y-160115333D02*
X99988895Y-160039142D01*
D11*
X128021842Y-162426619D02*
X128082318Y-162245190D01*
X128082318Y-162245190D02*
X128082318Y-161942809D01*
X128082318Y-161942809D02*
X128021842Y-161821857D01*
X128021842Y-161821857D02*
X127961365Y-161761381D01*
X127961365Y-161761381D02*
X127840413Y-161700904D01*
X127840413Y-161700904D02*
X127719461Y-161700904D01*
X127719461Y-161700904D02*
X127598508Y-161761381D01*
X127598508Y-161761381D02*
X127538032Y-161821857D01*
X127538032Y-161821857D02*
X127477556Y-161942809D01*
X127477556Y-161942809D02*
X127417080Y-162184714D01*
X127417080Y-162184714D02*
X127356603Y-162305666D01*
X127356603Y-162305666D02*
X127296127Y-162366143D01*
X127296127Y-162366143D02*
X127175175Y-162426619D01*
X127175175Y-162426619D02*
X127054222Y-162426619D01*
X127054222Y-162426619D02*
X126933270Y-162366143D01*
X126933270Y-162366143D02*
X126872794Y-162305666D01*
X126872794Y-162305666D02*
X126812318Y-162184714D01*
X126812318Y-162184714D02*
X126812318Y-161882333D01*
X126812318Y-161882333D02*
X126872794Y-161700904D01*
X126933270Y-161217095D02*
X126872794Y-161156619D01*
X126872794Y-161156619D02*
X126812318Y-161035666D01*
X126812318Y-161035666D02*
X126812318Y-160733285D01*
X126812318Y-160733285D02*
X126872794Y-160612333D01*
X126872794Y-160612333D02*
X126933270Y-160551857D01*
X126933270Y-160551857D02*
X127054222Y-160491380D01*
X127054222Y-160491380D02*
X127175175Y-160491380D01*
X127175175Y-160491380D02*
X127356603Y-160551857D01*
X127356603Y-160551857D02*
X128082318Y-161277571D01*
X128082318Y-161277571D02*
X128082318Y-160491380D01*
D10*
X129152667Y-79612895D02*
X128886000Y-79231942D01*
X128695524Y-79612895D02*
X128695524Y-78812895D01*
X128695524Y-78812895D02*
X129000286Y-78812895D01*
X129000286Y-78812895D02*
X129076476Y-78850990D01*
X129076476Y-78850990D02*
X129114571Y-78889085D01*
X129114571Y-78889085D02*
X129152667Y-78965276D01*
X129152667Y-78965276D02*
X129152667Y-79079561D01*
X129152667Y-79079561D02*
X129114571Y-79155752D01*
X129114571Y-79155752D02*
X129076476Y-79193847D01*
X129076476Y-79193847D02*
X129000286Y-79231942D01*
X129000286Y-79231942D02*
X128695524Y-79231942D01*
X129914571Y-79612895D02*
X129457428Y-79612895D01*
X129686000Y-79612895D02*
X129686000Y-78812895D01*
X129686000Y-78812895D02*
X129609809Y-78927180D01*
X129609809Y-78927180D02*
X129533619Y-79003371D01*
X129533619Y-79003371D02*
X129457428Y-79041466D01*
X103361895Y-114560332D02*
X102980942Y-114826999D01*
X103361895Y-115017475D02*
X102561895Y-115017475D01*
X102561895Y-115017475D02*
X102561895Y-114712713D01*
X102561895Y-114712713D02*
X102599990Y-114636523D01*
X102599990Y-114636523D02*
X102638085Y-114598428D01*
X102638085Y-114598428D02*
X102714276Y-114560332D01*
X102714276Y-114560332D02*
X102828561Y-114560332D01*
X102828561Y-114560332D02*
X102904752Y-114598428D01*
X102904752Y-114598428D02*
X102942847Y-114636523D01*
X102942847Y-114636523D02*
X102980942Y-114712713D01*
X102980942Y-114712713D02*
X102980942Y-115017475D01*
X102561895Y-114293666D02*
X102561895Y-113798428D01*
X102561895Y-113798428D02*
X102866657Y-114065094D01*
X102866657Y-114065094D02*
X102866657Y-113950809D01*
X102866657Y-113950809D02*
X102904752Y-113874618D01*
X102904752Y-113874618D02*
X102942847Y-113836523D01*
X102942847Y-113836523D02*
X103019038Y-113798428D01*
X103019038Y-113798428D02*
X103209514Y-113798428D01*
X103209514Y-113798428D02*
X103285704Y-113836523D01*
X103285704Y-113836523D02*
X103323800Y-113874618D01*
X103323800Y-113874618D02*
X103361895Y-113950809D01*
X103361895Y-113950809D02*
X103361895Y-114179380D01*
X103361895Y-114179380D02*
X103323800Y-114255571D01*
X103323800Y-114255571D02*
X103285704Y-114293666D01*
X122030895Y-115017475D02*
X121230895Y-115017475D01*
X121230895Y-115017475D02*
X121230895Y-114826999D01*
X121230895Y-114826999D02*
X121268990Y-114712713D01*
X121268990Y-114712713D02*
X121345180Y-114636523D01*
X121345180Y-114636523D02*
X121421371Y-114598428D01*
X121421371Y-114598428D02*
X121573752Y-114560332D01*
X121573752Y-114560332D02*
X121688038Y-114560332D01*
X121688038Y-114560332D02*
X121840419Y-114598428D01*
X121840419Y-114598428D02*
X121916609Y-114636523D01*
X121916609Y-114636523D02*
X121992800Y-114712713D01*
X121992800Y-114712713D02*
X122030895Y-114826999D01*
X122030895Y-114826999D02*
X122030895Y-115017475D01*
X121230895Y-114293666D02*
X121230895Y-113798428D01*
X121230895Y-113798428D02*
X121535657Y-114065094D01*
X121535657Y-114065094D02*
X121535657Y-113950809D01*
X121535657Y-113950809D02*
X121573752Y-113874618D01*
X121573752Y-113874618D02*
X121611847Y-113836523D01*
X121611847Y-113836523D02*
X121688038Y-113798428D01*
X121688038Y-113798428D02*
X121878514Y-113798428D01*
X121878514Y-113798428D02*
X121954704Y-113836523D01*
X121954704Y-113836523D02*
X121992800Y-113874618D01*
X121992800Y-113874618D02*
X122030895Y-113950809D01*
X122030895Y-113950809D02*
X122030895Y-114179380D01*
X122030895Y-114179380D02*
X121992800Y-114255571D01*
X121992800Y-114255571D02*
X121954704Y-114293666D01*
X106028895Y-115017475D02*
X105228895Y-115017475D01*
X105228895Y-115017475D02*
X105228895Y-114826999D01*
X105228895Y-114826999D02*
X105266990Y-114712713D01*
X105266990Y-114712713D02*
X105343180Y-114636523D01*
X105343180Y-114636523D02*
X105419371Y-114598428D01*
X105419371Y-114598428D02*
X105571752Y-114560332D01*
X105571752Y-114560332D02*
X105686038Y-114560332D01*
X105686038Y-114560332D02*
X105838419Y-114598428D01*
X105838419Y-114598428D02*
X105914609Y-114636523D01*
X105914609Y-114636523D02*
X105990800Y-114712713D01*
X105990800Y-114712713D02*
X106028895Y-114826999D01*
X106028895Y-114826999D02*
X106028895Y-115017475D01*
X106028895Y-113798428D02*
X106028895Y-114255571D01*
X106028895Y-114026999D02*
X105228895Y-114026999D01*
X105228895Y-114026999D02*
X105343180Y-114103190D01*
X105343180Y-114103190D02*
X105419371Y-114179380D01*
X105419371Y-114179380D02*
X105457466Y-114255571D01*
X122632895Y-160915332D02*
X122251942Y-161181999D01*
X122632895Y-161372475D02*
X121832895Y-161372475D01*
X121832895Y-161372475D02*
X121832895Y-161067713D01*
X121832895Y-161067713D02*
X121870990Y-160991523D01*
X121870990Y-160991523D02*
X121909085Y-160953428D01*
X121909085Y-160953428D02*
X121985276Y-160915332D01*
X121985276Y-160915332D02*
X122099561Y-160915332D01*
X122099561Y-160915332D02*
X122175752Y-160953428D01*
X122175752Y-160953428D02*
X122213847Y-160991523D01*
X122213847Y-160991523D02*
X122251942Y-161067713D01*
X122251942Y-161067713D02*
X122251942Y-161372475D01*
X122175752Y-160458190D02*
X122137657Y-160534380D01*
X122137657Y-160534380D02*
X122099561Y-160572475D01*
X122099561Y-160572475D02*
X122023371Y-160610571D01*
X122023371Y-160610571D02*
X121985276Y-160610571D01*
X121985276Y-160610571D02*
X121909085Y-160572475D01*
X121909085Y-160572475D02*
X121870990Y-160534380D01*
X121870990Y-160534380D02*
X121832895Y-160458190D01*
X121832895Y-160458190D02*
X121832895Y-160305809D01*
X121832895Y-160305809D02*
X121870990Y-160229618D01*
X121870990Y-160229618D02*
X121909085Y-160191523D01*
X121909085Y-160191523D02*
X121985276Y-160153428D01*
X121985276Y-160153428D02*
X122023371Y-160153428D01*
X122023371Y-160153428D02*
X122099561Y-160191523D01*
X122099561Y-160191523D02*
X122137657Y-160229618D01*
X122137657Y-160229618D02*
X122175752Y-160305809D01*
X122175752Y-160305809D02*
X122175752Y-160458190D01*
X122175752Y-160458190D02*
X122213847Y-160534380D01*
X122213847Y-160534380D02*
X122251942Y-160572475D01*
X122251942Y-160572475D02*
X122328133Y-160610571D01*
X122328133Y-160610571D02*
X122480514Y-160610571D01*
X122480514Y-160610571D02*
X122556704Y-160572475D01*
X122556704Y-160572475D02*
X122594800Y-160534380D01*
X122594800Y-160534380D02*
X122632895Y-160458190D01*
X122632895Y-160458190D02*
X122632895Y-160305809D01*
X122632895Y-160305809D02*
X122594800Y-160229618D01*
X122594800Y-160229618D02*
X122556704Y-160191523D01*
X122556704Y-160191523D02*
X122480514Y-160153428D01*
X122480514Y-160153428D02*
X122328133Y-160153428D01*
X122328133Y-160153428D02*
X122251942Y-160191523D01*
X122251942Y-160191523D02*
X122213847Y-160229618D01*
X122213847Y-160229618D02*
X122175752Y-160305809D01*
X97904380Y-125388895D02*
X97904380Y-125960323D01*
X97904380Y-125960323D02*
X97866285Y-126074609D01*
X97866285Y-126074609D02*
X97790094Y-126150800D01*
X97790094Y-126150800D02*
X97675809Y-126188895D01*
X97675809Y-126188895D02*
X97599618Y-126188895D01*
X98704380Y-126188895D02*
X98247237Y-126188895D01*
X98475809Y-126188895D02*
X98475809Y-125388895D01*
X98475809Y-125388895D02*
X98399618Y-125503180D01*
X98399618Y-125503180D02*
X98323428Y-125579371D01*
X98323428Y-125579371D02*
X98247237Y-125617466D01*
X98971047Y-125388895D02*
X99466285Y-125388895D01*
X99466285Y-125388895D02*
X99199619Y-125693657D01*
X99199619Y-125693657D02*
X99313904Y-125693657D01*
X99313904Y-125693657D02*
X99390095Y-125731752D01*
X99390095Y-125731752D02*
X99428190Y-125769847D01*
X99428190Y-125769847D02*
X99466285Y-125846038D01*
X99466285Y-125846038D02*
X99466285Y-126036514D01*
X99466285Y-126036514D02*
X99428190Y-126112704D01*
X99428190Y-126112704D02*
X99390095Y-126150800D01*
X99390095Y-126150800D02*
X99313904Y-126188895D01*
X99313904Y-126188895D02*
X99085333Y-126188895D01*
X99085333Y-126188895D02*
X99009142Y-126150800D01*
X99009142Y-126150800D02*
X98971047Y-126112704D01*
X123558380Y-87448895D02*
X123558380Y-88020323D01*
X123558380Y-88020323D02*
X123520285Y-88134609D01*
X123520285Y-88134609D02*
X123444094Y-88210800D01*
X123444094Y-88210800D02*
X123329809Y-88248895D01*
X123329809Y-88248895D02*
X123253618Y-88248895D01*
X124358380Y-88248895D02*
X123901237Y-88248895D01*
X124129809Y-88248895D02*
X124129809Y-87448895D01*
X124129809Y-87448895D02*
X124053618Y-87563180D01*
X124053618Y-87563180D02*
X123977428Y-87639371D01*
X123977428Y-87639371D02*
X123901237Y-87677466D01*
X125120285Y-88248895D02*
X124663142Y-88248895D01*
X124891714Y-88248895D02*
X124891714Y-87448895D01*
X124891714Y-87448895D02*
X124815523Y-87563180D01*
X124815523Y-87563180D02*
X124739333Y-87639371D01*
X124739333Y-87639371D02*
X124663142Y-87677466D01*
D12*
X63358666Y-151878819D02*
X63358666Y-152593104D01*
X63358666Y-152593104D02*
X63311047Y-152735961D01*
X63311047Y-152735961D02*
X63215809Y-152831200D01*
X63215809Y-152831200D02*
X63072952Y-152878819D01*
X63072952Y-152878819D02*
X62977714Y-152878819D01*
X63739619Y-151878819D02*
X64358666Y-151878819D01*
X64358666Y-151878819D02*
X64025333Y-152259771D01*
X64025333Y-152259771D02*
X64168190Y-152259771D01*
X64168190Y-152259771D02*
X64263428Y-152307390D01*
X64263428Y-152307390D02*
X64311047Y-152355009D01*
X64311047Y-152355009D02*
X64358666Y-152450247D01*
X64358666Y-152450247D02*
X64358666Y-152688342D01*
X64358666Y-152688342D02*
X64311047Y-152783580D01*
X64311047Y-152783580D02*
X64263428Y-152831200D01*
X64263428Y-152831200D02*
X64168190Y-152878819D01*
X64168190Y-152878819D02*
X63882476Y-152878819D01*
X63882476Y-152878819D02*
X63787238Y-152831200D01*
X63787238Y-152831200D02*
X63739619Y-152783580D01*
D10*
X113902895Y-115017475D02*
X113102895Y-115017475D01*
X113102895Y-115017475D02*
X113102895Y-114826999D01*
X113102895Y-114826999D02*
X113140990Y-114712713D01*
X113140990Y-114712713D02*
X113217180Y-114636523D01*
X113217180Y-114636523D02*
X113293371Y-114598428D01*
X113293371Y-114598428D02*
X113445752Y-114560332D01*
X113445752Y-114560332D02*
X113560038Y-114560332D01*
X113560038Y-114560332D02*
X113712419Y-114598428D01*
X113712419Y-114598428D02*
X113788609Y-114636523D01*
X113788609Y-114636523D02*
X113864800Y-114712713D01*
X113864800Y-114712713D02*
X113902895Y-114826999D01*
X113902895Y-114826999D02*
X113902895Y-115017475D01*
X113179085Y-114255571D02*
X113140990Y-114217475D01*
X113140990Y-114217475D02*
X113102895Y-114141285D01*
X113102895Y-114141285D02*
X113102895Y-113950809D01*
X113102895Y-113950809D02*
X113140990Y-113874618D01*
X113140990Y-113874618D02*
X113179085Y-113836523D01*
X113179085Y-113836523D02*
X113255276Y-113798428D01*
X113255276Y-113798428D02*
X113331466Y-113798428D01*
X113331466Y-113798428D02*
X113445752Y-113836523D01*
X113445752Y-113836523D02*
X113902895Y-114293666D01*
X113902895Y-114293666D02*
X113902895Y-113798428D01*
D12*
X111172666Y-87175819D02*
X111172666Y-87890104D01*
X111172666Y-87890104D02*
X111125047Y-88032961D01*
X111125047Y-88032961D02*
X111029809Y-88128200D01*
X111029809Y-88128200D02*
X110886952Y-88175819D01*
X110886952Y-88175819D02*
X110791714Y-88175819D01*
X112077428Y-87175819D02*
X111886952Y-87175819D01*
X111886952Y-87175819D02*
X111791714Y-87223438D01*
X111791714Y-87223438D02*
X111744095Y-87271057D01*
X111744095Y-87271057D02*
X111648857Y-87413914D01*
X111648857Y-87413914D02*
X111601238Y-87604390D01*
X111601238Y-87604390D02*
X111601238Y-87985342D01*
X111601238Y-87985342D02*
X111648857Y-88080580D01*
X111648857Y-88080580D02*
X111696476Y-88128200D01*
X111696476Y-88128200D02*
X111791714Y-88175819D01*
X111791714Y-88175819D02*
X111982190Y-88175819D01*
X111982190Y-88175819D02*
X112077428Y-88128200D01*
X112077428Y-88128200D02*
X112125047Y-88080580D01*
X112125047Y-88080580D02*
X112172666Y-87985342D01*
X112172666Y-87985342D02*
X112172666Y-87747247D01*
X112172666Y-87747247D02*
X112125047Y-87652009D01*
X112125047Y-87652009D02*
X112077428Y-87604390D01*
X112077428Y-87604390D02*
X111982190Y-87556771D01*
X111982190Y-87556771D02*
X111791714Y-87556771D01*
X111791714Y-87556771D02*
X111696476Y-87604390D01*
X111696476Y-87604390D02*
X111648857Y-87652009D01*
X111648857Y-87652009D02*
X111601238Y-87747247D01*
D10*
X129777895Y-114890475D02*
X128977895Y-114890475D01*
X128977895Y-114890475D02*
X128977895Y-114699999D01*
X128977895Y-114699999D02*
X129015990Y-114585713D01*
X129015990Y-114585713D02*
X129092180Y-114509523D01*
X129092180Y-114509523D02*
X129168371Y-114471428D01*
X129168371Y-114471428D02*
X129320752Y-114433332D01*
X129320752Y-114433332D02*
X129435038Y-114433332D01*
X129435038Y-114433332D02*
X129587419Y-114471428D01*
X129587419Y-114471428D02*
X129663609Y-114509523D01*
X129663609Y-114509523D02*
X129739800Y-114585713D01*
X129739800Y-114585713D02*
X129777895Y-114699999D01*
X129777895Y-114699999D02*
X129777895Y-114890475D01*
X129244561Y-113747618D02*
X129777895Y-113747618D01*
X128939800Y-113938094D02*
X129511228Y-114128571D01*
X129511228Y-114128571D02*
X129511228Y-113633332D01*
X88760333Y-149678895D02*
X88760333Y-150250323D01*
X88760333Y-150250323D02*
X88722238Y-150364609D01*
X88722238Y-150364609D02*
X88646047Y-150440800D01*
X88646047Y-150440800D02*
X88531762Y-150478895D01*
X88531762Y-150478895D02*
X88455571Y-150478895D01*
X89065095Y-149678895D02*
X89598429Y-149678895D01*
X89598429Y-149678895D02*
X89255571Y-150478895D01*
D12*
X63358666Y-83298819D02*
X63358666Y-84013104D01*
X63358666Y-84013104D02*
X63311047Y-84155961D01*
X63311047Y-84155961D02*
X63215809Y-84251200D01*
X63215809Y-84251200D02*
X63072952Y-84298819D01*
X63072952Y-84298819D02*
X62977714Y-84298819D01*
X64263428Y-83632152D02*
X64263428Y-84298819D01*
X64025333Y-83251200D02*
X63787238Y-83965485D01*
X63787238Y-83965485D02*
X64406285Y-83965485D01*
D10*
X133724667Y-83346704D02*
X133686571Y-83384800D01*
X133686571Y-83384800D02*
X133572286Y-83422895D01*
X133572286Y-83422895D02*
X133496095Y-83422895D01*
X133496095Y-83422895D02*
X133381809Y-83384800D01*
X133381809Y-83384800D02*
X133305619Y-83308609D01*
X133305619Y-83308609D02*
X133267524Y-83232419D01*
X133267524Y-83232419D02*
X133229428Y-83080038D01*
X133229428Y-83080038D02*
X133229428Y-82965752D01*
X133229428Y-82965752D02*
X133267524Y-82813371D01*
X133267524Y-82813371D02*
X133305619Y-82737180D01*
X133305619Y-82737180D02*
X133381809Y-82660990D01*
X133381809Y-82660990D02*
X133496095Y-82622895D01*
X133496095Y-82622895D02*
X133572286Y-82622895D01*
X133572286Y-82622895D02*
X133686571Y-82660990D01*
X133686571Y-82660990D02*
X133724667Y-82699085D01*
X133991333Y-82622895D02*
X134486571Y-82622895D01*
X134486571Y-82622895D02*
X134219905Y-82927657D01*
X134219905Y-82927657D02*
X134334190Y-82927657D01*
X134334190Y-82927657D02*
X134410381Y-82965752D01*
X134410381Y-82965752D02*
X134448476Y-83003847D01*
X134448476Y-83003847D02*
X134486571Y-83080038D01*
X134486571Y-83080038D02*
X134486571Y-83270514D01*
X134486571Y-83270514D02*
X134448476Y-83346704D01*
X134448476Y-83346704D02*
X134410381Y-83384800D01*
X134410381Y-83384800D02*
X134334190Y-83422895D01*
X134334190Y-83422895D02*
X134105619Y-83422895D01*
X134105619Y-83422895D02*
X134029428Y-83384800D01*
X134029428Y-83384800D02*
X133991333Y-83346704D01*
D12*
X63358666Y-129018819D02*
X63358666Y-129733104D01*
X63358666Y-129733104D02*
X63311047Y-129875961D01*
X63311047Y-129875961D02*
X63215809Y-129971200D01*
X63215809Y-129971200D02*
X63072952Y-130018819D01*
X63072952Y-130018819D02*
X62977714Y-130018819D01*
X63787238Y-129114057D02*
X63834857Y-129066438D01*
X63834857Y-129066438D02*
X63930095Y-129018819D01*
X63930095Y-129018819D02*
X64168190Y-129018819D01*
X64168190Y-129018819D02*
X64263428Y-129066438D01*
X64263428Y-129066438D02*
X64311047Y-129114057D01*
X64311047Y-129114057D02*
X64358666Y-129209295D01*
X64358666Y-129209295D02*
X64358666Y-129304533D01*
X64358666Y-129304533D02*
X64311047Y-129447390D01*
X64311047Y-129447390D02*
X63739619Y-130018819D01*
X63739619Y-130018819D02*
X64358666Y-130018819D01*
D13*
%TO.C,S5*%
X122566000Y-93710000D02*
X127166000Y-93710000D01*
X121666000Y-95610000D02*
X121666000Y-98010000D01*
X127866000Y-95610000D02*
X127866000Y-98010000D01*
X122566000Y-99910000D02*
X127166000Y-99910000D01*
D10*
X120116000Y-94560000D02*
X120116000Y-94560000D01*
X120216000Y-94560000D02*
X120216000Y-94560000D01*
X120216000Y-94560000D02*
G75*
G02*
X120116000Y-94560000I-50000J0D01*
G01*
X120116000Y-94560000D02*
G75*
G02*
X120216000Y-94560000I50000J0D01*
G01*
%TO.C,L1*%
X103132000Y-80734000D02*
X104132000Y-80734000D01*
X103132000Y-82334000D02*
X104132000Y-82334000D01*
D14*
%TO.C,R6*%
X126223500Y-116839276D02*
X126223500Y-117348724D01*
X127268500Y-116839276D02*
X127268500Y-117348724D01*
D10*
%TO.C,S3*%
X115090000Y-158746000D02*
X115090000Y-164746000D01*
X115090000Y-164746000D02*
X115340000Y-164746000D01*
X115340000Y-158746000D02*
X115090000Y-158746000D01*
D13*
X116740000Y-157046000D02*
X116740000Y-157046000D01*
X116940000Y-157046000D02*
X116940000Y-157046000D01*
D10*
X118340000Y-158746000D02*
X118590000Y-158746000D01*
X118590000Y-158746000D02*
X118590000Y-164746000D01*
X118590000Y-164746000D02*
X118340000Y-164746000D01*
D13*
X116740000Y-157046000D02*
G75*
G02*
X116940000Y-157046000I100000J0D01*
G01*
X116940000Y-157046000D02*
G75*
G02*
X116740000Y-157046000I-100000J0D01*
G01*
D14*
%TO.C,R4*%
X110221500Y-116839276D02*
X110221500Y-117348724D01*
X111266500Y-116839276D02*
X111266500Y-117348724D01*
%TO.C,R2*%
X129031276Y-84821500D02*
X129540724Y-84821500D01*
X129031276Y-85866500D02*
X129540724Y-85866500D01*
%TO.C,R9*%
X112253500Y-161036724D02*
X112253500Y-160527276D01*
X113298500Y-161036724D02*
X113298500Y-160527276D01*
D10*
%TO.C,S1*%
X136680000Y-158746000D02*
X136680000Y-164746000D01*
X136680000Y-164746000D02*
X136930000Y-164746000D01*
X136930000Y-158746000D02*
X136680000Y-158746000D01*
D13*
X138330000Y-157046000D02*
X138330000Y-157046000D01*
X138530000Y-157046000D02*
X138530000Y-157046000D01*
D10*
X139930000Y-158746000D02*
X140180000Y-158746000D01*
X140180000Y-158746000D02*
X140180000Y-164746000D01*
X140180000Y-164746000D02*
X139930000Y-164746000D01*
D13*
X138330000Y-157046000D02*
G75*
G02*
X138530000Y-157046000I100000J0D01*
G01*
X138530000Y-157046000D02*
G75*
G02*
X138330000Y-157046000I-100000J0D01*
G01*
D14*
%TO.C,R7*%
X134097500Y-161036724D02*
X134097500Y-160527276D01*
X135142500Y-161036724D02*
X135142500Y-160527276D01*
%TO.C,J12*%
X153285000Y-100873000D02*
X153285000Y-99543000D01*
X154395000Y-100873000D02*
X153285000Y-100873000D01*
X155885000Y-86483000D02*
X155445000Y-86483000D01*
X155885000Y-87203000D02*
X155445000Y-87203000D01*
X155885000Y-89023000D02*
X155445000Y-89023000D01*
X155885000Y-89743000D02*
X155445000Y-89743000D01*
X155885000Y-91563000D02*
X155445000Y-91563000D01*
X155885000Y-92283000D02*
X155445000Y-92283000D01*
X155885000Y-94103000D02*
X155445000Y-94103000D01*
X155885000Y-94823000D02*
X155445000Y-94823000D01*
X155885000Y-96643000D02*
X155445000Y-96643000D01*
X155885000Y-97363000D02*
X155445000Y-97363000D01*
X155885000Y-99183000D02*
X155505000Y-99183000D01*
X155885000Y-99903000D02*
X155505000Y-99903000D01*
X158395000Y-86483000D02*
X157985000Y-86483000D01*
X158395000Y-87203000D02*
X157985000Y-87203000D01*
X158395000Y-89023000D02*
X157985000Y-89023000D01*
X158395000Y-89743000D02*
X157985000Y-89743000D01*
X158395000Y-91563000D02*
X157985000Y-91563000D01*
X158395000Y-92283000D02*
X157985000Y-92283000D01*
X158395000Y-94103000D02*
X157985000Y-94103000D01*
X158395000Y-94823000D02*
X157985000Y-94823000D01*
X158395000Y-96643000D02*
X157985000Y-96643000D01*
X158395000Y-97363000D02*
X157985000Y-97363000D01*
X158395000Y-99183000D02*
X157985000Y-99183000D01*
X158395000Y-99903000D02*
X157985000Y-99903000D01*
X158395000Y-100873000D02*
X158395000Y-85513000D01*
X167025000Y-85513000D02*
X158395000Y-85513000D01*
X167025000Y-88113000D02*
X158395000Y-88113000D01*
X167025000Y-90653000D02*
X158395000Y-90653000D01*
X167025000Y-93193000D02*
X158395000Y-93193000D01*
X167025000Y-95733000D02*
X158395000Y-95733000D01*
X167025000Y-98273000D02*
X158395000Y-98273000D01*
X167025000Y-98391100D02*
X158395000Y-98391100D01*
X167025000Y-98509195D02*
X158395000Y-98509195D01*
X167025000Y-98627290D02*
X158395000Y-98627290D01*
X167025000Y-98745385D02*
X158395000Y-98745385D01*
X167025000Y-98863480D02*
X158395000Y-98863480D01*
X167025000Y-98981575D02*
X158395000Y-98981575D01*
X167025000Y-99099670D02*
X158395000Y-99099670D01*
X167025000Y-99217765D02*
X158395000Y-99217765D01*
X167025000Y-99335860D02*
X158395000Y-99335860D01*
X167025000Y-99453955D02*
X158395000Y-99453955D01*
X167025000Y-99572050D02*
X158395000Y-99572050D01*
X167025000Y-99690145D02*
X158395000Y-99690145D01*
X167025000Y-99808240D02*
X158395000Y-99808240D01*
X167025000Y-99926335D02*
X158395000Y-99926335D01*
X167025000Y-100044430D02*
X158395000Y-100044430D01*
X167025000Y-100162525D02*
X158395000Y-100162525D01*
X167025000Y-100280620D02*
X158395000Y-100280620D01*
X167025000Y-100398715D02*
X158395000Y-100398715D01*
X167025000Y-100516810D02*
X158395000Y-100516810D01*
X167025000Y-100634905D02*
X158395000Y-100634905D01*
X167025000Y-100753000D02*
X158395000Y-100753000D01*
X167025000Y-100873000D02*
X158395000Y-100873000D01*
X167025000Y-100873000D02*
X167025000Y-85513000D01*
%TO.C,R5*%
X118603500Y-116839276D02*
X118603500Y-117348724D01*
X119648500Y-116839276D02*
X119648500Y-117348724D01*
%TO.C,J1*%
X153285000Y-123758000D02*
X153285000Y-122428000D01*
X154395000Y-123758000D02*
X153285000Y-123758000D01*
X155885000Y-109368000D02*
X155445000Y-109368000D01*
X155885000Y-110088000D02*
X155445000Y-110088000D01*
X155885000Y-111908000D02*
X155445000Y-111908000D01*
X155885000Y-112628000D02*
X155445000Y-112628000D01*
X155885000Y-114448000D02*
X155445000Y-114448000D01*
X155885000Y-115168000D02*
X155445000Y-115168000D01*
X155885000Y-116988000D02*
X155445000Y-116988000D01*
X155885000Y-117708000D02*
X155445000Y-117708000D01*
X155885000Y-119528000D02*
X155445000Y-119528000D01*
X155885000Y-120248000D02*
X155445000Y-120248000D01*
X155885000Y-122068000D02*
X155505000Y-122068000D01*
X155885000Y-122788000D02*
X155505000Y-122788000D01*
X158395000Y-109368000D02*
X157985000Y-109368000D01*
X158395000Y-110088000D02*
X157985000Y-110088000D01*
X158395000Y-111908000D02*
X157985000Y-111908000D01*
X158395000Y-112628000D02*
X157985000Y-112628000D01*
X158395000Y-114448000D02*
X157985000Y-114448000D01*
X158395000Y-115168000D02*
X157985000Y-115168000D01*
X158395000Y-116988000D02*
X157985000Y-116988000D01*
X158395000Y-117708000D02*
X157985000Y-117708000D01*
X158395000Y-119528000D02*
X157985000Y-119528000D01*
X158395000Y-120248000D02*
X157985000Y-120248000D01*
X158395000Y-122068000D02*
X157985000Y-122068000D01*
X158395000Y-122788000D02*
X157985000Y-122788000D01*
X158395000Y-123758000D02*
X158395000Y-108398000D01*
X167025000Y-108398000D02*
X158395000Y-108398000D01*
X167025000Y-110998000D02*
X158395000Y-110998000D01*
X167025000Y-113538000D02*
X158395000Y-113538000D01*
X167025000Y-116078000D02*
X158395000Y-116078000D01*
X167025000Y-118618000D02*
X158395000Y-118618000D01*
X167025000Y-121158000D02*
X158395000Y-121158000D01*
X167025000Y-121276100D02*
X158395000Y-121276100D01*
X167025000Y-121394195D02*
X158395000Y-121394195D01*
X167025000Y-121512290D02*
X158395000Y-121512290D01*
X167025000Y-121630385D02*
X158395000Y-121630385D01*
X167025000Y-121748480D02*
X158395000Y-121748480D01*
X167025000Y-121866575D02*
X158395000Y-121866575D01*
X167025000Y-121984670D02*
X158395000Y-121984670D01*
X167025000Y-122102765D02*
X158395000Y-122102765D01*
X167025000Y-122220860D02*
X158395000Y-122220860D01*
X167025000Y-122338955D02*
X158395000Y-122338955D01*
X167025000Y-122457050D02*
X158395000Y-122457050D01*
X167025000Y-122575145D02*
X158395000Y-122575145D01*
X167025000Y-122693240D02*
X158395000Y-122693240D01*
X167025000Y-122811335D02*
X158395000Y-122811335D01*
X167025000Y-122929430D02*
X158395000Y-122929430D01*
X167025000Y-123047525D02*
X158395000Y-123047525D01*
X167025000Y-123165620D02*
X158395000Y-123165620D01*
X167025000Y-123283715D02*
X158395000Y-123283715D01*
X167025000Y-123401810D02*
X158395000Y-123401810D01*
X167025000Y-123519905D02*
X158395000Y-123519905D01*
X167025000Y-123638000D02*
X158395000Y-123638000D01*
X167025000Y-123758000D02*
X158395000Y-123758000D01*
X167025000Y-123758000D02*
X167025000Y-108398000D01*
%TO.C,J8*%
X121805000Y-82152000D02*
X121805000Y-80772000D01*
X123185000Y-82152000D02*
X121805000Y-82152000D01*
X124455000Y-79392000D02*
X127105000Y-79392000D01*
X124455000Y-82152000D02*
X124455000Y-79392000D01*
X124455000Y-82152000D02*
X127105000Y-82152000D01*
X127105000Y-82152000D02*
X127105000Y-79392000D01*
D10*
%TO.C,S4*%
X103914000Y-158831500D02*
X103914000Y-164831500D01*
X103914000Y-164831500D02*
X104164000Y-164831500D01*
X104164000Y-158831500D02*
X103914000Y-158831500D01*
D13*
X105564000Y-157131500D02*
X105564000Y-157131500D01*
X105764000Y-157131500D02*
X105764000Y-157131500D01*
D10*
X107164000Y-158831500D02*
X107414000Y-158831500D01*
X107414000Y-158831500D02*
X107414000Y-164831500D01*
X107414000Y-164831500D02*
X107164000Y-164831500D01*
D13*
X105564000Y-157131500D02*
G75*
G02*
X105764000Y-157131500I100000J0D01*
G01*
X105764000Y-157131500D02*
G75*
G02*
X105564000Y-157131500I-100000J0D01*
G01*
%TO.C,IC1*%
X91800000Y-78954000D02*
X93300000Y-78954000D01*
X93650000Y-79084000D02*
X96850000Y-79084000D01*
X93650000Y-83984000D02*
X93650000Y-79084000D01*
X96850000Y-79084000D02*
X96850000Y-83984000D01*
X96850000Y-83984000D02*
X93650000Y-83984000D01*
D14*
%TO.C,J5*%
X56712000Y-108144000D02*
X56712000Y-123504000D01*
X56712000Y-108144000D02*
X65342000Y-108144000D01*
X56712000Y-108264000D02*
X65342000Y-108264000D01*
X56712000Y-108382095D02*
X65342000Y-108382095D01*
X56712000Y-108500190D02*
X65342000Y-108500190D01*
X56712000Y-108618285D02*
X65342000Y-108618285D01*
X56712000Y-108736380D02*
X65342000Y-108736380D01*
X56712000Y-108854475D02*
X65342000Y-108854475D01*
X56712000Y-108972570D02*
X65342000Y-108972570D01*
X56712000Y-109090665D02*
X65342000Y-109090665D01*
X56712000Y-109208760D02*
X65342000Y-109208760D01*
X56712000Y-109326855D02*
X65342000Y-109326855D01*
X56712000Y-109444950D02*
X65342000Y-109444950D01*
X56712000Y-109563045D02*
X65342000Y-109563045D01*
X56712000Y-109681140D02*
X65342000Y-109681140D01*
X56712000Y-109799235D02*
X65342000Y-109799235D01*
X56712000Y-109917330D02*
X65342000Y-109917330D01*
X56712000Y-110035425D02*
X65342000Y-110035425D01*
X56712000Y-110153520D02*
X65342000Y-110153520D01*
X56712000Y-110271615D02*
X65342000Y-110271615D01*
X56712000Y-110389710D02*
X65342000Y-110389710D01*
X56712000Y-110507805D02*
X65342000Y-110507805D01*
X56712000Y-110625900D02*
X65342000Y-110625900D01*
X56712000Y-110744000D02*
X65342000Y-110744000D01*
X56712000Y-113284000D02*
X65342000Y-113284000D01*
X56712000Y-115824000D02*
X65342000Y-115824000D01*
X56712000Y-118364000D02*
X65342000Y-118364000D01*
X56712000Y-120904000D02*
X65342000Y-120904000D01*
X56712000Y-123504000D02*
X65342000Y-123504000D01*
X65342000Y-108144000D02*
X65342000Y-123504000D01*
X65342000Y-109114000D02*
X65752000Y-109114000D01*
X65342000Y-109834000D02*
X65752000Y-109834000D01*
X65342000Y-111654000D02*
X65752000Y-111654000D01*
X65342000Y-112374000D02*
X65752000Y-112374000D01*
X65342000Y-114194000D02*
X65752000Y-114194000D01*
X65342000Y-114914000D02*
X65752000Y-114914000D01*
X65342000Y-116734000D02*
X65752000Y-116734000D01*
X65342000Y-117454000D02*
X65752000Y-117454000D01*
X65342000Y-119274000D02*
X65752000Y-119274000D01*
X65342000Y-119994000D02*
X65752000Y-119994000D01*
X65342000Y-121814000D02*
X65752000Y-121814000D01*
X65342000Y-122534000D02*
X65752000Y-122534000D01*
X67852000Y-109114000D02*
X68232000Y-109114000D01*
X67852000Y-109834000D02*
X68232000Y-109834000D01*
X67852000Y-111654000D02*
X68292000Y-111654000D01*
X67852000Y-112374000D02*
X68292000Y-112374000D01*
X67852000Y-114194000D02*
X68292000Y-114194000D01*
X67852000Y-114914000D02*
X68292000Y-114914000D01*
X67852000Y-116734000D02*
X68292000Y-116734000D01*
X67852000Y-117454000D02*
X68292000Y-117454000D01*
X67852000Y-119274000D02*
X68292000Y-119274000D01*
X67852000Y-119994000D02*
X68292000Y-119994000D01*
X67852000Y-121814000D02*
X68292000Y-121814000D01*
X67852000Y-122534000D02*
X68292000Y-122534000D01*
X69342000Y-108144000D02*
X70452000Y-108144000D01*
X70452000Y-108144000D02*
X70452000Y-109474000D01*
%TO.C,J14*%
X133553000Y-149208000D02*
X133553000Y-85488000D01*
X136203000Y-146558000D02*
X136203000Y-149208000D01*
X136203000Y-149208000D02*
X133553000Y-149208000D01*
X138853000Y-85488000D02*
X133553000Y-85488000D01*
X138853000Y-146558000D02*
X136203000Y-146558000D01*
X138853000Y-146558000D02*
X138853000Y-85488000D01*
X138853000Y-147828000D02*
X138853000Y-149208000D01*
X138853000Y-149208000D02*
X137473000Y-149208000D01*
%TO.C,U1*%
X78943000Y-85488000D02*
X80323000Y-85488000D01*
X78943000Y-86868000D02*
X78943000Y-85488000D01*
X78943000Y-88138000D02*
X78943000Y-149208000D01*
X78943000Y-88138000D02*
X81593000Y-88138000D01*
X78943000Y-149208000D02*
X84243000Y-149208000D01*
X81593000Y-85488000D02*
X84243000Y-85488000D01*
X81593000Y-88138000D02*
X81593000Y-85488000D01*
X84243000Y-85488000D02*
X84243000Y-149208000D01*
X107449000Y-92498000D02*
X108779000Y-92498000D01*
X107449000Y-93828000D02*
X107449000Y-92498000D01*
X107449000Y-95098000D02*
X110049000Y-95098000D01*
X107449000Y-97698000D02*
X107449000Y-95098000D01*
X107449000Y-97698000D02*
X117729000Y-97698000D01*
X110049000Y-92498000D02*
X117729000Y-92498000D01*
X110049000Y-95098000D02*
X110049000Y-92498000D01*
X117729000Y-97698000D02*
X117729000Y-92498000D01*
X140942600Y-85488000D02*
X142322600Y-85488000D01*
X140942600Y-86868000D02*
X140942600Y-85488000D01*
X140942600Y-88138000D02*
X140942600Y-149208000D01*
X140942600Y-88138000D02*
X143592600Y-88138000D01*
X140942600Y-149208000D02*
X146242600Y-149208000D01*
X143592600Y-85488000D02*
X146242600Y-85488000D01*
X143592600Y-88138000D02*
X143592600Y-85488000D01*
X146242600Y-85488000D02*
X146242600Y-149208000D01*
%TO.C,R10*%
X101331500Y-161036724D02*
X101331500Y-160527276D01*
X102376500Y-161036724D02*
X102376500Y-160527276D01*
D10*
%TO.C,S2*%
X125758000Y-158746000D02*
X125758000Y-164746000D01*
X125758000Y-164746000D02*
X126008000Y-164746000D01*
X126008000Y-158746000D02*
X125758000Y-158746000D01*
D13*
X127408000Y-157046000D02*
X127408000Y-157046000D01*
X127608000Y-157046000D02*
X127608000Y-157046000D01*
D10*
X129008000Y-158746000D02*
X129258000Y-158746000D01*
X129258000Y-158746000D02*
X129258000Y-164746000D01*
X129258000Y-164746000D02*
X129008000Y-164746000D01*
D13*
X127408000Y-157046000D02*
G75*
G02*
X127608000Y-157046000I100000J0D01*
G01*
X127608000Y-157046000D02*
G75*
G02*
X127408000Y-157046000I-100000J0D01*
G01*
D14*
%TO.C,R1*%
X129540724Y-80249500D02*
X129031276Y-80249500D01*
X129540724Y-81294500D02*
X129031276Y-81294500D01*
%TO.C,R3*%
X102347500Y-116839276D02*
X102347500Y-117348724D01*
X103392500Y-116839276D02*
X103392500Y-117348724D01*
%TO.C,D3*%
X120931000Y-116294000D02*
X120931000Y-118754000D01*
X120931000Y-118754000D02*
X122401000Y-118754000D01*
X122401000Y-118754000D02*
X122401000Y-116294000D01*
%TO.C,D1*%
X104929000Y-116294000D02*
X104929000Y-118754000D01*
X104929000Y-118754000D02*
X106399000Y-118754000D01*
X106399000Y-118754000D02*
X106399000Y-116294000D01*
%TO.C,R8*%
X123175500Y-161036724D02*
X123175500Y-160527276D01*
X124220500Y-161036724D02*
X124220500Y-160527276D01*
%TO.C,J13*%
X94632000Y-124824000D02*
X94632000Y-111904000D01*
X97282000Y-122174000D02*
X97282000Y-124824000D01*
X97282000Y-124824000D02*
X94632000Y-124824000D01*
X99932000Y-111904000D02*
X94632000Y-111904000D01*
X99932000Y-122174000D02*
X97282000Y-122174000D01*
X99932000Y-122174000D02*
X99932000Y-111904000D01*
X99932000Y-123444000D02*
X99932000Y-124824000D01*
X99932000Y-124824000D02*
X98552000Y-124824000D01*
%TO.C,J11*%
X121815000Y-83964000D02*
X121815000Y-86724000D01*
X124465000Y-83964000D02*
X121815000Y-83964000D01*
X124465000Y-83964000D02*
X124465000Y-86724000D01*
X124465000Y-86724000D02*
X121815000Y-86724000D01*
X125735000Y-83964000D02*
X127115000Y-83964000D01*
X127115000Y-83964000D02*
X127115000Y-85344000D01*
%TO.C,J3*%
X56712000Y-153864000D02*
X56712000Y-169224000D01*
X56712000Y-153864000D02*
X65342000Y-153864000D01*
X56712000Y-153984000D02*
X65342000Y-153984000D01*
X56712000Y-154102095D02*
X65342000Y-154102095D01*
X56712000Y-154220190D02*
X65342000Y-154220190D01*
X56712000Y-154338285D02*
X65342000Y-154338285D01*
X56712000Y-154456380D02*
X65342000Y-154456380D01*
X56712000Y-154574475D02*
X65342000Y-154574475D01*
X56712000Y-154692570D02*
X65342000Y-154692570D01*
X56712000Y-154810665D02*
X65342000Y-154810665D01*
X56712000Y-154928760D02*
X65342000Y-154928760D01*
X56712000Y-155046855D02*
X65342000Y-155046855D01*
X56712000Y-155164950D02*
X65342000Y-155164950D01*
X56712000Y-155283045D02*
X65342000Y-155283045D01*
X56712000Y-155401140D02*
X65342000Y-155401140D01*
X56712000Y-155519235D02*
X65342000Y-155519235D01*
X56712000Y-155637330D02*
X65342000Y-155637330D01*
X56712000Y-155755425D02*
X65342000Y-155755425D01*
X56712000Y-155873520D02*
X65342000Y-155873520D01*
X56712000Y-155991615D02*
X65342000Y-155991615D01*
X56712000Y-156109710D02*
X65342000Y-156109710D01*
X56712000Y-156227805D02*
X65342000Y-156227805D01*
X56712000Y-156345900D02*
X65342000Y-156345900D01*
X56712000Y-156464000D02*
X65342000Y-156464000D01*
X56712000Y-159004000D02*
X65342000Y-159004000D01*
X56712000Y-161544000D02*
X65342000Y-161544000D01*
X56712000Y-164084000D02*
X65342000Y-164084000D01*
X56712000Y-166624000D02*
X65342000Y-166624000D01*
X56712000Y-169224000D02*
X65342000Y-169224000D01*
X65342000Y-153864000D02*
X65342000Y-169224000D01*
X65342000Y-154834000D02*
X65752000Y-154834000D01*
X65342000Y-155554000D02*
X65752000Y-155554000D01*
X65342000Y-157374000D02*
X65752000Y-157374000D01*
X65342000Y-158094000D02*
X65752000Y-158094000D01*
X65342000Y-159914000D02*
X65752000Y-159914000D01*
X65342000Y-160634000D02*
X65752000Y-160634000D01*
X65342000Y-162454000D02*
X65752000Y-162454000D01*
X65342000Y-163174000D02*
X65752000Y-163174000D01*
X65342000Y-164994000D02*
X65752000Y-164994000D01*
X65342000Y-165714000D02*
X65752000Y-165714000D01*
X65342000Y-167534000D02*
X65752000Y-167534000D01*
X65342000Y-168254000D02*
X65752000Y-168254000D01*
X67852000Y-154834000D02*
X68232000Y-154834000D01*
X67852000Y-155554000D02*
X68232000Y-155554000D01*
X67852000Y-157374000D02*
X68292000Y-157374000D01*
X67852000Y-158094000D02*
X68292000Y-158094000D01*
X67852000Y-159914000D02*
X68292000Y-159914000D01*
X67852000Y-160634000D02*
X68292000Y-160634000D01*
X67852000Y-162454000D02*
X68292000Y-162454000D01*
X67852000Y-163174000D02*
X68292000Y-163174000D01*
X67852000Y-164994000D02*
X68292000Y-164994000D01*
X67852000Y-165714000D02*
X68292000Y-165714000D01*
X67852000Y-167534000D02*
X68292000Y-167534000D01*
X67852000Y-168254000D02*
X68292000Y-168254000D01*
X69342000Y-153864000D02*
X70452000Y-153864000D01*
X70452000Y-153864000D02*
X70452000Y-155194000D01*
%TO.C,D2*%
X112803000Y-116294000D02*
X112803000Y-118754000D01*
X112803000Y-118754000D02*
X114273000Y-118754000D01*
X114273000Y-118754000D02*
X114273000Y-116294000D01*
%TO.C,J6*%
X120008000Y-89058500D02*
X120008000Y-79018500D01*
X120008000Y-89058500D02*
X109608000Y-89058500D01*
X120008000Y-86038500D02*
X109608000Y-86038500D01*
X120008000Y-81138500D02*
X109608000Y-81138500D01*
X120008000Y-79638500D02*
X109608000Y-79638500D01*
X120008000Y-79018500D02*
X117648000Y-79018500D01*
X117048000Y-79018500D02*
X109608000Y-79018500D01*
X109608000Y-89058500D02*
X109608000Y-79018500D01*
X117348000Y-79018500D02*
X116908000Y-78408500D01*
X117788000Y-78408500D01*
X117348000Y-79018500D01*
G36*
X117348000Y-79018500D02*
G01*
X116908000Y-78408500D01*
X117788000Y-78408500D01*
X117348000Y-79018500D01*
G37*
%TO.C,D4*%
X128551000Y-116294000D02*
X128551000Y-118754000D01*
X128551000Y-118754000D02*
X130021000Y-118754000D01*
X130021000Y-118754000D02*
X130021000Y-116294000D01*
%TO.C,J7*%
X86563000Y-85488000D02*
X87943000Y-85488000D01*
X86563000Y-86868000D02*
X86563000Y-85488000D01*
X86563000Y-88138000D02*
X86563000Y-149208000D01*
X86563000Y-88138000D02*
X89213000Y-88138000D01*
X86563000Y-149208000D02*
X91863000Y-149208000D01*
X89213000Y-85488000D02*
X91863000Y-85488000D01*
X89213000Y-88138000D02*
X89213000Y-85488000D01*
X91863000Y-85488000D02*
X91863000Y-149208000D01*
%TO.C,J4*%
X56712000Y-85284000D02*
X56712000Y-100644000D01*
X56712000Y-85284000D02*
X65342000Y-85284000D01*
X56712000Y-85404000D02*
X65342000Y-85404000D01*
X56712000Y-85522095D02*
X65342000Y-85522095D01*
X56712000Y-85640190D02*
X65342000Y-85640190D01*
X56712000Y-85758285D02*
X65342000Y-85758285D01*
X56712000Y-85876380D02*
X65342000Y-85876380D01*
X56712000Y-85994475D02*
X65342000Y-85994475D01*
X56712000Y-86112570D02*
X65342000Y-86112570D01*
X56712000Y-86230665D02*
X65342000Y-86230665D01*
X56712000Y-86348760D02*
X65342000Y-86348760D01*
X56712000Y-86466855D02*
X65342000Y-86466855D01*
X56712000Y-86584950D02*
X65342000Y-86584950D01*
X56712000Y-86703045D02*
X65342000Y-86703045D01*
X56712000Y-86821140D02*
X65342000Y-86821140D01*
X56712000Y-86939235D02*
X65342000Y-86939235D01*
X56712000Y-87057330D02*
X65342000Y-87057330D01*
X56712000Y-87175425D02*
X65342000Y-87175425D01*
X56712000Y-87293520D02*
X65342000Y-87293520D01*
X56712000Y-87411615D02*
X65342000Y-87411615D01*
X56712000Y-87529710D02*
X65342000Y-87529710D01*
X56712000Y-87647805D02*
X65342000Y-87647805D01*
X56712000Y-87765900D02*
X65342000Y-87765900D01*
X56712000Y-87884000D02*
X65342000Y-87884000D01*
X56712000Y-90424000D02*
X65342000Y-90424000D01*
X56712000Y-92964000D02*
X65342000Y-92964000D01*
X56712000Y-95504000D02*
X65342000Y-95504000D01*
X56712000Y-98044000D02*
X65342000Y-98044000D01*
X56712000Y-100644000D02*
X65342000Y-100644000D01*
X65342000Y-85284000D02*
X65342000Y-100644000D01*
X65342000Y-86254000D02*
X65752000Y-86254000D01*
X65342000Y-86974000D02*
X65752000Y-86974000D01*
X65342000Y-88794000D02*
X65752000Y-88794000D01*
X65342000Y-89514000D02*
X65752000Y-89514000D01*
X65342000Y-91334000D02*
X65752000Y-91334000D01*
X65342000Y-92054000D02*
X65752000Y-92054000D01*
X65342000Y-93874000D02*
X65752000Y-93874000D01*
X65342000Y-94594000D02*
X65752000Y-94594000D01*
X65342000Y-96414000D02*
X65752000Y-96414000D01*
X65342000Y-97134000D02*
X65752000Y-97134000D01*
X65342000Y-98954000D02*
X65752000Y-98954000D01*
X65342000Y-99674000D02*
X65752000Y-99674000D01*
X67852000Y-86254000D02*
X68232000Y-86254000D01*
X67852000Y-86974000D02*
X68232000Y-86974000D01*
X67852000Y-88794000D02*
X68292000Y-88794000D01*
X67852000Y-89514000D02*
X68292000Y-89514000D01*
X67852000Y-91334000D02*
X68292000Y-91334000D01*
X67852000Y-92054000D02*
X68292000Y-92054000D01*
X67852000Y-93874000D02*
X68292000Y-93874000D01*
X67852000Y-94594000D02*
X68292000Y-94594000D01*
X67852000Y-96414000D02*
X68292000Y-96414000D01*
X67852000Y-97134000D02*
X68292000Y-97134000D01*
X67852000Y-98954000D02*
X68292000Y-98954000D01*
X67852000Y-99674000D02*
X68292000Y-99674000D01*
X69342000Y-85284000D02*
X70452000Y-85284000D01*
X70452000Y-85284000D02*
X70452000Y-86614000D01*
%TO.C,C3*%
X130917733Y-82548000D02*
X131210267Y-82548000D01*
X130917733Y-83568000D02*
X131210267Y-83568000D01*
%TO.C,J2*%
X56712000Y-131004000D02*
X56712000Y-146364000D01*
X56712000Y-131004000D02*
X65342000Y-131004000D01*
X56712000Y-131124000D02*
X65342000Y-131124000D01*
X56712000Y-131242095D02*
X65342000Y-131242095D01*
X56712000Y-131360190D02*
X65342000Y-131360190D01*
X56712000Y-131478285D02*
X65342000Y-131478285D01*
X56712000Y-131596380D02*
X65342000Y-131596380D01*
X56712000Y-131714475D02*
X65342000Y-131714475D01*
X56712000Y-131832570D02*
X65342000Y-131832570D01*
X56712000Y-131950665D02*
X65342000Y-131950665D01*
X56712000Y-132068760D02*
X65342000Y-132068760D01*
X56712000Y-132186855D02*
X65342000Y-132186855D01*
X56712000Y-132304950D02*
X65342000Y-132304950D01*
X56712000Y-132423045D02*
X65342000Y-132423045D01*
X56712000Y-132541140D02*
X65342000Y-132541140D01*
X56712000Y-132659235D02*
X65342000Y-132659235D01*
X56712000Y-132777330D02*
X65342000Y-132777330D01*
X56712000Y-132895425D02*
X65342000Y-132895425D01*
X56712000Y-133013520D02*
X65342000Y-133013520D01*
X56712000Y-133131615D02*
X65342000Y-133131615D01*
X56712000Y-133249710D02*
X65342000Y-133249710D01*
X56712000Y-133367805D02*
X65342000Y-133367805D01*
X56712000Y-133485900D02*
X65342000Y-133485900D01*
X56712000Y-133604000D02*
X65342000Y-133604000D01*
X56712000Y-136144000D02*
X65342000Y-136144000D01*
X56712000Y-138684000D02*
X65342000Y-138684000D01*
X56712000Y-141224000D02*
X65342000Y-141224000D01*
X56712000Y-143764000D02*
X65342000Y-143764000D01*
X56712000Y-146364000D02*
X65342000Y-146364000D01*
X65342000Y-131004000D02*
X65342000Y-146364000D01*
X65342000Y-131974000D02*
X65752000Y-131974000D01*
X65342000Y-132694000D02*
X65752000Y-132694000D01*
X65342000Y-134514000D02*
X65752000Y-134514000D01*
X65342000Y-135234000D02*
X65752000Y-135234000D01*
X65342000Y-137054000D02*
X65752000Y-137054000D01*
X65342000Y-137774000D02*
X65752000Y-137774000D01*
X65342000Y-139594000D02*
X65752000Y-139594000D01*
X65342000Y-140314000D02*
X65752000Y-140314000D01*
X65342000Y-142134000D02*
X65752000Y-142134000D01*
X65342000Y-142854000D02*
X65752000Y-142854000D01*
X65342000Y-144674000D02*
X65752000Y-144674000D01*
X65342000Y-145394000D02*
X65752000Y-145394000D01*
X67852000Y-131974000D02*
X68232000Y-131974000D01*
X67852000Y-132694000D02*
X68232000Y-132694000D01*
X67852000Y-134514000D02*
X68292000Y-134514000D01*
X67852000Y-135234000D02*
X68292000Y-135234000D01*
X67852000Y-137054000D02*
X68292000Y-137054000D01*
X67852000Y-137774000D02*
X68292000Y-137774000D01*
X67852000Y-139594000D02*
X68292000Y-139594000D01*
X67852000Y-140314000D02*
X68292000Y-140314000D01*
X67852000Y-142134000D02*
X68292000Y-142134000D01*
X67852000Y-142854000D02*
X68292000Y-142854000D01*
X67852000Y-144674000D02*
X68292000Y-144674000D01*
X67852000Y-145394000D02*
X68292000Y-145394000D01*
X69342000Y-131004000D02*
X70452000Y-131004000D01*
X70452000Y-131004000D02*
X70452000Y-132334000D01*
%TD*%
M02*
