M48
; DRILL file {KiCad 9.0.2} date 2026-09-23T01:16:04+0900
; FORMAT={-:-/ absolute / metric / decimal}
; #@! TF.CreationDate,2026-09-23T01:16:04+09:00
; #@! TF.GenerationSoftware,Kicad,Pcbnew,9.0.2
; #@! TF.FileFunction,Plated,1,2,PTH
FMAT,2
METRIC
; #@! TA.AperFunction,Plated,PTH,ViaDrill
T1C0.300
; #@! TA.AperFunction,Plated,PTH,ViaDrill
T2C0.600
; #@! TA.AperFunction,Plated,PTH,ComponentDrill
T3C1.000
; #@! TA.AperFunction,Plated,PTH,ComponentDrill
T4C1.300
%
G90
G05
T1
X63.754Y-162.814
X63.754Y-165.354
X63.754Y-167.894
X64.77Y-79.502
X66.04Y-103.124
X67.31Y-79.502
X68.072Y-124.968
X68.072Y-126.492
X68.072Y-128.016
X68.326Y-103.124
X69.342Y-150.368
X69.596Y-79.502
X71.247Y-127.508
X71.628Y-79.502
X71.882Y-101.092
X72.39Y-85.598
X72.39Y-87.63
X72.39Y-150.368
X72.644Y-99.568
X72.898Y-125.984
X73.66Y-79.502
X73.914Y-86.36
X74.168Y-100.965
X74.612Y-144.589
X75.438Y-146.558
X77.724Y-136.779
X77.724Y-138.43
X77.724Y-139.954
X79.248Y-83.947
X81.153Y-83.947
X85.09Y-80.518
X85.09Y-82.804
X88.646Y-81.534
X90.17Y-81.534
X93.218Y-85.598
X93.726Y-88.646
X93.98Y-129.54
X95.504Y-86.868
X96.52Y-93.218
X96.52Y-94.742
X96.52Y-96.266
X97.028Y-128.524
X97.79Y-101.6
X98.806Y-135.128
X99.06Y-86.106
X99.822Y-101.6
X100.33Y-87.376
X100.584Y-78.994
X101.6Y-88.646
X101.6Y-113.03
X101.854Y-101.6
X102.87Y-112.014
X103.124Y-121.412
X103.124Y-125.222
X103.124Y-127.0
X103.124Y-128.778
X103.378Y-78.74
X103.886Y-101.6
X104.14Y-84.836
X105.41Y-78.74
X105.41Y-86.106
X106.045Y-141.986
X106.68Y-87.376
X106.68Y-102.87
X106.807Y-134.747
X107.061Y-137.287
X107.442Y-131.064
X107.696Y-113.284
X107.707Y-110.755
X109.474Y-109.728
X110.998Y-108.204
X111.506Y-80.264
X112.014Y-133.35
X112.268Y-128.778
X112.522Y-123.444
X113.284Y-104.648
X114.046Y-126.746
X114.046Y-133.35
X115.062Y-121.666
X115.824Y-133.35
X116.078Y-126.746
X117.602Y-133.35
X117.856Y-126.746
X128.016Y-126.746
X128.016Y-133.096
X129.794Y-126.746
X129.794Y-133.096
X131.572Y-105.918
X131.572Y-107.442
X131.572Y-108.966
X131.572Y-110.49
X131.572Y-126.746
X131.572Y-133.096
X133.35Y-79.502
X135.128Y-79.502
X136.906Y-79.502
X145.288Y-81.28
X147.066Y-81.28
X147.193Y-107.061
X147.574Y-110.617
X147.574Y-113.538
X148.463Y-106.172
X148.463Y-107.95
X148.844Y-81.28
X151.384Y-139.7
X151.638Y-106.426
X151.638Y-107.696
X152.146Y-90.678
X152.146Y-93.218
X152.908Y-106.426
X154.432Y-106.172
X156.21Y-127.254
X156.21Y-128.778
X156.21Y-130.302
X156.21Y-131.826
X156.21Y-133.35
X156.21Y-134.874
X156.718Y-146.05
X156.718Y-147.574
X156.718Y-149.098
X158.242Y-83.82
X160.274Y-104.648
X160.274Y-106.172
T2
X83.058Y-156.21
X92.583Y-155.829
X152.4Y-158.75
T3
X66.802Y-86.614
X66.802Y-89.154
X66.802Y-91.694
X66.802Y-94.234
X66.802Y-96.774
X66.802Y-99.314
X66.802Y-109.474
X66.802Y-112.014
X66.802Y-114.554
X66.802Y-117.094
X66.802Y-119.634
X66.802Y-122.174
X66.802Y-132.334
X66.802Y-134.874
X66.802Y-137.414
X66.802Y-139.954
X66.802Y-142.494
X66.802Y-145.034
X66.802Y-155.194
X66.802Y-157.734
X66.802Y-160.274
X66.802Y-162.814
X66.802Y-165.354
X66.802Y-167.894
X69.342Y-86.614
X69.342Y-89.154
X69.342Y-91.694
X69.342Y-94.234
X69.342Y-96.774
X69.342Y-99.314
X69.342Y-109.474
X69.342Y-112.014
X69.342Y-114.554
X69.342Y-117.094
X69.342Y-119.634
X69.342Y-122.174
X69.342Y-132.334
X69.342Y-134.874
X69.342Y-137.414
X69.342Y-139.954
X69.342Y-142.494
X69.342Y-145.034
X69.342Y-155.194
X69.342Y-157.734
X69.342Y-160.274
X69.342Y-162.814
X69.342Y-165.354
X69.342Y-167.894
X80.323Y-86.868
X80.323Y-89.408
X80.323Y-91.948
X80.323Y-94.488
X80.323Y-97.028
X80.323Y-99.568
X80.323Y-102.108
X80.323Y-104.648
X80.323Y-107.188
X80.323Y-109.728
X80.323Y-112.268
X80.323Y-114.808
X80.323Y-117.348
X80.323Y-119.888
X80.323Y-122.428
X80.323Y-124.968
X80.323Y-127.508
X80.323Y-130.048
X80.323Y-132.588
X80.323Y-135.128
X80.323Y-137.668
X80.323Y-140.208
X80.323Y-142.748
X80.323Y-145.288
X80.323Y-147.828
X82.863Y-86.868
X82.863Y-89.408
X82.863Y-91.948
X82.863Y-94.488
X82.863Y-97.028
X82.863Y-99.568
X82.863Y-102.108
X82.863Y-104.648
X82.863Y-107.188
X82.863Y-109.728
X82.863Y-112.268
X82.863Y-114.808
X82.863Y-117.348
X82.863Y-119.888
X82.863Y-122.428
X82.863Y-124.968
X82.863Y-127.508
X82.863Y-130.048
X82.863Y-132.588
X82.863Y-135.128
X82.863Y-137.668
X82.863Y-140.208
X82.863Y-142.748
X82.863Y-145.288
X82.863Y-147.828
X87.943Y-86.868
X87.943Y-89.408
X87.943Y-91.948
X87.943Y-94.488
X87.943Y-97.028
X87.943Y-99.568
X87.943Y-102.108
X87.943Y-104.648
X87.943Y-107.188
X87.943Y-109.728
X87.943Y-112.268
X87.943Y-114.808
X87.943Y-117.348
X87.943Y-119.888
X87.943Y-122.428
X87.943Y-124.968
X87.943Y-127.508
X87.943Y-130.048
X87.943Y-132.588
X87.943Y-135.128
X87.943Y-137.668
X87.943Y-140.208
X87.943Y-142.748
X87.943Y-145.288
X87.943Y-147.828
X90.483Y-86.868
X90.483Y-89.408
X90.483Y-91.948
X90.483Y-94.488
X90.483Y-97.028
X90.483Y-99.568
X90.483Y-102.108
X90.483Y-104.648
X90.483Y-107.188
X90.483Y-109.728
X90.483Y-112.268
X90.483Y-114.808
X90.483Y-117.348
X90.483Y-119.888
X90.483Y-122.428
X90.483Y-124.968
X90.483Y-127.508
X90.483Y-130.048
X90.483Y-132.588
X90.483Y-135.128
X90.483Y-137.668
X90.483Y-140.208
X90.483Y-142.748
X90.483Y-145.288
X90.483Y-147.828
X96.012Y-113.284
X96.012Y-115.824
X96.012Y-118.364
X96.012Y-120.904
X96.012Y-123.444
X98.552Y-113.284
X98.552Y-115.824
X98.552Y-118.364
X98.552Y-120.904
X98.552Y-123.444
X108.779Y-93.828
X108.779Y-96.368
X111.319Y-93.828
X111.319Y-96.368
X113.859Y-93.828
X113.859Y-96.368
X116.399Y-93.828
X116.399Y-96.368
X121.516Y-94.56
X121.516Y-99.06
X123.185Y-80.772
X123.195Y-85.344
X125.725Y-80.772
X125.735Y-85.344
X128.016Y-94.56
X128.016Y-99.06
X134.933Y-86.868
X134.933Y-89.408
X134.933Y-91.948
X134.933Y-94.488
X134.933Y-97.028
X134.933Y-99.568
X134.933Y-102.108
X134.933Y-104.648
X134.933Y-107.188
X134.933Y-109.728
X134.933Y-112.268
X134.933Y-114.808
X134.933Y-117.348
X134.933Y-119.888
X134.933Y-122.428
X134.933Y-124.968
X134.933Y-127.508
X134.933Y-130.048
X134.933Y-132.588
X134.933Y-135.128
X134.933Y-137.668
X134.933Y-140.208
X134.933Y-142.748
X134.933Y-145.288
X134.933Y-147.828
X137.473Y-86.868
X137.473Y-89.408
X137.473Y-91.948
X137.473Y-94.488
X137.473Y-97.028
X137.473Y-99.568
X137.473Y-102.108
X137.473Y-104.648
X137.473Y-107.188
X137.473Y-109.728
X137.473Y-112.268
X137.473Y-114.808
X137.473Y-117.348
X137.473Y-119.888
X137.473Y-122.428
X137.473Y-124.968
X137.473Y-127.508
X137.473Y-130.048
X137.473Y-132.588
X137.473Y-135.128
X137.473Y-137.668
X137.473Y-140.208
X137.473Y-142.748
X137.473Y-145.288
X137.473Y-147.828
X142.323Y-86.868
X142.323Y-89.408
X142.323Y-91.948
X142.323Y-94.488
X142.323Y-97.028
X142.323Y-99.568
X142.323Y-102.108
X142.323Y-104.648
X142.323Y-107.188
X142.323Y-109.728
X142.323Y-112.268
X142.323Y-114.808
X142.323Y-117.348
X142.323Y-119.888
X142.323Y-122.428
X142.323Y-124.968
X142.323Y-127.508
X142.323Y-130.048
X142.323Y-132.588
X142.323Y-135.128
X142.323Y-137.668
X142.323Y-140.208
X142.323Y-142.748
X142.323Y-145.288
X142.323Y-147.828
X144.863Y-86.868
X144.863Y-89.408
X144.863Y-91.948
X144.863Y-94.488
X144.863Y-97.028
X144.863Y-99.568
X144.863Y-102.108
X144.863Y-104.648
X144.863Y-107.188
X144.863Y-109.728
X144.863Y-112.268
X144.863Y-114.808
X144.863Y-117.348
X144.863Y-119.888
X144.863Y-122.428
X144.863Y-124.968
X144.863Y-127.508
X144.863Y-130.048
X144.863Y-132.588
X144.863Y-135.128
X144.863Y-137.668
X144.863Y-140.208
X144.863Y-142.748
X144.863Y-145.288
X144.863Y-147.828
X154.395Y-86.843
X154.395Y-89.383
X154.395Y-91.923
X154.395Y-94.463
X154.395Y-97.003
X154.395Y-99.543
X154.395Y-109.728
X154.395Y-112.268
X154.395Y-114.808
X154.395Y-117.348
X154.395Y-119.888
X154.395Y-122.428
X156.935Y-86.843
X156.935Y-89.383
X156.935Y-91.923
X156.935Y-94.463
X156.935Y-97.003
X156.935Y-99.543
X156.935Y-109.728
X156.935Y-112.268
X156.935Y-114.808
X156.935Y-117.348
X156.935Y-119.888
X156.935Y-122.428
T4
X105.664Y-158.582
X105.664Y-165.082
X112.268Y-83.739
X116.84Y-158.496
X116.84Y-164.996
X117.348Y-83.739
X127.508Y-158.496
X127.508Y-164.996
X138.43Y-158.496
X138.43Y-164.996
M30
